<svg xmlns="http://www.w3.org/2000/svg" viewBox="0 0 1440 850" role="img" aria-labelledby="title desc">
<title id="title">AGILAB analysis page vector screenshot summary</title>
<desc id="desc">Screenshot-derived SVG summary generated from analysis-page.png, sha256 69e971e72e855804. The PNG remains the canonical raster evidence.</desc>
<defs><linearGradient id="panelGradient" x1="0" x2="1"><stop offset="0" stop-color="#1f2c2f"/><stop offset="0.55" stop-color="#0f3033"/><stop offset="1" stop-color="#243b24"/></linearGradient></defs>
<rect x="0" y="0" width="1440" height="850" rx="0" fill="#07111f"/>
<rect x="0" y="0" width="300" height="850" rx="0" fill="#10293b"/>
<text x="20" y="46" font-size="26" font-weight="700" fill="#c9d3d7" text-anchor="start">AGI Lab</text>
<text x="28" y="94" font-size="14" font-weight="500" fill="#d6dde0" text-anchor="start">PROJECT</text>
<text x="28" y="128" font-size="14" font-weight="500" fill="#d6dde0" text-anchor="start">ORCHESTRATE</text>
<text x="28" y="162" font-size="14" font-weight="500" fill="#d6dde0" text-anchor="start">WORKFLOW</text>
<rect x="20" y="179" width="260" height="28" rx="6" fill="#38546c"/>
<text x="28" y="196" font-size="14" font-weight="800" fill="#f7f7f2" text-anchor="start">ANALYSIS</text>
<line x1="20" y1="230" x2="280" y2="230" stroke="#4e6572" stroke-width="1" opacity="0.75"/>
<text x="20" y="273" font-size="16" font-weight="700" fill="#f7f7f2" text-anchor="start">Flight Telemetry Project</text>
<text x="20" y="318" font-size="13" font-weight="700" fill="#c7cdd0" text-anchor="start">view_maps</text>
<text x="20" y="348" font-size="13" font-weight="700" fill="#c7cdd0" text-anchor="start">view_maps_network</text>
<text x="16" y="830" font-size="12" font-weight="400" fill="#b9c5ca" text-anchor="start">AGILAB v2026.06.02+dev.95dee1cf7</text>
<text x="1340" y="34" font-size="14" font-weight="700" fill="#f7f7f2" text-anchor="start">Deploy</text>
<rect x="380" y="120" width="980" height="210" rx="20" fill="url(#panelGradient)" stroke="#4f6471" stroke-width="1"/>
<line x1="400" y1="135" x2="1328" y2="135" stroke="#cda759" stroke-width="1" opacity="0.8"/>
<rect x="410" y="150" width="216" height="104" rx="12" fill="#20363b" stroke="#4f6471" stroke-width="1" opacity="0.96"/>
<rect x="420" y="162" width="4" height="80" rx="2" fill="#7ee6c6"/>
<text x="428" y="174" font-size="11" font-weight="800" fill="#c7cdd0" text-anchor="start">OUTPUT FILES</text>
<text x="428" y="206" font-size="22" font-weight="800" fill="#7ee6c6" text-anchor="start">31</text>
<text x="428" y="236" font-size="12" font-weight="400" fill="#aeb9bd" text-anchor="start">latest output set</text>
<rect x="645" y="150" width="216" height="104" rx="12" fill="#20363b" stroke="#4f6471" stroke-width="1" opacity="0.96"/>
<rect x="655" y="162" width="4" height="80" rx="2" fill="#7ee6c6"/>
<text x="663" y="174" font-size="11" font-weight="800" fill="#c7cdd0" text-anchor="start">LATEST OUTPUT</text>
<text x="663" y="206" font-size="22" font-weight="800" fill="#7ee6c6" text-anchor="start">2026-05-30 20:44</text>
<text x="663" y="236" font-size="12" font-weight="400" fill="#aeb9bd" text-anchor="start">timestamp</text>
<rect x="880" y="150" width="216" height="104" rx="12" fill="#20363b" stroke="#4f6471" stroke-width="1" opacity="0.96"/>
<rect x="890" y="162" width="4" height="80" rx="2" fill="#7ee6c6"/>
<text x="898" y="174" font-size="11" font-weight="800" fill="#c7cdd0" text-anchor="start">VIEWS SELECTED</text>
<text x="898" y="206" font-size="22" font-weight="800" fill="#7ee6c6" text-anchor="start">2/17</text>
<text x="898" y="236" font-size="12" font-weight="400" fill="#aeb9bd" text-anchor="start">linked to project</text>
<rect x="1115" y="150" width="216" height="104" rx="12" fill="#20363b" stroke="#4f6471" stroke-width="1" opacity="0.96"/>
<rect x="1125" y="162" width="4" height="80" rx="2" fill="#7ee6c6"/>
<text x="1133" y="174" font-size="11" font-weight="800" fill="#c7cdd0" text-anchor="start">NOTEBOOKS SELECTED</text>
<text x="1133" y="206" font-size="22" font-weight="800" fill="#7ee6c6" text-anchor="start">0/0</text>
<text x="1133" y="236" font-size="12" font-weight="400" fill="#aeb9bd" text-anchor="start">no notebooks found</text>
<text x="410" y="288" font-size="14" font-weight="500" fill="#aeb9bd" text-anchor="start">Discovered evidence: dataframe, beams, satellites</text>
<rect x="380" y="362" width="980" height="40" rx="8" fill="#0b1727" stroke="#4f6471" stroke-width="1"/>
<text x="418" y="388" font-size="14" font-weight="700" fill="#f7f7f2" text-anchor="start">Evidence drawer</text>
<rect x="380" y="418" width="980" height="40" rx="8" fill="#0b1727" stroke="#4f6471" stroke-width="1"/>
<text x="418" y="444" font-size="14" font-weight="700" fill="#f7f7f2" text-anchor="start">Analysis context</text>
<rect x="380" y="474" width="980" height="40" rx="8" fill="#0b1727" stroke="#4f6471" stroke-width="1"/>
<text x="418" y="500" font-size="14" font-weight="700" fill="#f7f7f2" text-anchor="start">Choose analysis views</text>
<rect x="380" y="530" width="980" height="40" rx="8" fill="#0b1727" stroke="#4f6471" stroke-width="1"/>
<text x="418" y="556" font-size="14" font-weight="700" fill="#f7f7f2" text-anchor="start">How to choose pages and notebooks</text>
<rect x="380" y="586" width="980" height="40" rx="8" fill="#0b1727" stroke="#4f6471" stroke-width="1"/>
<text x="418" y="612" font-size="14" font-weight="700" fill="#f7f7f2" text-anchor="start">Create analysis view</text>
</svg>
