<svg xmlns="http://www.w3.org/2000/svg" viewBox="0 0 1440 850" role="img" aria-labelledby="title desc">
<title id="title">AGILAB orchestrate page vector screenshot summary</title>
<desc id="desc">Screenshot-derived SVG summary generated from orchestrate-page.png, sha256 840b4bd8f3f33cb7. The PNG remains the canonical raster evidence.</desc>
<defs><linearGradient id="panelGradient" x1="0" x2="1"><stop offset="0" stop-color="#1f2c2f"/><stop offset="0.55" stop-color="#0f3033"/><stop offset="1" stop-color="#243b24"/></linearGradient></defs>
<rect x="0" y="0" width="1440" height="850" rx="0" fill="#07111f"/>
<rect x="0" y="0" width="300" height="850" rx="0" fill="#10293b"/>
<text x="20" y="46" font-size="26" font-weight="700" fill="#c9d3d7" text-anchor="start">AGI Lab</text>
<text x="28" y="94" font-size="14" font-weight="500" fill="#d6dde0" text-anchor="start">PROJECT</text>
<rect x="20" y="111" width="260" height="28" rx="6" fill="#38546c"/>
<text x="28" y="128" font-size="14" font-weight="800" fill="#f7f7f2" text-anchor="start">ORCHESTRATE</text>
<text x="28" y="162" font-size="14" font-weight="500" fill="#d6dde0" text-anchor="start">WORKFLOW</text>
<text x="28" y="196" font-size="14" font-weight="500" fill="#d6dde0" text-anchor="start">ANALYSIS</text>
<line x1="20" y1="230" x2="280" y2="230" stroke="#4e6572" stroke-width="1" opacity="0.75"/>
<text x="20" y="273" font-size="16" font-weight="700" fill="#f7f7f2" text-anchor="start">Flight Telemetry</text>
<rect x="20" y="318" width="260" height="40" rx="8" fill="#102b3d" stroke="#4f6471" stroke-width="1"/>
<text x="56" y="344" font-size="14" font-weight="600" fill="#f7f7f2" text-anchor="start">Quick actions</text>
<rect x="20" y="374" width="260" height="40" rx="8" fill="#102b3d" stroke="#4f6471" stroke-width="1"/>
<text x="56" y="400" font-size="14" font-weight="600" fill="#f7f7f2" text-anchor="start">agi-app</text>
<rect x="20" y="430" width="260" height="40" rx="8" fill="#102b3d" stroke="#4f6471" stroke-width="1"/>
<text x="56" y="456" font-size="14" font-weight="600" fill="#f7f7f2" text-anchor="start">Reviewed</text>
<text x="16" y="830" font-size="12" font-weight="400" fill="#b9c5ca" text-anchor="start">AGILAB v2026.06.02</text>
<text x="1340" y="34" font-size="14" font-weight="700" fill="#f7f7f2" text-anchor="start">Deploy</text>
<rect x="380" y="120" width="980" height="590" rx="20" fill="url(#panelGradient)" stroke="#4f6471" stroke-width="1"/>
<line x1="400" y1="135" x2="1328" y2="135" stroke="#cda759" stroke-width="1" opacity="0.8"/>
<rect x="380" y="112" width="980" height="40" rx="8" fill="#0b1727" stroke="#4f6471" stroke-width="1"/>
<text x="418" y="138" font-size="14" font-weight="700" fill="#f7f7f2" text-anchor="start">Environment Health</text>
<rect x="380" y="168" width="980" height="40" rx="8" fill="#0b1727" stroke="#4f6471" stroke-width="1"/>
<text x="418" y="194" font-size="14" font-weight="700" fill="#f7f7f2" text-anchor="start">Environment details</text>
<rect x="380" y="224" width="980" height="92" rx="8" fill="#0b1727" stroke="#4f6471" stroke-width="1"/>
<text x="418" y="250" font-size="14" font-weight="700" fill="#f7f7f2" text-anchor="start">1. Resources and install</text>
<rect x="412" y="260" width="150" height="28" rx="6" fill="#101f2f" stroke="#4f6471" stroke-width="1"/>
<text x="487" y="279" font-size="12" font-weight="600" fill="#f7f7f2" text-anchor="middle">Share: not used</text>
<rect x="587" y="260" width="150" height="28" rx="6" fill="#101f2f" stroke="#4f6471" stroke-width="1"/>
<text x="662" y="279" font-size="12" font-weight="600" fill="#f7f7f2" text-anchor="middle">CPU: 16 cores</text>
<rect x="762" y="260" width="150" height="28" rx="6" fill="#101f2f" stroke="#4f6471" stroke-width="1"/>
<text x="837" y="279" font-size="12" font-weight="600" fill="#f7f7f2" text-anchor="middle">RAM: 48 GB</text>
<rect x="937" y="260" width="150" height="28" rx="6" fill="#101f2f" stroke="#4f6471" stroke-width="1"/>
<text x="1012" y="279" font-size="12" font-weight="600" fill="#f7f7f2" text-anchor="middle">GPU: Apple M4 Max</text>
<rect x="1112" y="260" width="150" height="28" rx="6" fill="#101f2f" stroke="#4f6471" stroke-width="1"/>
<text x="1187" y="279" font-size="12" font-weight="600" fill="#f7f7f2" text-anchor="middle">NPU: Apple Neural Engine</text>
<rect x="380" y="336" width="980" height="92" rx="8" fill="#0b1727" stroke="#4f6471" stroke-width="1"/>
<text x="418" y="362" font-size="14" font-weight="700" fill="#f7f7f2" text-anchor="start">Worker options</text>
<rect x="412" y="372" width="150" height="28" rx="6" fill="#101f2f" stroke="#4f6471" stroke-width="1"/>
<text x="487" y="391" font-size="12" font-weight="600" fill="#f7f7f2" text-anchor="middle">Cython</text>
<rect x="587" y="372" width="150" height="28" rx="6" fill="#101f2f" stroke="#4f6471" stroke-width="1"/>
<text x="662" y="391" font-size="12" font-weight="600" fill="#f7f7f2" text-anchor="middle">Pool</text>
<rect x="762" y="372" width="150" height="28" rx="6" fill="#101f2f" stroke="#4f6471" stroke-width="1"/>
<text x="837" y="391" font-size="12" font-weight="600" fill="#f7f7f2" text-anchor="middle">Rapids</text>
<rect x="937" y="372" width="150" height="28" rx="6" fill="#101f2f" stroke="#4f6471" stroke-width="1"/>
<text x="1012" y="391" font-size="12" font-weight="600" fill="#f7f7f2" text-anchor="middle">Enable Cluster</text>
<rect x="380" y="448" width="980" height="68" rx="8" fill="#0b1727" stroke="#4f6471" stroke-width="1"/>
<text x="418" y="474" font-size="14" font-weight="700" fill="#f7f7f2" text-anchor="start">Generated INSTALL snippet</text>
<rect x="412" y="484" width="150" height="28" rx="6" fill="#101f2f" stroke="#4f6471" stroke-width="1"/>
<text x="487" y="503" font-size="12" font-weight="600" fill="#f7f7f2" text-anchor="middle">INSTALL</text>
<rect x="380" y="560" width="980" height="68" rx="8" fill="#0b1727" stroke="#4f6471" stroke-width="1"/>
<text x="418" y="586" font-size="14" font-weight="700" fill="#f7f7f2" text-anchor="start">2. Configure run arguments</text>
<rect x="412" y="596" width="150" height="28" rx="6" fill="#101f2f" stroke="#4f6471" stroke-width="1"/>
<text x="487" y="615" font-size="12" font-weight="600" fill="#f7f7f2" text-anchor="middle">Edit app parameters</text>
</svg>
