<svg xmlns="http://www.w3.org/2000/svg" viewBox="0 0 1440 850" role="img" aria-labelledby="title desc">
<title id="title">AGILAB workflow page vector screenshot summary</title>
<desc id="desc">Screenshot-derived SVG summary generated from workflow-page.png, sha256 0a32f81d0b9d8f1f. The PNG remains the canonical raster evidence.</desc>
<defs><linearGradient id="panelGradient" x1="0" x2="1"><stop offset="0" stop-color="#1f2c2f"/><stop offset="0.55" stop-color="#0f3033"/><stop offset="1" stop-color="#243b24"/></linearGradient></defs>
<rect x="0" y="0" width="1440" height="850" rx="0" fill="#07111f"/>
<rect x="0" y="0" width="300" height="850" rx="0" fill="#10293b"/>
<text x="20" y="46" font-size="26" font-weight="700" fill="#c9d3d7" text-anchor="start">AGI Lab</text>
<text x="28" y="94" font-size="14" font-weight="500" fill="#d6dde0" text-anchor="start">PROJECT</text>
<text x="28" y="128" font-size="14" font-weight="500" fill="#d6dde0" text-anchor="start">ORCHESTRATE</text>
<rect x="20" y="145" width="260" height="28" rx="6" fill="#38546c"/>
<text x="28" y="162" font-size="14" font-weight="800" fill="#f7f7f2" text-anchor="start">WORKFLOW</text>
<text x="28" y="196" font-size="14" font-weight="500" fill="#d6dde0" text-anchor="start">ANALYSIS</text>
<line x1="20" y1="230" x2="280" y2="230" stroke="#4e6572" stroke-width="1" opacity="0.75"/>
<text x="20" y="273" font-size="16" font-weight="700" fill="#f7f7f2" text-anchor="start">Flight Telemetry</text>
<rect x="20" y="304" width="260" height="34" rx="8" fill="#0b1727" stroke="#4f6471" stroke-width="1"/>
<text x="34" y="326" font-size="11" font-weight="700" fill="#f7f7f2" text-anchor="start">Run selected AGI.on_output...</text>
<rect x="20" y="356" width="260" height="46" rx="8" fill="#0b1727" stroke="#4f6471" stroke-width="1"/>
<text x="34" y="376" font-size="11" font-weight="700" fill="#f7f7f2" text-anchor="start">Notify generated pipeline stage</text>
<text x="16" y="830" font-size="12" font-weight="400" fill="#b9c5ca" text-anchor="start">AGILAB v2026.06.02+dev.95dee1cf7</text>
<text x="1340" y="34" font-size="14" font-weight="700" fill="#f7f7f2" text-anchor="start">Deploy</text>
<rect x="380" y="120" width="980" height="210" rx="20" fill="url(#panelGradient)" stroke="#4f6471" stroke-width="1"/>
<line x1="400" y1="135" x2="1328" y2="135" stroke="#cda759" stroke-width="1" opacity="0.8"/>
<rect x="410" y="150" width="450" height="104" rx="12" fill="#20363b" stroke="#4f6471" stroke-width="1" opacity="0.96"/>
<rect x="420" y="162" width="4" height="80" rx="2" fill="#f4b44d"/>
<text x="428" y="174" font-size="11" font-weight="800" fill="#c7cdd0" text-anchor="start">RUNNABLE</text>
<text x="428" y="206" font-size="22" font-weight="800" fill="#f4b44d" text-anchor="start">0</text>
<text x="428" y="236" font-size="12" font-weight="400" fill="#aeb9bd" text-anchor="start">stages with executable code</text>
<rect x="880" y="150" width="450" height="104" rx="12" fill="#20363b" stroke="#4f6471" stroke-width="1" opacity="0.96"/>
<rect x="890" y="162" width="4" height="80" rx="2" fill="#7ee6c6"/>
<text x="898" y="174" font-size="11" font-weight="800" fill="#c7cdd0" text-anchor="start">OUTPUT FILES</text>
<text x="898" y="206" font-size="22" font-weight="800" fill="#7ee6c6" text-anchor="start">9</text>
<text x="898" y="236" font-size="12" font-weight="400" fill="#aeb9bd" text-anchor="start">2026-06-02 03:55</text>
<rect x="410" y="274" width="295" height="104" rx="12" fill="#20363b" stroke="#4f6471" stroke-width="1" opacity="0.96"/>
<rect x="420" y="286" width="4" height="80" rx="2" fill="#7ee6c6"/>
<text x="428" y="298" font-size="11" font-weight="800" fill="#c7cdd0" text-anchor="start">DATAFRAMES</text>
<text x="428" y="330" font-size="22" font-weight="800" fill="#7ee6c6" text-anchor="start">7</text>
<text x="428" y="360" font-size="12" font-weight="400" fill="#aeb9bd" text-anchor="start">previewable table files</text>
<rect x="724" y="274" width="295" height="104" rx="12" fill="#20363b" stroke="#4f6471" stroke-width="1" opacity="0.96"/>
<rect x="734" y="286" width="4" height="80" rx="2" fill="#7ee6c6"/>
<text x="742" y="298" font-size="11" font-weight="800" fill="#c7cdd0" text-anchor="start">WORKFLOW GRAPH</text>
<text x="742" y="330" font-size="22" font-weight="800" fill="#7ee6c6" text-anchor="start">6/1</text>
<text x="742" y="360" font-size="12" font-weight="400" fill="#aeb9bd" text-anchor="start">pipeline_view.dot</text>
<rect x="1036" y="274" width="292" height="104" rx="12" fill="#20363b" stroke="#4f6471" stroke-width="1" opacity="0.96"/>
<rect x="1046" y="286" width="4" height="80" rx="2" fill="#aeb9bd"/>
<text x="1054" y="298" font-size="11" font-weight="800" fill="#c7cdd0" text-anchor="start">UPDATED</text>
<text x="1054" y="330" font-size="22" font-weight="800" fill="#aeb9bd" text-anchor="start">2026-06-02 03:55</text>
<text x="1054" y="360" font-size="12" font-weight="400" fill="#aeb9bd" text-anchor="start">flight_telemetry</text>
<rect x="380" y="444" width="980" height="40" rx="8" fill="#0b1727" stroke="#4f6471" stroke-width="1"/>
<text x="418" y="470" font-size="14" font-weight="700" fill="#f7f7f2" text-anchor="start">Notebook</text>
<rect x="380" y="500" width="980" height="330" rx="8" fill="#0b1727" stroke="#4f6471" stroke-width="1"/>
<text x="418" y="526" font-size="14" font-weight="700" fill="#f7f7f2" text-anchor="start">Workflow graph</text>
<rect x="412" y="536" width="150" height="28" rx="6" fill="#101f2f" stroke="#4f6471" stroke-width="1"/>
<text x="487" y="555" font-size="12" font-weight="600" fill="#f7f7f2" text-anchor="middle">Project workflow</text>
<rect x="587" y="536" width="150" height="28" rx="6" fill="#101f2f" stroke="#4f6471" stroke-width="1"/>
<text x="662" y="555" font-size="12" font-weight="600" fill="#f7f7f2" text-anchor="middle">Multi-app DAG</text>
<rect x="762" y="536" width="150" height="28" rx="6" fill="#101f2f" stroke="#4f6471" stroke-width="1"/>
<text x="837" y="555" font-size="12" font-weight="600" fill="#f7f7f2" text-anchor="middle">Choose workplan</text>
<rect x="937" y="536" width="150" height="28" rx="6" fill="#101f2f" stroke="#4f6471" stroke-width="1"/>
<text x="1012" y="555" font-size="12" font-weight="600" fill="#f7f7f2" text-anchor="middle">App templates</text>
</svg>
