<?xml version="1.0" encoding="UTF-8" standalone="no"?>
<!DOCTYPE svg PUBLIC "-//W3C//DTD SVG 1.1//EN"
 "http://www.w3.org/Graphics/SVG/1.1/DTD/svg11.dtd">
<!-- Generated by graphviz version 14.0.0 (20250921.2048)
 -->
<!-- Title: G Pages: 1 -->
<svg width="126pt" height="341pt"
 viewBox="0.00 0.00 126.00 341.00" xmlns="http://www.w3.org/2000/svg" xmlns:xlink="http://www.w3.org/1999/xlink">
<g id="graph0" class="graph" transform="scale(1 1) rotate(0) translate(4 337)">
<title>G</title>
<polygon fill="white" stroke="none" points="-4,4 -4,-337 122,-337 122,4 -4,4"/>
<!-- BaseWorker -->
<g id="node1" class="node">
<title>BaseWorker</title>
<path fill="#f8f9fb" stroke="#4a5568" stroke-width="1.1" d="M20.62,-241C20.62,-241 97.38,-241 97.38,-241 103.38,-241 109.38,-247 109.38,-253 109.38,-253 109.38,-320.5 109.38,-320.5 109.38,-326.5 103.38,-332.5 97.38,-332.5 97.38,-332.5 20.62,-332.5 20.62,-332.5 14.62,-332.5 8.62,-326.5 8.62,-320.5 8.62,-320.5 8.62,-253 8.62,-253 8.62,-247 14.62,-241 20.62,-241"/>
<text xml:space="preserve" text-anchor="middle" x="59" y="-319" font-family="Helvetica,sans-Serif" font-size="10.00">BaseWorker</text>
<polyline fill="none" stroke="#4a5568" stroke-width="1.1" points="8.62,-313.25 109.38,-313.25"/>
<text xml:space="preserve" text-anchor="start" x="16.62" y="-299.75" font-family="Helvetica,sans-Serif" font-size="10.00">+env</text>
<polyline fill="none" stroke="#4a5568" stroke-width="1.1" points="8.62,-294 109.38,-294"/>
<text xml:space="preserve" text-anchor="start" x="16.62" y="-280.5" font-family="Helvetica,sans-Serif" font-size="10.00">+expand()</text>
<text xml:space="preserve" text-anchor="start" x="16.62" y="-269.25" font-family="Helvetica,sans-Serif" font-size="10.00">+expand_and_join()</text>
<text xml:space="preserve" text-anchor="start" x="16.62" y="-258" font-family="Helvetica,sans-Serif" font-size="10.00">+start()</text>
<text xml:space="preserve" text-anchor="start" x="16.62" y="-246.75" font-family="Helvetica,sans-Serif" font-size="10.00">+stop()</text>
</g>
<!-- DagWorker -->
<g id="node2" class="node">
<title>DagWorker</title>
<path fill="#f8f9fb" stroke="#4a5568" stroke-width="1.1" d="M37.12,-143.25C37.12,-143.25 80.88,-143.25 80.88,-143.25 86.88,-143.25 92.88,-149.25 92.88,-155.25 92.88,-155.25 92.88,-181 92.88,-181 92.88,-187 86.88,-193 80.88,-193 80.88,-193 37.12,-193 37.12,-193 31.12,-193 25.12,-187 25.12,-181 25.12,-181 25.12,-155.25 25.12,-155.25 25.12,-149.25 31.12,-143.25 37.12,-143.25"/>
<text xml:space="preserve" text-anchor="middle" x="59" y="-179.5" font-family="Helvetica,sans-Serif" font-size="10.00">DagWorker</text>
<polyline fill="none" stroke="#4a5568" stroke-width="1.1" points="25.12,-173.75 92.88,-173.75"/>
<text xml:space="preserve" text-anchor="start" x="33.12" y="-160.25" font-family="Helvetica,sans-Serif" font-size="10.00">+get_work()</text>
<text xml:space="preserve" text-anchor="start" x="33.12" y="-149" font-family="Helvetica,sans-Serif" font-size="10.00">+works()</text>
</g>
<!-- BaseWorker&#45;&gt;DagWorker -->
<g id="edge1" class="edge">
<title>BaseWorker&#45;&gt;DagWorker</title>
<path fill="none" stroke="#4a5568" stroke-width="1.05" d="M59,-240.66C59,-228.67 59,-215.9 59,-204.51"/>
<polygon fill="#4a5568" stroke="#4a5568" stroke-width="1.05" points="62.5,-204.82 59,-194.82 55.5,-204.82 62.5,-204.82"/>
</g>
<!-- Sb3TrainerWorker -->
<g id="node3" class="node">
<title>Sb3TrainerWorker</title>
<path fill="#f8f9fb" stroke="#4a5568" stroke-width="1.1" d="M12,-0.5C12,-0.5 106,-0.5 106,-0.5 112,-0.5 118,-6.5 118,-12.5 118,-12.5 118,-83.25 118,-83.25 118,-89.25 112,-95.25 106,-95.25 106,-95.25 12,-95.25 12,-95.25 6,-95.25 0,-89.25 0,-83.25 0,-83.25 0,-12.5 0,-12.5 0,-6.5 6,-0.5 12,-0.5"/>
<text xml:space="preserve" text-anchor="middle" x="59" y="-81.75" font-family="Helvetica,sans-Serif" font-size="10.00">Sb3TrainerWorker</text>
<polyline fill="none" stroke="#4a5568" stroke-width="1.1" points="0,-76 118,-76"/>
<text xml:space="preserve" text-anchor="start" x="8" y="-62.5" font-family="Helvetica,sans-Serif" font-size="10.00">+start()</text>
<text xml:space="preserve" text-anchor="start" x="8" y="-51.25" font-family="Helvetica,sans-Serif" font-size="10.00">+get_work()</text>
<text xml:space="preserve" text-anchor="start" x="8" y="-40" font-family="Helvetica,sans-Serif" font-size="10.00">+trainer_DQN()</text>
<text xml:space="preserve" text-anchor="start" x="8" y="-28.75" font-family="Helvetica,sans-Serif" font-size="10.00">+trainer_PPO()</text>
<text xml:space="preserve" text-anchor="start" x="8" y="-17.5" font-family="Helvetica,sans-Serif" font-size="10.00">+trainer_PPO_manual()</text>
<text xml:space="preserve" text-anchor="start" x="8" y="-6.25" font-family="Helvetica,sans-Serif" font-size="10.00">+stop()</text>
</g>
<!-- DagWorker&#45;&gt;Sb3TrainerWorker -->
<g id="edge2" class="edge">
<title>DagWorker&#45;&gt;Sb3TrainerWorker</title>
<path fill="none" stroke="#4a5568" stroke-width="1.05" d="M59,-142.91C59,-132.46 59,-119.74 59,-107.08"/>
<polygon fill="#4a5568" stroke="#4a5568" stroke-width="1.05" points="62.5,-107.13 59,-97.13 55.5,-107.13 62.5,-107.13"/>
</g>
</g>
</svg>
