<?xml version="1.0" encoding="UTF-8" standalone="no"?>
<!DOCTYPE svg PUBLIC "-//W3C//DTD SVG 1.1//EN"
 "http://www.w3.org/Graphics/SVG/1.1/DTD/svg11.dtd">
<!-- Generated by graphviz version 14.0.2 (20251019.1705)
 -->
<!-- Title: G Pages: 1 -->
<svg width="109pt" height="285pt"
 viewBox="0.00 0.00 109.00 285.00" xmlns="http://www.w3.org/2000/svg" xmlns:xlink="http://www.w3.org/1999/xlink">
<g id="graph0" class="graph" transform="scale(1 1) rotate(0) translate(4 280.75)">
<title>G</title>
<polygon fill="white" stroke="none" points="-4,4 -4,-280.75 104.75,-280.75 104.75,4 -4,4"/>
<!-- BaseWorker -->
<g id="node1" class="node">
<title>BaseWorker</title>
<path fill="#f8f9fb" stroke="#4a5568" stroke-width="1.1" d="M12,-184.75C12,-184.75 88.75,-184.75 88.75,-184.75 94.75,-184.75 100.75,-190.75 100.75,-196.75 100.75,-196.75 100.75,-264.25 100.75,-264.25 100.75,-270.25 94.75,-276.25 88.75,-276.25 88.75,-276.25 12,-276.25 12,-276.25 6,-276.25 0,-270.25 0,-264.25 0,-264.25 0,-196.75 0,-196.75 0,-190.75 6,-184.75 12,-184.75"/>
<text xml:space="preserve" text-anchor="middle" x="50.38" y="-262.75" font-family="Helvetica,sans-Serif" font-size="10.00">BaseWorker</text>
<polyline fill="none" stroke="#4a5568" stroke-width="1.1" points="0,-257 100.75,-257"/>
<text xml:space="preserve" text-anchor="start" x="8" y="-243.5" font-family="Helvetica,sans-Serif" font-size="10.00">+env</text>
<polyline fill="none" stroke="#4a5568" stroke-width="1.1" points="0,-237.75 100.75,-237.75"/>
<text xml:space="preserve" text-anchor="start" x="8" y="-224.25" font-family="Helvetica,sans-Serif" font-size="10.00">+expand()</text>
<text xml:space="preserve" text-anchor="start" x="8" y="-213" font-family="Helvetica,sans-Serif" font-size="10.00">+expand_and_join()</text>
<text xml:space="preserve" text-anchor="start" x="8" y="-201.75" font-family="Helvetica,sans-Serif" font-size="10.00">+start()</text>
<text xml:space="preserve" text-anchor="start" x="8" y="-190.5" font-family="Helvetica,sans-Serif" font-size="10.00">+stop()</text>
</g>
<!-- DagWorker -->
<g id="node2" class="node">
<title>DagWorker</title>
<path fill="#f8f9fb" stroke="#4a5568" stroke-width="1.1" d="M28.5,-87C28.5,-87 72.25,-87 72.25,-87 78.25,-87 84.25,-93 84.25,-99 84.25,-99 84.25,-124.75 84.25,-124.75 84.25,-130.75 78.25,-136.75 72.25,-136.75 72.25,-136.75 28.5,-136.75 28.5,-136.75 22.5,-136.75 16.5,-130.75 16.5,-124.75 16.5,-124.75 16.5,-99 16.5,-99 16.5,-93 22.5,-87 28.5,-87"/>
<text xml:space="preserve" text-anchor="middle" x="50.38" y="-123.25" font-family="Helvetica,sans-Serif" font-size="10.00">DagWorker</text>
<polyline fill="none" stroke="#4a5568" stroke-width="1.1" points="16.5,-117.5 84.25,-117.5"/>
<text xml:space="preserve" text-anchor="start" x="24.5" y="-104" font-family="Helvetica,sans-Serif" font-size="10.00">+get_work()</text>
<text xml:space="preserve" text-anchor="start" x="24.5" y="-92.75" font-family="Helvetica,sans-Serif" font-size="10.00">+works()</text>
</g>
<!-- BaseWorker&#45;&gt;DagWorker -->
<g id="edge1" class="edge">
<title>BaseWorker&#45;&gt;DagWorker</title>
<path fill="none" stroke="#4a5568" stroke-width="1.05" d="M50.38,-184.41C50.38,-172.42 50.38,-159.65 50.38,-148.26"/>
<polygon fill="#4a5568" stroke="#4a5568" stroke-width="1.05" points="53.88,-148.57 50.38,-138.57 46.88,-148.57 53.88,-148.57"/>
</g>
<!-- MycodeWorker -->
<g id="node3" class="node">
<title>MycodeWorker</title>
<path fill="#f8f9fb" stroke="#4a5568" stroke-width="1.1" d="M21.75,-0.5C21.75,-0.5 79,-0.5 79,-0.5 85,-0.5 91,-6.5 91,-12.5 91,-12.5 91,-27 91,-27 91,-33 85,-39 79,-39 79,-39 21.75,-39 21.75,-39 15.75,-39 9.75,-33 9.75,-27 9.75,-27 9.75,-12.5 9.75,-12.5 9.75,-6.5 15.75,-0.5 21.75,-0.5"/>
<text xml:space="preserve" text-anchor="middle" x="50.38" y="-25.5" font-family="Helvetica,sans-Serif" font-size="10.00">MycodeWorker</text>
<polyline fill="none" stroke="#4a5568" stroke-width="1.1" points="9.75,-19.75 91,-19.75"/>
<text xml:space="preserve" text-anchor="middle" x="50.38" y="-6.25" font-family="Helvetica,sans-Serif" font-size="10.00"> </text>
</g>
<!-- DagWorker&#45;&gt;MycodeWorker -->
<g id="edge2" class="edge">
<title>DagWorker&#45;&gt;MycodeWorker</title>
<path fill="none" stroke="#4a5568" stroke-width="1.05" d="M50.38,-86.72C50.38,-75.73 50.38,-62.61 50.38,-50.97"/>
<polygon fill="#4a5568" stroke="#4a5568" stroke-width="1.05" points="53.88,-51.13 50.38,-41.13 46.88,-51.13 53.88,-51.13"/>
</g>
</g>
</svg>
