<?xml version="1.0" encoding="UTF-8" standalone="no"?>
<!DOCTYPE svg PUBLIC "-//W3C//DTD SVG 1.1//EN"
 "http://www.w3.org/Graphics/SVG/1.1/DTD/svg11.dtd">
<!-- Generated by graphviz version 13.1.1 (20250719.2154)
 -->
<!-- Title: G Pages: 1 -->
<svg width="167pt" height="263pt"
 viewBox="0.00 0.00 167.00 263.00" xmlns="http://www.w3.org/2000/svg" xmlns:xlink="http://www.w3.org/1999/xlink">
<g id="graph0" class="graph" transform="scale(1 1) rotate(0) translate(4 258.5)">
<title>G</title>
<polygon fill="white" stroke="none" points="-4,4 -4,-258.5 162.5,-258.5 162.5,4 -4,4"/>
<!-- BaseWorker -->
<g id="node1" class="node">
<title>BaseWorker</title>
<path fill="#f8f9fb" stroke="#4a5568" stroke-width="1.1" d="M40.88,-162.5C40.88,-162.5 117.62,-162.5 117.62,-162.5 123.62,-162.5 129.62,-168.5 129.62,-174.5 129.62,-174.5 129.62,-242 129.62,-242 129.62,-248 123.62,-254 117.62,-254 117.62,-254 40.88,-254 40.88,-254 34.88,-254 28.88,-248 28.88,-242 28.88,-242 28.88,-174.5 28.88,-174.5 28.88,-168.5 34.88,-162.5 40.88,-162.5"/>
<text xml:space="preserve" text-anchor="middle" x="79.25" y="-240.5" font-family="Helvetica,sans-Serif" font-size="10.00">BaseWorker</text>
<polyline fill="none" stroke="#4a5568" stroke-width="1.1" points="28.88,-234.75 129.62,-234.75"/>
<text xml:space="preserve" text-anchor="start" x="36.88" y="-221.25" font-family="Helvetica,sans-Serif" font-size="10.00">+env</text>
<polyline fill="none" stroke="#4a5568" stroke-width="1.1" points="28.88,-215.5 129.62,-215.5"/>
<text xml:space="preserve" text-anchor="start" x="36.88" y="-202" font-family="Helvetica,sans-Serif" font-size="10.00">+expand()</text>
<text xml:space="preserve" text-anchor="start" x="36.88" y="-190.75" font-family="Helvetica,sans-Serif" font-size="10.00">+expand_and_join()</text>
<text xml:space="preserve" text-anchor="start" x="36.88" y="-179.5" font-family="Helvetica,sans-Serif" font-size="10.00">+start()</text>
<text xml:space="preserve" text-anchor="start" x="36.88" y="-168.25" font-family="Helvetica,sans-Serif" font-size="10.00">+stop()</text>
</g>
<!-- Flight -->
<g id="node2" class="node">
<title>Flight</title>
<path fill="#f8f9fb" stroke="#4a5568" stroke-width="1.1" d="M12,-0.5C12,-0.5 146.5,-0.5 146.5,-0.5 152.5,-0.5 158.5,-6.5 158.5,-12.5 158.5,-12.5 158.5,-102.5 158.5,-102.5 158.5,-108.5 152.5,-114.5 146.5,-114.5 146.5,-114.5 12,-114.5 12,-114.5 6,-114.5 0,-108.5 0,-102.5 0,-102.5 0,-12.5 0,-12.5 0,-6.5 6,-0.5 12,-0.5"/>
<text xml:space="preserve" text-anchor="middle" x="79.25" y="-101" font-family="Helvetica,sans-Serif" font-size="10.00">Flight</text>
<polyline fill="none" stroke="#4a5568" stroke-width="1.1" points="0,-95.25 158.5,-95.25"/>
<text xml:space="preserve" text-anchor="start" x="8" y="-81.75" font-family="Helvetica,sans-Serif" font-size="10.00">+ivq_logs</text>
<text xml:space="preserve" text-anchor="start" x="8" y="-70.5" font-family="Helvetica,sans-Serif" font-size="10.00">+auto_prepare_output_dir</text>
<polyline fill="none" stroke="#4a5568" stroke-width="1.1" points="0,-64.75 158.5,-64.75"/>
<text xml:space="preserve" text-anchor="start" x="8" y="-51.25" font-family="Helvetica,sans-Serif" font-size="10.00">+build_distribution()</text>
<text xml:space="preserve" text-anchor="start" x="8" y="-40" font-family="Helvetica,sans-Serif" font-size="10.00">+get_data_from_hawk()</text>
<text xml:space="preserve" text-anchor="start" x="8" y="-28.75" font-family="Helvetica,sans-Serif" font-size="10.00">+extract_plane_from_file_name()</text>
<text xml:space="preserve" text-anchor="start" x="8" y="-17.5" font-family="Helvetica,sans-Serif" font-size="10.00">+get_data_from_files()</text>
<text xml:space="preserve" text-anchor="start" x="8" y="-6.25" font-family="Helvetica,sans-Serif" font-size="10.00">+get_partition_by_planes()</text>
</g>
<!-- BaseWorker&#45;&gt;Flight -->
<g id="edge1" class="edge">
<title>BaseWorker&#45;&gt;Flight</title>
<path fill="none" stroke="#4a5568" stroke-width="1.05" d="M79.25,-162.22C79.25,-150.94 79.25,-138.59 79.25,-126.48"/>
<polygon fill="#4a5568" stroke="#4a5568" stroke-width="1.05" points="82.75,-126.56 79.25,-116.56 75.75,-126.56 82.75,-126.56"/>
</g>
</g>
</svg>
