<?xml version="1.0" encoding="UTF-8" standalone="no"?>
<!DOCTYPE svg PUBLIC "-//W3C//DTD SVG 1.1//EN"
 "http://www.w3.org/Graphics/SVG/1.1/DTD/svg11.dtd">
<!-- Generated by graphviz version 14.1.1 (20251213.1925)
 -->
<!-- Title: G Pages: 1 -->
<svg width="109pt" height="210pt"
 viewBox="0.00 0.00 109.00 210.00" xmlns="http://www.w3.org/2000/svg" xmlns:xlink="http://www.w3.org/1999/xlink">
<g id="graph0" class="graph" transform="scale(1 1) rotate(0) translate(4 205.5)">
<title>G</title>
<polygon fill="white" stroke="none" points="-4,4 -4,-205.5 104.75,-205.5 104.75,4 -4,4"/>
<!-- BaseWorker -->
<g id="node1" class="node">
<title>BaseWorker</title>
<path fill="#f8f9fb" stroke="#4a5568" stroke-width="1.1" d="M12,-109.5C12,-109.5 88.75,-109.5 88.75,-109.5 94.75,-109.5 100.75,-115.5 100.75,-121.5 100.75,-121.5 100.75,-189 100.75,-189 100.75,-195 94.75,-201 88.75,-201 88.75,-201 12,-201 12,-201 6,-201 0,-195 0,-189 0,-189 0,-121.5 0,-121.5 0,-115.5 6,-109.5 12,-109.5"/>
<text xml:space="preserve" text-anchor="middle" x="50.38" y="-187.5" font-family="Helvetica,sans-Serif" font-size="10.00">BaseWorker</text>
<polyline fill="none" stroke="#4a5568" stroke-width="1.1" points="0,-181.75 100.75,-181.75"/>
<text xml:space="preserve" text-anchor="start" x="8" y="-168.25" font-family="Helvetica,sans-Serif" font-size="10.00">+env</text>
<polyline fill="none" stroke="#4a5568" stroke-width="1.1" points="0,-162.5 100.75,-162.5"/>
<text xml:space="preserve" text-anchor="start" x="8" y="-149" font-family="Helvetica,sans-Serif" font-size="10.00">+expand()</text>
<text xml:space="preserve" text-anchor="start" x="8" y="-137.75" font-family="Helvetica,sans-Serif" font-size="10.00">+expand_and_join()</text>
<text xml:space="preserve" text-anchor="start" x="8" y="-126.5" font-family="Helvetica,sans-Serif" font-size="10.00">+start()</text>
<text xml:space="preserve" text-anchor="start" x="8" y="-115.25" font-family="Helvetica,sans-Serif" font-size="10.00">+stop()</text>
</g>
<!-- PandasWorker -->
<g id="node2" class="node">
<title>PandasWorker</title>
<path fill="#f8f9fb" stroke="#4a5568" stroke-width="1.1" d="M22.5,-0.5C22.5,-0.5 78.25,-0.5 78.25,-0.5 84.25,-0.5 90.25,-6.5 90.25,-12.5 90.25,-12.5 90.25,-49.5 90.25,-49.5 90.25,-55.5 84.25,-61.5 78.25,-61.5 78.25,-61.5 22.5,-61.5 22.5,-61.5 16.5,-61.5 10.5,-55.5 10.5,-49.5 10.5,-49.5 10.5,-12.5 10.5,-12.5 10.5,-6.5 16.5,-0.5 22.5,-0.5"/>
<text xml:space="preserve" text-anchor="middle" x="50.38" y="-48" font-family="Helvetica,sans-Serif" font-size="10.00">PandasWorker</text>
<polyline fill="none" stroke="#4a5568" stroke-width="1.1" points="10.5,-42.25 90.25,-42.25"/>
<text xml:space="preserve" text-anchor="start" x="18.5" y="-28.75" font-family="Helvetica,sans-Serif" font-size="10.00">+work_pool()</text>
<text xml:space="preserve" text-anchor="start" x="18.5" y="-17.5" font-family="Helvetica,sans-Serif" font-size="10.00">+work_done()</text>
<text xml:space="preserve" text-anchor="start" x="18.5" y="-6.25" font-family="Helvetica,sans-Serif" font-size="10.00">+works()</text>
</g>
<!-- BaseWorker&#45;&gt;PandasWorker -->
<g id="edge1" class="edge">
<title>BaseWorker&#45;&gt;PandasWorker</title>
<path fill="none" stroke="#4a5568" stroke-width="1.05" d="M50.38,-109.08C50.38,-97.36 50.38,-84.81 50.38,-73.31"/>
<polygon fill="#4a5568" stroke="#4a5568" stroke-width="1.05" points="53.88,-73.37 50.38,-63.37 46.88,-73.37 53.88,-73.37"/>
</g>
</g>
</svg>
