<?xml version="1.0" encoding="UTF-8" standalone="no"?>
<!DOCTYPE svg PUBLIC "-//W3C//DTD SVG 1.1//EN"
 "http://www.w3.org/Graphics/SVG/1.1/DTD/svg11.dtd">
<!-- Generated by graphviz version 14.0.5 (20251129.0259)
 -->
<!-- Title: G Pages: 1 -->
<svg width="167pt" height="285pt"
 viewBox="0.00 0.00 167.00 285.00" xmlns="http://www.w3.org/2000/svg" xmlns:xlink="http://www.w3.org/1999/xlink">
<g id="graph0" class="graph" transform="scale(1 1) rotate(0) translate(4 281)">
<title>G</title>
<polygon fill="white" stroke="none" points="-4,4 -4,-281 162.5,-281 162.5,4 -4,4"/>
<!-- BaseWorker -->
<g id="node1" class="node">
<title>BaseWorker</title>
<path fill="#f8f9fb" stroke="#4a5568" stroke-width="1.1" d="M40.88,-185C40.88,-185 117.62,-185 117.62,-185 123.62,-185 129.62,-191 129.62,-197 129.62,-197 129.62,-264.5 129.62,-264.5 129.62,-270.5 123.62,-276.5 117.62,-276.5 117.62,-276.5 40.88,-276.5 40.88,-276.5 34.88,-276.5 28.88,-270.5 28.88,-264.5 28.88,-264.5 28.88,-197 28.88,-197 28.88,-191 34.88,-185 40.88,-185"/>
<text xml:space="preserve" text-anchor="middle" x="79.25" y="-263" font-family="Helvetica,sans-Serif" font-size="10.00">BaseWorker</text>
<polyline fill="none" stroke="#4a5568" stroke-width="1.1" points="28.88,-257.25 129.62,-257.25"/>
<text xml:space="preserve" text-anchor="start" x="36.88" y="-243.75" font-family="Helvetica,sans-Serif" font-size="10.00">+env</text>
<polyline fill="none" stroke="#4a5568" stroke-width="1.1" points="28.88,-238 129.62,-238"/>
<text xml:space="preserve" text-anchor="start" x="36.88" y="-224.5" font-family="Helvetica,sans-Serif" font-size="10.00">+expand()</text>
<text xml:space="preserve" text-anchor="start" x="36.88" y="-213.25" font-family="Helvetica,sans-Serif" font-size="10.00">+expand_and_join()</text>
<text xml:space="preserve" text-anchor="start" x="36.88" y="-202" font-family="Helvetica,sans-Serif" font-size="10.00">+start()</text>
<text xml:space="preserve" text-anchor="start" x="36.88" y="-190.75" font-family="Helvetica,sans-Serif" font-size="10.00">+stop()</text>
</g>
<!-- Flight -->
<g id="node2" class="node">
<title>Flight</title>
<path fill="#f8f9fb" stroke="#4a5568" stroke-width="1.1" d="M12,-0.5C12,-0.5 146.5,-0.5 146.5,-0.5 152.5,-0.5 158.5,-6.5 158.5,-12.5 158.5,-12.5 158.5,-125 158.5,-125 158.5,-131 152.5,-137 146.5,-137 146.5,-137 12,-137 12,-137 6,-137 0,-131 0,-125 0,-125 0,-12.5 0,-12.5 0,-6.5 6,-0.5 12,-0.5"/>
<text xml:space="preserve" text-anchor="middle" x="79.25" y="-123.5" font-family="Helvetica,sans-Serif" font-size="10.00">Flight</text>
<polyline fill="none" stroke="#4a5568" stroke-width="1.1" points="0,-117.75 158.5,-117.75"/>
<text xml:space="preserve" text-anchor="start" x="8" y="-104.25" font-family="Helvetica,sans-Serif" font-size="10.00">+ivq_logs</text>
<polyline fill="none" stroke="#4a5568" stroke-width="1.1" points="0,-98.5 158.5,-98.5"/>
<text xml:space="preserve" text-anchor="start" x="8" y="-85" font-family="Helvetica,sans-Serif" font-size="10.00">+from_toml()</text>
<text xml:space="preserve" text-anchor="start" x="8" y="-73.75" font-family="Helvetica,sans-Serif" font-size="10.00">+to_toml()</text>
<text xml:space="preserve" text-anchor="start" x="8" y="-62.5" font-family="Helvetica,sans-Serif" font-size="10.00">+as_dict()</text>
<text xml:space="preserve" text-anchor="start" x="8" y="-51.25" font-family="Helvetica,sans-Serif" font-size="10.00">+build_distribution()</text>
<text xml:space="preserve" text-anchor="start" x="8" y="-40" font-family="Helvetica,sans-Serif" font-size="10.00">+get_data_from_hawk()</text>
<text xml:space="preserve" text-anchor="start" x="8" y="-28.75" font-family="Helvetica,sans-Serif" font-size="10.00">+extract_plane_from_file_name()</text>
<text xml:space="preserve" text-anchor="start" x="8" y="-17.5" font-family="Helvetica,sans-Serif" font-size="10.00">+get_data_from_files()</text>
<text xml:space="preserve" text-anchor="start" x="8" y="-6.25" font-family="Helvetica,sans-Serif" font-size="10.00">+get_partition_by_planes()</text>
</g>
<!-- BaseWorker&#45;&gt;Flight -->
<g id="edge1" class="edge">
<title>BaseWorker&#45;&gt;Flight</title>
<path fill="none" stroke="#4a5568" stroke-width="1.05" d="M79.25,-184.76C79.25,-173.5 79.25,-161.1 79.25,-148.73"/>
<polygon fill="#4a5568" stroke="#4a5568" stroke-width="1.05" points="82.75,-149 79.25,-139 75.75,-149 82.75,-149"/>
</g>
</g>
</svg>
