<?xml version="1.0" encoding="UTF-8" standalone="no"?>
<!DOCTYPE svg PUBLIC "-//W3C//DTD SVG 1.1//EN"
 "http://www.w3.org/Graphics/SVG/1.1/DTD/svg11.dtd">
<!-- Generated by graphviz version 14.0.2 (20251019.1705)
 -->
<!-- Title: G Pages: 1 -->
<svg width="109pt" height="372pt"
 viewBox="0.00 0.00 109.00 372.00" xmlns="http://www.w3.org/2000/svg" xmlns:xlink="http://www.w3.org/1999/xlink">
<g id="graph0" class="graph" transform="scale(1 1) rotate(0) translate(4 367.5)">
<title>G</title>
<polygon fill="white" stroke="none" points="-4,4 -4,-367.5 104.75,-367.5 104.75,4 -4,4"/>
<!-- BaseWorker -->
<g id="node1" class="node">
<title>BaseWorker</title>
<path fill="#f8f9fb" stroke="#4a5568" stroke-width="1.1" d="M12,-271.5C12,-271.5 88.75,-271.5 88.75,-271.5 94.75,-271.5 100.75,-277.5 100.75,-283.5 100.75,-283.5 100.75,-351 100.75,-351 100.75,-357 94.75,-363 88.75,-363 88.75,-363 12,-363 12,-363 6,-363 0,-357 0,-351 0,-351 0,-283.5 0,-283.5 0,-277.5 6,-271.5 12,-271.5"/>
<text xml:space="preserve" text-anchor="middle" x="50.38" y="-349.5" font-family="Helvetica,sans-Serif" font-size="10.00">BaseWorker</text>
<polyline fill="none" stroke="#4a5568" stroke-width="1.1" points="0,-343.75 100.75,-343.75"/>
<text xml:space="preserve" text-anchor="start" x="8" y="-330.25" font-family="Helvetica,sans-Serif" font-size="10.00">+env</text>
<polyline fill="none" stroke="#4a5568" stroke-width="1.1" points="0,-324.5 100.75,-324.5"/>
<text xml:space="preserve" text-anchor="start" x="8" y="-311" font-family="Helvetica,sans-Serif" font-size="10.00">+expand()</text>
<text xml:space="preserve" text-anchor="start" x="8" y="-299.75" font-family="Helvetica,sans-Serif" font-size="10.00">+expand_and_join()</text>
<text xml:space="preserve" text-anchor="start" x="8" y="-288.5" font-family="Helvetica,sans-Serif" font-size="10.00">+start()</text>
<text xml:space="preserve" text-anchor="start" x="8" y="-277.25" font-family="Helvetica,sans-Serif" font-size="10.00">+stop()</text>
</g>
<!-- PandasWorker -->
<g id="node2" class="node">
<title>PandasWorker</title>
<path fill="#f8f9fb" stroke="#4a5568" stroke-width="1.1" d="M22.5,-162.5C22.5,-162.5 78.25,-162.5 78.25,-162.5 84.25,-162.5 90.25,-168.5 90.25,-174.5 90.25,-174.5 90.25,-211.5 90.25,-211.5 90.25,-217.5 84.25,-223.5 78.25,-223.5 78.25,-223.5 22.5,-223.5 22.5,-223.5 16.5,-223.5 10.5,-217.5 10.5,-211.5 10.5,-211.5 10.5,-174.5 10.5,-174.5 10.5,-168.5 16.5,-162.5 22.5,-162.5"/>
<text xml:space="preserve" text-anchor="middle" x="50.38" y="-210" font-family="Helvetica,sans-Serif" font-size="10.00">PandasWorker</text>
<polyline fill="none" stroke="#4a5568" stroke-width="1.1" points="10.5,-204.25 90.25,-204.25"/>
<text xml:space="preserve" text-anchor="start" x="18.5" y="-190.75" font-family="Helvetica,sans-Serif" font-size="10.00">+work_pool()</text>
<text xml:space="preserve" text-anchor="start" x="18.5" y="-179.5" font-family="Helvetica,sans-Serif" font-size="10.00">+work_done()</text>
<text xml:space="preserve" text-anchor="start" x="18.5" y="-168.25" font-family="Helvetica,sans-Serif" font-size="10.00">+works()</text>
</g>
<!-- BaseWorker&#45;&gt;PandasWorker -->
<g id="edge1" class="edge">
<title>BaseWorker&#45;&gt;PandasWorker</title>
<path fill="none" stroke="#4a5568" stroke-width="1.05" d="M50.38,-271.08C50.38,-259.36 50.38,-246.81 50.38,-235.31"/>
<polygon fill="#4a5568" stroke="#4a5568" stroke-width="1.05" points="53.88,-235.37 50.38,-225.37 46.88,-235.37 53.88,-235.37"/>
</g>
<!-- FlightWorker -->
<g id="node3" class="node">
<title>FlightWorker</title>
<path fill="#f8f9fb" stroke="#4a5568" stroke-width="1.1" d="M13.12,-0.5C13.12,-0.5 87.62,-0.5 87.62,-0.5 93.62,-0.5 99.62,-6.5 99.62,-12.5 99.62,-12.5 99.62,-102.5 99.62,-102.5 99.62,-108.5 93.62,-114.5 87.62,-114.5 87.62,-114.5 13.13,-114.5 13.13,-114.5 7.12,-114.5 1.12,-108.5 1.12,-102.5 1.12,-102.5 1.12,-12.5 1.12,-12.5 1.12,-6.5 7.12,-0.5 13.12,-0.5"/>
<text xml:space="preserve" text-anchor="middle" x="50.38" y="-101" font-family="Helvetica,sans-Serif" font-size="10.00">FlightWorker</text>
<polyline fill="none" stroke="#4a5568" stroke-width="1.1" points="1.12,-95.25 99.62,-95.25"/>
<text xml:space="preserve" text-anchor="start" x="9.12" y="-81.75" font-family="Helvetica,sans-Serif" font-size="10.00">+pool_vars</text>
<polyline fill="none" stroke="#4a5568" stroke-width="1.1" points="1.12,-76 99.62,-76"/>
<text xml:space="preserve" text-anchor="start" x="9.12" y="-62.5" font-family="Helvetica,sans-Serif" font-size="10.00">+preprocess_df()</text>
<text xml:space="preserve" text-anchor="start" x="9.12" y="-51.25" font-family="Helvetica,sans-Serif" font-size="10.00">+calculate_speed()</text>
<text xml:space="preserve" text-anchor="start" x="9.12" y="-40" font-family="Helvetica,sans-Serif" font-size="10.00">+work_pool()</text>
<text xml:space="preserve" text-anchor="start" x="9.12" y="-28.75" font-family="Helvetica,sans-Serif" font-size="10.00">+work_done()</text>
<text xml:space="preserve" text-anchor="start" x="9.12" y="-17.5" font-family="Helvetica,sans-Serif" font-size="10.00">+start()</text>
<text xml:space="preserve" text-anchor="start" x="9.12" y="-6.25" font-family="Helvetica,sans-Serif" font-size="10.00">+stop()</text>
</g>
<!-- PandasWorker&#45;&gt;FlightWorker -->
<g id="edge2" class="edge">
<title>PandasWorker&#45;&gt;FlightWorker</title>
<path fill="none" stroke="#4a5568" stroke-width="1.05" d="M50.38,-162.04C50.38,-151.39 50.38,-138.92 50.38,-126.39"/>
<polygon fill="#4a5568" stroke="#4a5568" stroke-width="1.05" points="53.88,-126.51 50.38,-116.51 46.88,-126.51 53.88,-126.51"/>
</g>
</g>
</svg>
