<?xml version="1.0" encoding="UTF-8" standalone="no"?>
<!DOCTYPE svg PUBLIC "-//W3C//DTD SVG 1.1//EN"
 "http://www.w3.org/Graphics/SVG/1.1/DTD/svg11.dtd">
<!-- Generated by graphviz version 14.0.0 (20250921.2048)
 -->
<!-- Title: G Pages: 1 -->
<svg width="138pt" height="308pt"
 viewBox="0.00 0.00 138.00 308.00" xmlns="http://www.w3.org/2000/svg" xmlns:xlink="http://www.w3.org/1999/xlink">
<g id="graph0" class="graph" transform="scale(1 1) rotate(0) translate(4 303.5)">
<title>G</title>
<polygon fill="white" stroke="none" points="-4,4 -4,-303.5 134,-303.5 134,4 -4,4"/>
<!-- BaseWorker -->
<g id="node1" class="node">
<title>BaseWorker</title>
<path fill="#f8f9fb" stroke="#4a5568" stroke-width="1.1" d="M26.62,-207.5C26.62,-207.5 103.38,-207.5 103.38,-207.5 109.38,-207.5 115.38,-213.5 115.38,-219.5 115.38,-219.5 115.38,-287 115.38,-287 115.38,-293 109.38,-299 103.38,-299 103.38,-299 26.62,-299 26.62,-299 20.62,-299 14.62,-293 14.62,-287 14.62,-287 14.62,-219.5 14.62,-219.5 14.62,-213.5 20.62,-207.5 26.62,-207.5"/>
<text xml:space="preserve" text-anchor="middle" x="65" y="-285.5" font-family="Helvetica,sans-Serif" font-size="10.00">BaseWorker</text>
<polyline fill="none" stroke="#4a5568" stroke-width="1.1" points="14.62,-279.75 115.38,-279.75"/>
<text xml:space="preserve" text-anchor="start" x="22.62" y="-266.25" font-family="Helvetica,sans-Serif" font-size="10.00">+env</text>
<polyline fill="none" stroke="#4a5568" stroke-width="1.1" points="14.62,-260.5 115.38,-260.5"/>
<text xml:space="preserve" text-anchor="start" x="22.62" y="-247" font-family="Helvetica,sans-Serif" font-size="10.00">+expand()</text>
<text xml:space="preserve" text-anchor="start" x="22.62" y="-235.75" font-family="Helvetica,sans-Serif" font-size="10.00">+expand_and_join()</text>
<text xml:space="preserve" text-anchor="start" x="22.62" y="-224.5" font-family="Helvetica,sans-Serif" font-size="10.00">+start()</text>
<text xml:space="preserve" text-anchor="start" x="22.62" y="-213.25" font-family="Helvetica,sans-Serif" font-size="10.00">+stop()</text>
</g>
<!-- FlightTrajectory -->
<g id="node2" class="node">
<title>FlightTrajectory</title>
<path fill="#f8f9fb" stroke="#4a5568" stroke-width="1.1" d="M12,-0.5C12,-0.5 118,-0.5 118,-0.5 124,-0.5 130,-6.5 130,-12.5 130,-12.5 130,-147.5 130,-147.5 130,-153.5 124,-159.5 118,-159.5 118,-159.5 12,-159.5 12,-159.5 6,-159.5 0,-153.5 0,-147.5 0,-147.5 0,-12.5 0,-12.5 0,-6.5 6,-0.5 12,-0.5"/>
<text xml:space="preserve" text-anchor="middle" x="65" y="-146" font-family="Helvetica,sans-Serif" font-size="10.00">FlightTrajectory</text>
<polyline fill="none" stroke="#4a5568" stroke-width="1.1" points="0,-140.25 130,-140.25"/>
<text xml:space="preserve" text-anchor="start" x="8" y="-126.75" font-family="Helvetica,sans-Serif" font-size="10.00">+args_loader</text>
<text xml:space="preserve" text-anchor="start" x="8" y="-115.5" font-family="Helvetica,sans-Serif" font-size="10.00">+args_merger</text>
<text xml:space="preserve" text-anchor="start" x="8" y="-104.25" font-family="Helvetica,sans-Serif" font-size="10.00">+args_dumper</text>
<text xml:space="preserve" text-anchor="start" x="8" y="-93" font-family="Helvetica,sans-Serif" font-size="10.00">+args_ensure_defaults</text>
<text xml:space="preserve" text-anchor="start" x="8" y="-81.75" font-family="Helvetica,sans-Serif" font-size="10.00">+managed_pc_path_fields</text>
<text xml:space="preserve" text-anchor="start" x="8" y="-70.5" font-family="Helvetica,sans-Serif" font-size="10.00">+ivq_logs</text>
<polyline fill="none" stroke="#4a5568" stroke-width="1.1" points="0,-64.75 130,-64.75"/>
<text xml:space="preserve" text-anchor="start" x="8" y="-51.25" font-family="Helvetica,sans-Serif" font-size="10.00">+from_toml()</text>
<text xml:space="preserve" text-anchor="start" x="8" y="-40" font-family="Helvetica,sans-Serif" font-size="10.00">+to_toml()</text>
<text xml:space="preserve" text-anchor="start" x="8" y="-28.75" font-family="Helvetica,sans-Serif" font-size="10.00">+as_dict()</text>
<text xml:space="preserve" text-anchor="start" x="8" y="-17.5" font-family="Helvetica,sans-Serif" font-size="10.00">+haversine()</text>
<text xml:space="preserve" text-anchor="start" x="8" y="-6.25" font-family="Helvetica,sans-Serif" font-size="10.00">+build_distribution()</text>
</g>
<!-- BaseWorker&#45;&gt;FlightTrajectory -->
<g id="edge1" class="edge">
<title>BaseWorker&#45;&gt;FlightTrajectory</title>
<path fill="none" stroke="#4a5568" stroke-width="1.05" d="M65,-207.26C65,-196.1 65,-183.75 65,-171.27"/>
<polygon fill="#4a5568" stroke="#4a5568" stroke-width="1.05" points="68.5,-171.39 65,-161.39 61.5,-171.39 68.5,-171.39"/>
</g>
</g>
</svg>
