<?xml version="1.0" encoding="UTF-8" standalone="no"?>
<!DOCTYPE svg PUBLIC "-//W3C//DTD SVG 1.1//EN"
 "http://www.w3.org/Graphics/SVG/1.1/DTD/svg11.dtd">
<!-- Generated by graphviz version 14.0.2 (20251019.1705)
 -->
<!-- Title: G Pages: 1 -->
<svg width="109pt" height="198pt"
 viewBox="0.00 0.00 109.00 198.00" xmlns="http://www.w3.org/2000/svg" xmlns:xlink="http://www.w3.org/1999/xlink">
<g id="graph0" class="graph" transform="scale(1 1) rotate(0) translate(4 194.25)">
<title>G</title>
<polygon fill="white" stroke="none" points="-4,4 -4,-194.25 104.75,-194.25 104.75,4 -4,4"/>
<!-- BaseWorker -->
<g id="node1" class="node">
<title>BaseWorker</title>
<path fill="#f8f9fb" stroke="#4a5568" stroke-width="1.1" d="M12,-98.25C12,-98.25 88.75,-98.25 88.75,-98.25 94.75,-98.25 100.75,-104.25 100.75,-110.25 100.75,-110.25 100.75,-177.75 100.75,-177.75 100.75,-183.75 94.75,-189.75 88.75,-189.75 88.75,-189.75 12,-189.75 12,-189.75 6,-189.75 0,-183.75 0,-177.75 0,-177.75 0,-110.25 0,-110.25 0,-104.25 6,-98.25 12,-98.25"/>
<text xml:space="preserve" text-anchor="middle" x="50.38" y="-176.25" font-family="Helvetica,sans-Serif" font-size="10.00">BaseWorker</text>
<polyline fill="none" stroke="#4a5568" stroke-width="1.1" points="0,-170.5 100.75,-170.5"/>
<text xml:space="preserve" text-anchor="start" x="8" y="-157" font-family="Helvetica,sans-Serif" font-size="10.00">+env</text>
<polyline fill="none" stroke="#4a5568" stroke-width="1.1" points="0,-151.25 100.75,-151.25"/>
<text xml:space="preserve" text-anchor="start" x="8" y="-137.75" font-family="Helvetica,sans-Serif" font-size="10.00">+expand()</text>
<text xml:space="preserve" text-anchor="start" x="8" y="-126.5" font-family="Helvetica,sans-Serif" font-size="10.00">+expand_and_join()</text>
<text xml:space="preserve" text-anchor="start" x="8" y="-115.25" font-family="Helvetica,sans-Serif" font-size="10.00">+start()</text>
<text xml:space="preserve" text-anchor="start" x="8" y="-104" font-family="Helvetica,sans-Serif" font-size="10.00">+stop()</text>
</g>
<!-- DagWorker -->
<g id="node2" class="node">
<title>DagWorker</title>
<path fill="#f8f9fb" stroke="#4a5568" stroke-width="1.1" d="M28.5,-0.5C28.5,-0.5 72.25,-0.5 72.25,-0.5 78.25,-0.5 84.25,-6.5 84.25,-12.5 84.25,-12.5 84.25,-38.25 84.25,-38.25 84.25,-44.25 78.25,-50.25 72.25,-50.25 72.25,-50.25 28.5,-50.25 28.5,-50.25 22.5,-50.25 16.5,-44.25 16.5,-38.25 16.5,-38.25 16.5,-12.5 16.5,-12.5 16.5,-6.5 22.5,-0.5 28.5,-0.5"/>
<text xml:space="preserve" text-anchor="middle" x="50.38" y="-36.75" font-family="Helvetica,sans-Serif" font-size="10.00">DagWorker</text>
<polyline fill="none" stroke="#4a5568" stroke-width="1.1" points="16.5,-31 84.25,-31"/>
<text xml:space="preserve" text-anchor="start" x="24.5" y="-17.5" font-family="Helvetica,sans-Serif" font-size="10.00">+get_work()</text>
<text xml:space="preserve" text-anchor="start" x="24.5" y="-6.25" font-family="Helvetica,sans-Serif" font-size="10.00">+works()</text>
</g>
<!-- BaseWorker&#45;&gt;DagWorker -->
<g id="edge1" class="edge">
<title>BaseWorker&#45;&gt;DagWorker</title>
<path fill="none" stroke="#4a5568" stroke-width="1.05" d="M50.38,-97.91C50.38,-85.92 50.38,-73.15 50.38,-61.76"/>
<polygon fill="#4a5568" stroke="#4a5568" stroke-width="1.05" points="53.88,-62.07 50.38,-52.07 46.88,-62.07 53.88,-62.07"/>
</g>
</g>
</svg>
