<?xml version="1.0" encoding="UTF-8" standalone="no"?>
<!DOCTYPE svg PUBLIC "-//W3C//DTD SVG 1.1//EN"
 "http://www.w3.org/Graphics/SVG/1.1/DTD/svg11.dtd">
<!-- Generated by graphviz version 14.0.0 (20250921.2048)
 -->
<!-- Title: G Pages: 1 -->
<svg width="122pt" height="372pt"
 viewBox="0.00 0.00 122.00 372.00" xmlns="http://www.w3.org/2000/svg" xmlns:xlink="http://www.w3.org/1999/xlink">
<g id="graph0" class="graph" transform="scale(1 1) rotate(0) translate(4 367.5)">
<title>G</title>
<polygon fill="white" stroke="none" points="-4,4 -4,-367.5 118.25,-367.5 118.25,4 -4,4"/>
<!-- BaseWorker -->
<g id="node1" class="node">
<title>BaseWorker</title>
<path fill="#f8f9fb" stroke="#4a5568" stroke-width="1.1" d="M18.75,-271.5C18.75,-271.5 95.5,-271.5 95.5,-271.5 101.5,-271.5 107.5,-277.5 107.5,-283.5 107.5,-283.5 107.5,-351 107.5,-351 107.5,-357 101.5,-363 95.5,-363 95.5,-363 18.75,-363 18.75,-363 12.75,-363 6.75,-357 6.75,-351 6.75,-351 6.75,-283.5 6.75,-283.5 6.75,-277.5 12.75,-271.5 18.75,-271.5"/>
<text xml:space="preserve" text-anchor="middle" x="57.12" y="-349.5" font-family="Helvetica,sans-Serif" font-size="10.00">BaseWorker</text>
<polyline fill="none" stroke="#4a5568" stroke-width="1.1" points="6.75,-343.75 107.5,-343.75"/>
<text xml:space="preserve" text-anchor="start" x="14.75" y="-330.25" font-family="Helvetica,sans-Serif" font-size="10.00">+env</text>
<polyline fill="none" stroke="#4a5568" stroke-width="1.1" points="6.75,-324.5 107.5,-324.5"/>
<text xml:space="preserve" text-anchor="start" x="14.75" y="-311" font-family="Helvetica,sans-Serif" font-size="10.00">+expand()</text>
<text xml:space="preserve" text-anchor="start" x="14.75" y="-299.75" font-family="Helvetica,sans-Serif" font-size="10.00">+expand_and_join()</text>
<text xml:space="preserve" text-anchor="start" x="14.75" y="-288.5" font-family="Helvetica,sans-Serif" font-size="10.00">+start()</text>
<text xml:space="preserve" text-anchor="start" x="14.75" y="-277.25" font-family="Helvetica,sans-Serif" font-size="10.00">+stop()</text>
</g>
<!-- PolarsWorker -->
<g id="node2" class="node">
<title>PolarsWorker</title>
<path fill="#f8f9fb" stroke="#4a5568" stroke-width="1.1" d="M31.5,-162.5C31.5,-162.5 82.75,-162.5 82.75,-162.5 88.75,-162.5 94.75,-168.5 94.75,-174.5 94.75,-174.5 94.75,-211.5 94.75,-211.5 94.75,-217.5 88.75,-223.5 82.75,-223.5 82.75,-223.5 31.5,-223.5 31.5,-223.5 25.5,-223.5 19.5,-217.5 19.5,-211.5 19.5,-211.5 19.5,-174.5 19.5,-174.5 19.5,-168.5 25.5,-162.5 31.5,-162.5"/>
<text xml:space="preserve" text-anchor="middle" x="57.12" y="-210" font-family="Helvetica,sans-Serif" font-size="10.00">PolarsWorker</text>
<polyline fill="none" stroke="#4a5568" stroke-width="1.1" points="19.5,-204.25 94.75,-204.25"/>
<text xml:space="preserve" text-anchor="start" x="27.5" y="-190.75" font-family="Helvetica,sans-Serif" font-size="10.00">+work_pool()</text>
<text xml:space="preserve" text-anchor="start" x="27.5" y="-179.5" font-family="Helvetica,sans-Serif" font-size="10.00">+work_done()</text>
<text xml:space="preserve" text-anchor="start" x="27.5" y="-168.25" font-family="Helvetica,sans-Serif" font-size="10.00">+works()</text>
</g>
<!-- BaseWorker&#45;&gt;PolarsWorker -->
<g id="edge1" class="edge">
<title>BaseWorker&#45;&gt;PolarsWorker</title>
<path fill="none" stroke="#4a5568" stroke-width="1.05" d="M57.12,-271.08C57.12,-259.36 57.12,-246.81 57.12,-235.31"/>
<polygon fill="#4a5568" stroke="#4a5568" stroke-width="1.05" points="60.63,-235.37 57.13,-225.37 53.63,-235.37 60.63,-235.37"/>
</g>
<!-- FlightTrajectoryWorker -->
<g id="node3" class="node">
<title>FlightTrajectoryWorker</title>
<path fill="#f8f9fb" stroke="#4a5568" stroke-width="1.1" d="M12,-0.5C12,-0.5 102.25,-0.5 102.25,-0.5 108.25,-0.5 114.25,-6.5 114.25,-12.5 114.25,-12.5 114.25,-102.5 114.25,-102.5 114.25,-108.5 108.25,-114.5 102.25,-114.5 102.25,-114.5 12,-114.5 12,-114.5 6,-114.5 0,-108.5 0,-102.5 0,-102.5 0,-12.5 0,-12.5 0,-6.5 6,-0.5 12,-0.5"/>
<text xml:space="preserve" text-anchor="middle" x="57.12" y="-101" font-family="Helvetica,sans-Serif" font-size="10.00">FlightTrajectoryWorker</text>
<polyline fill="none" stroke="#4a5568" stroke-width="1.1" points="0,-95.25 114.25,-95.25"/>
<text xml:space="preserve" text-anchor="start" x="8" y="-81.75" font-family="Helvetica,sans-Serif" font-size="10.00">+pool_vars</text>
<polyline fill="none" stroke="#4a5568" stroke-width="1.1" points="0,-76 114.25,-76"/>
<text xml:space="preserve" text-anchor="start" x="8" y="-62.5" font-family="Helvetica,sans-Serif" font-size="10.00">+start()</text>
<text xml:space="preserve" text-anchor="start" x="8" y="-51.25" font-family="Helvetica,sans-Serif" font-size="10.00">+work_init()</text>
<text xml:space="preserve" text-anchor="start" x="8" y="-40" font-family="Helvetica,sans-Serif" font-size="10.00">+pool_init()</text>
<text xml:space="preserve" text-anchor="start" x="8" y="-28.75" font-family="Helvetica,sans-Serif" font-size="10.00">+work_pool()</text>
<text xml:space="preserve" text-anchor="start" x="8" y="-17.5" font-family="Helvetica,sans-Serif" font-size="10.00">+work_done()</text>
<text xml:space="preserve" text-anchor="start" x="8" y="-6.25" font-family="Helvetica,sans-Serif" font-size="10.00">+stop()</text>
</g>
<!-- PolarsWorker&#45;&gt;FlightTrajectoryWorker -->
<g id="edge2" class="edge">
<title>PolarsWorker&#45;&gt;FlightTrajectoryWorker</title>
<path fill="none" stroke="#4a5568" stroke-width="1.05" d="M57.12,-162.04C57.12,-151.39 57.12,-138.92 57.12,-126.39"/>
<polygon fill="#4a5568" stroke="#4a5568" stroke-width="1.05" points="60.63,-126.51 57.13,-116.51 53.63,-126.51 60.63,-126.51"/>
</g>
</g>
</svg>
