<?xml version="1.0" encoding="UTF-8" standalone="no"?>
<!DOCTYPE svg PUBLIC "-//W3C//DTD SVG 1.1//EN"
 "http://www.w3.org/Graphics/SVG/1.1/DTD/svg11.dtd">
<!-- Generated by graphviz version 14.0.0 (20250921.2048)
 -->
<!-- Title: G Pages: 1 -->
<svg width="113pt" height="383pt"
 viewBox="0.00 0.00 113.00 383.00" xmlns="http://www.w3.org/2000/svg" xmlns:xlink="http://www.w3.org/1999/xlink">
<g id="graph0" class="graph" transform="scale(1 1) rotate(0) translate(4 378.75)">
<title>G</title>
<polygon fill="white" stroke="none" points="-4,4 -4,-378.75 109.25,-378.75 109.25,4 -4,4"/>
<!-- BaseWorker -->
<g id="node1" class="node">
<title>BaseWorker</title>
<path fill="#f8f9fb" stroke="#4a5568" stroke-width="1.1" d="M14.25,-282.75C14.25,-282.75 91,-282.75 91,-282.75 97,-282.75 103,-288.75 103,-294.75 103,-294.75 103,-362.25 103,-362.25 103,-368.25 97,-374.25 91,-374.25 91,-374.25 14.25,-374.25 14.25,-374.25 8.25,-374.25 2.25,-368.25 2.25,-362.25 2.25,-362.25 2.25,-294.75 2.25,-294.75 2.25,-288.75 8.25,-282.75 14.25,-282.75"/>
<text xml:space="preserve" text-anchor="middle" x="52.62" y="-360.75" font-family="Helvetica,sans-Serif" font-size="10.00">BaseWorker</text>
<polyline fill="none" stroke="#4a5568" stroke-width="1.1" points="2.25,-355 103,-355"/>
<text xml:space="preserve" text-anchor="start" x="10.25" y="-341.5" font-family="Helvetica,sans-Serif" font-size="10.00">+env</text>
<polyline fill="none" stroke="#4a5568" stroke-width="1.1" points="2.25,-335.75 103,-335.75"/>
<text xml:space="preserve" text-anchor="start" x="10.25" y="-322.25" font-family="Helvetica,sans-Serif" font-size="10.00">+expand()</text>
<text xml:space="preserve" text-anchor="start" x="10.25" y="-311" font-family="Helvetica,sans-Serif" font-size="10.00">+expand_and_join()</text>
<text xml:space="preserve" text-anchor="start" x="10.25" y="-299.75" font-family="Helvetica,sans-Serif" font-size="10.00">+start()</text>
<text xml:space="preserve" text-anchor="start" x="10.25" y="-288.5" font-family="Helvetica,sans-Serif" font-size="10.00">+stop()</text>
</g>
<!-- PolarsWorker -->
<g id="node2" class="node">
<title>PolarsWorker</title>
<path fill="#f8f9fb" stroke="#4a5568" stroke-width="1.1" d="M27,-173.75C27,-173.75 78.25,-173.75 78.25,-173.75 84.25,-173.75 90.25,-179.75 90.25,-185.75 90.25,-185.75 90.25,-222.75 90.25,-222.75 90.25,-228.75 84.25,-234.75 78.25,-234.75 78.25,-234.75 27,-234.75 27,-234.75 21,-234.75 15,-228.75 15,-222.75 15,-222.75 15,-185.75 15,-185.75 15,-179.75 21,-173.75 27,-173.75"/>
<text xml:space="preserve" text-anchor="middle" x="52.62" y="-221.25" font-family="Helvetica,sans-Serif" font-size="10.00">PolarsWorker</text>
<polyline fill="none" stroke="#4a5568" stroke-width="1.1" points="15,-215.5 90.25,-215.5"/>
<text xml:space="preserve" text-anchor="start" x="23" y="-202" font-family="Helvetica,sans-Serif" font-size="10.00">+work_pool()</text>
<text xml:space="preserve" text-anchor="start" x="23" y="-190.75" font-family="Helvetica,sans-Serif" font-size="10.00">+work_done()</text>
<text xml:space="preserve" text-anchor="start" x="23" y="-179.5" font-family="Helvetica,sans-Serif" font-size="10.00">+works()</text>
</g>
<!-- BaseWorker&#45;&gt;PolarsWorker -->
<g id="edge1" class="edge">
<title>BaseWorker&#45;&gt;PolarsWorker</title>
<path fill="none" stroke="#4a5568" stroke-width="1.05" d="M52.62,-282.33C52.62,-270.61 52.62,-258.06 52.62,-246.56"/>
<polygon fill="#4a5568" stroke="#4a5568" stroke-width="1.05" points="56.13,-246.62 52.63,-236.62 49.13,-246.62 56.13,-246.62"/>
</g>
<!-- SatTrajectoryWorker -->
<g id="node3" class="node">
<title>SatTrajectoryWorker</title>
<path fill="#f8f9fb" stroke="#4a5568" stroke-width="1.1" d="M12,-0.5C12,-0.5 93.25,-0.5 93.25,-0.5 99.25,-0.5 105.25,-6.5 105.25,-12.5 105.25,-12.5 105.25,-113.75 105.25,-113.75 105.25,-119.75 99.25,-125.75 93.25,-125.75 93.25,-125.75 12,-125.75 12,-125.75 6,-125.75 0,-119.75 0,-113.75 0,-113.75 0,-12.5 0,-12.5 0,-6.5 6,-0.5 12,-0.5"/>
<text xml:space="preserve" text-anchor="middle" x="52.62" y="-112.25" font-family="Helvetica,sans-Serif" font-size="10.00">SatTrajectoryWorker</text>
<polyline fill="none" stroke="#4a5568" stroke-width="1.1" points="0,-106.5 105.25,-106.5"/>
<text xml:space="preserve" text-anchor="start" x="8" y="-93" font-family="Helvetica,sans-Serif" font-size="10.00">+pool_vars</text>
<text xml:space="preserve" text-anchor="start" x="8" y="-81.75" font-family="Helvetica,sans-Serif" font-size="10.00">+data_out</text>
<polyline fill="none" stroke="#4a5568" stroke-width="1.1" points="0,-76 105.25,-76"/>
<text xml:space="preserve" text-anchor="start" x="8" y="-62.5" font-family="Helvetica,sans-Serif" font-size="10.00">+start()</text>
<text xml:space="preserve" text-anchor="start" x="8" y="-51.25" font-family="Helvetica,sans-Serif" font-size="10.00">+work_init()</text>
<text xml:space="preserve" text-anchor="start" x="8" y="-40" font-family="Helvetica,sans-Serif" font-size="10.00">+pool_init()</text>
<text xml:space="preserve" text-anchor="start" x="8" y="-28.75" font-family="Helvetica,sans-Serif" font-size="10.00">+work_pool()</text>
<text xml:space="preserve" text-anchor="start" x="8" y="-17.5" font-family="Helvetica,sans-Serif" font-size="10.00">+work_done()</text>
<text xml:space="preserve" text-anchor="start" x="8" y="-6.25" font-family="Helvetica,sans-Serif" font-size="10.00">+stop()</text>
</g>
<!-- PolarsWorker&#45;&gt;SatTrajectoryWorker -->
<g id="edge2" class="edge">
<title>PolarsWorker&#45;&gt;SatTrajectoryWorker</title>
<path fill="none" stroke="#4a5568" stroke-width="1.05" d="M52.62,-173.4C52.62,-162.83 52.62,-150.41 52.62,-137.81"/>
<polygon fill="#4a5568" stroke="#4a5568" stroke-width="1.05" points="56.13,-137.83 52.63,-127.83 49.13,-137.83 56.13,-137.83"/>
</g>
</g>
</svg>
