<?xml version="1.0" encoding="UTF-8" standalone="no"?>
<!DOCTYPE svg PUBLIC "-//W3C//DTD SVG 1.1//EN"
 "http://www.w3.org/Graphics/SVG/1.1/DTD/svg11.dtd">
<!-- Generated by graphviz version 14.0.0 (20250921.2048)
 -->
<!-- Title: G Pages: 1 -->
<svg width="109pt" height="218pt"
 viewBox="0.00 0.00 109.00 218.00" xmlns="http://www.w3.org/2000/svg" xmlns:xlink="http://www.w3.org/1999/xlink">
<g id="graph0" class="graph" transform="scale(1 1) rotate(0) translate(4 213.5)">
<title>G</title>
<polygon fill="white" stroke="none" points="-4,4 -4,-213.5 104.75,-213.5 104.75,4 -4,4"/>
<!-- BaseWorker -->
<g id="node1" class="node">
<title>BaseWorker</title>
<path fill="#f8f9fb" stroke="#4a5568" stroke-width="1.1" d="M12,-117.5C12,-117.5 88.75,-117.5 88.75,-117.5 94.75,-117.5 100.75,-123.5 100.75,-129.5 100.75,-129.5 100.75,-197 100.75,-197 100.75,-203 94.75,-209 88.75,-209 88.75,-209 12,-209 12,-209 6,-209 0,-203 0,-197 0,-197 0,-129.5 0,-129.5 0,-123.5 6,-117.5 12,-117.5"/>
<text xml:space="preserve" text-anchor="middle" x="50.38" y="-195.5" font-family="Helvetica,sans-Serif" font-size="10.00">BaseWorker</text>
<polyline fill="none" stroke="#4a5568" stroke-width="1.1" points="0,-189.75 100.75,-189.75"/>
<text xml:space="preserve" text-anchor="start" x="8" y="-176.25" font-family="Helvetica,sans-Serif" font-size="10.00">+env</text>
<polyline fill="none" stroke="#4a5568" stroke-width="1.1" points="0,-170.5 100.75,-170.5"/>
<text xml:space="preserve" text-anchor="start" x="8" y="-157" font-family="Helvetica,sans-Serif" font-size="10.00">+expand()</text>
<text xml:space="preserve" text-anchor="start" x="8" y="-145.75" font-family="Helvetica,sans-Serif" font-size="10.00">+expand_and_join()</text>
<text xml:space="preserve" text-anchor="start" x="8" y="-134.5" font-family="Helvetica,sans-Serif" font-size="10.00">+start()</text>
<text xml:space="preserve" text-anchor="start" x="8" y="-123.25" font-family="Helvetica,sans-Serif" font-size="10.00">+stop()</text>
</g>
<!-- FlightArgs -->
<g id="node2" class="node">
<title>FlightArgs</title>
<path fill="#f8f9fb" stroke="#4a5568" stroke-width="1.1" d="M12.75,-0.5C12.75,-0.5 88,-0.5 88,-0.5 94,-0.5 100,-6.5 100,-12.5 100,-12.5 100,-57.5 100,-57.5 100,-63.5 94,-69.5 88,-69.5 88,-69.5 12.75,-69.5 12.75,-69.5 6.75,-69.5 0.75,-63.5 0.75,-57.5 0.75,-57.5 0.75,-12.5 0.75,-12.5 0.75,-6.5 6.75,-0.5 12.75,-0.5"/>
<text xml:space="preserve" text-anchor="middle" x="50.38" y="-56" font-family="Helvetica,sans-Serif" font-size="10.00">FlightArgs</text>
<polyline fill="none" stroke="#4a5568" stroke-width="1.1" points="0.75,-50.25 100,-50.25"/>
<text xml:space="preserve" text-anchor="start" x="8.75" y="-36.75" font-family="Helvetica,sans-Serif" font-size="10.00">+data_uri</text>
<text xml:space="preserve" text-anchor="start" x="8.75" y="-25.5" font-family="Helvetica,sans-Serif" font-size="10.00">+nfile</text>
<polyline fill="none" stroke="#4a5568" stroke-width="1.1" points="0.75,-19.75 100,-19.75"/>
<text xml:space="preserve" text-anchor="start" x="8.75" y="-6.25" font-family="Helvetica,sans-Serif" font-size="10.00">+to_toml_payload()</text>
</g>
<!-- BaseWorker&#45;&gt;FlightArgs -->
<g id="edge1" class="edge">
<title>BaseWorker&#45;&gt;FlightArgs</title>
<path fill="none" stroke="#4a5568" stroke-width="1.05" d="M50.38,-117.03C50.38,-105.35 50.38,-92.79 50.38,-81.12"/>
<polygon fill="#4a5568" stroke="#4a5568" stroke-width="1.05" points="53.88,-81.4 50.38,-71.4 46.88,-81.4 53.88,-81.4"/>
</g>
</g>
</svg>
