<?xml version="1.0" encoding="UTF-8" standalone="no"?>
<!DOCTYPE svg PUBLIC "-//W3C//DTD SVG 1.1//EN"
 "http://www.w3.org/Graphics/SVG/1.1/DTD/svg11.dtd">
<!-- Generated by graphviz version 14.0.2 (20251019.1705)
 -->
<!-- Title: G Pages: 1 -->
<svg width="109pt" height="187pt"
 viewBox="0.00 0.00 109.00 187.00" xmlns="http://www.w3.org/2000/svg" xmlns:xlink="http://www.w3.org/1999/xlink">
<g id="graph0" class="graph" transform="scale(1 1) rotate(0) translate(4 183)">
<title>G</title>
<polygon fill="white" stroke="none" points="-4,4 -4,-183 104.75,-183 104.75,4 -4,4"/>
<!-- BaseWorker -->
<g id="node1" class="node">
<title>BaseWorker</title>
<path fill="#f8f9fb" stroke="#4a5568" stroke-width="1.1" d="M12,-87C12,-87 88.75,-87 88.75,-87 94.75,-87 100.75,-93 100.75,-99 100.75,-99 100.75,-166.5 100.75,-166.5 100.75,-172.5 94.75,-178.5 88.75,-178.5 88.75,-178.5 12,-178.5 12,-178.5 6,-178.5 0,-172.5 0,-166.5 0,-166.5 0,-99 0,-99 0,-93 6,-87 12,-87"/>
<text xml:space="preserve" text-anchor="middle" x="50.38" y="-165" font-family="Helvetica,sans-Serif" font-size="10.00">BaseWorker</text>
<polyline fill="none" stroke="#4a5568" stroke-width="1.1" points="0,-159.25 100.75,-159.25"/>
<text xml:space="preserve" text-anchor="start" x="8" y="-145.75" font-family="Helvetica,sans-Serif" font-size="10.00">+env</text>
<polyline fill="none" stroke="#4a5568" stroke-width="1.1" points="0,-140 100.75,-140"/>
<text xml:space="preserve" text-anchor="start" x="8" y="-126.5" font-family="Helvetica,sans-Serif" font-size="10.00">+expand()</text>
<text xml:space="preserve" text-anchor="start" x="8" y="-115.25" font-family="Helvetica,sans-Serif" font-size="10.00">+expand_and_join()</text>
<text xml:space="preserve" text-anchor="start" x="8" y="-104" font-family="Helvetica,sans-Serif" font-size="10.00">+start()</text>
<text xml:space="preserve" text-anchor="start" x="8" y="-92.75" font-family="Helvetica,sans-Serif" font-size="10.00">+stop()</text>
</g>
<!-- MycodeArgs -->
<g id="node2" class="node">
<title>MycodeArgs</title>
<path fill="#f8f9fb" stroke="#4a5568" stroke-width="1.1" d="M27,-0.5C27,-0.5 73.75,-0.5 73.75,-0.5 79.75,-0.5 85.75,-6.5 85.75,-12.5 85.75,-12.5 85.75,-27 85.75,-27 85.75,-33 79.75,-39 73.75,-39 73.75,-39 27,-39 27,-39 21,-39 15,-33 15,-27 15,-27 15,-12.5 15,-12.5 15,-6.5 21,-0.5 27,-0.5"/>
<text xml:space="preserve" text-anchor="middle" x="50.38" y="-25.5" font-family="Helvetica,sans-Serif" font-size="10.00">MycodeArgs</text>
<polyline fill="none" stroke="#4a5568" stroke-width="1.1" points="15,-19.75 85.75,-19.75"/>
<text xml:space="preserve" text-anchor="middle" x="50.38" y="-6.25" font-family="Helvetica,sans-Serif" font-size="10.00"> </text>
</g>
<!-- BaseWorker&#45;&gt;MycodeArgs -->
<g id="edge1" class="edge">
<title>BaseWorker&#45;&gt;MycodeArgs</title>
<path fill="none" stroke="#4a5568" stroke-width="1.05" d="M50.38,-86.6C50.38,-74.65 50.38,-62.04 50.38,-51.09"/>
<polygon fill="#4a5568" stroke="#4a5568" stroke-width="1.05" points="53.88,-51.14 50.38,-41.14 46.88,-51.14 53.88,-51.14"/>
</g>
</g>
</svg>
