<?xml version="1.0" encoding="UTF-8" standalone="no"?>
<!DOCTYPE svg PUBLIC "-//W3C//DTD SVG 1.1//EN"
 "http://www.w3.org/Graphics/SVG/1.1/DTD/svg11.dtd">
<!-- Generated by graphviz version 14.1.0 (20251206.1807)
 -->
<!-- Title: G Pages: 1 -->
<svg width="109pt" height="206pt"
 viewBox="0.00 0.00 109.00 206.00" xmlns="http://www.w3.org/2000/svg" xmlns:xlink="http://www.w3.org/1999/xlink">
<g id="graph0" class="graph" transform="scale(1 1) rotate(0) translate(4 202.25)">
<title>G</title>
<polygon fill="white" stroke="none" points="-4,4 -4,-202.25 104.75,-202.25 104.75,4 -4,4"/>
<!-- BaseWorker -->
<g id="node1" class="node">
<title>BaseWorker</title>
<path fill="#f8f9fb" stroke="#4a5568" stroke-width="1.1" d="M12,-106.25C12,-106.25 88.75,-106.25 88.75,-106.25 94.75,-106.25 100.75,-112.25 100.75,-118.25 100.75,-118.25 100.75,-185.75 100.75,-185.75 100.75,-191.75 94.75,-197.75 88.75,-197.75 88.75,-197.75 12,-197.75 12,-197.75 6,-197.75 0,-191.75 0,-185.75 0,-185.75 0,-118.25 0,-118.25 0,-112.25 6,-106.25 12,-106.25"/>
<text xml:space="preserve" text-anchor="middle" x="50.38" y="-184.25" font-family="Helvetica,sans-Serif" font-size="10.00">BaseWorker</text>
<polyline fill="none" stroke="#4a5568" stroke-width="1.1" points="0,-178.5 100.75,-178.5"/>
<text xml:space="preserve" text-anchor="start" x="8" y="-165" font-family="Helvetica,sans-Serif" font-size="10.00">+env</text>
<polyline fill="none" stroke="#4a5568" stroke-width="1.1" points="0,-159.25 100.75,-159.25"/>
<text xml:space="preserve" text-anchor="start" x="8" y="-145.75" font-family="Helvetica,sans-Serif" font-size="10.00">+expand()</text>
<text xml:space="preserve" text-anchor="start" x="8" y="-134.5" font-family="Helvetica,sans-Serif" font-size="10.00">+expand_and_join()</text>
<text xml:space="preserve" text-anchor="start" x="8" y="-123.25" font-family="Helvetica,sans-Serif" font-size="10.00">+start()</text>
<text xml:space="preserve" text-anchor="start" x="8" y="-112" font-family="Helvetica,sans-Serif" font-size="10.00">+stop()</text>
</g>
<!-- FlightArgs -->
<g id="node2" class="node">
<title>FlightArgs</title>
<path fill="#f8f9fb" stroke="#4a5568" stroke-width="1.1" d="M12.75,-0.5C12.75,-0.5 88,-0.5 88,-0.5 94,-0.5 100,-6.5 100,-12.5 100,-12.5 100,-46.25 100,-46.25 100,-52.25 94,-58.25 88,-58.25 88,-58.25 12.75,-58.25 12.75,-58.25 6.75,-58.25 0.75,-52.25 0.75,-46.25 0.75,-46.25 0.75,-12.5 0.75,-12.5 0.75,-6.5 6.75,-0.5 12.75,-0.5"/>
<text xml:space="preserve" text-anchor="middle" x="50.38" y="-44.75" font-family="Helvetica,sans-Serif" font-size="10.00">FlightArgs</text>
<polyline fill="none" stroke="#4a5568" stroke-width="1.1" points="0.75,-39 100,-39"/>
<text xml:space="preserve" text-anchor="start" x="8.75" y="-25.5" font-family="Helvetica,sans-Serif" font-size="10.00">+nfile</text>
<polyline fill="none" stroke="#4a5568" stroke-width="1.1" points="0.75,-19.75 100,-19.75"/>
<text xml:space="preserve" text-anchor="start" x="8.75" y="-6.25" font-family="Helvetica,sans-Serif" font-size="10.00">+to_toml_payload()</text>
</g>
<!-- BaseWorker&#45;&gt;FlightArgs -->
<g id="edge1" class="edge">
<title>BaseWorker&#45;&gt;FlightArgs</title>
<path fill="none" stroke="#4a5568" stroke-width="1.05" d="M50.38,-105.74C50.38,-94.03 50.38,-81.51 50.38,-70.11"/>
<polygon fill="#4a5568" stroke="#4a5568" stroke-width="1.05" points="53.88,-70.3 50.38,-60.3 46.88,-70.3 53.88,-70.3"/>
</g>
</g>
</svg>
