<?xml version="1.0" encoding="UTF-8" standalone="no"?>
<!DOCTYPE svg PUBLIC "-//W3C//DTD SVG 1.1//EN"
 "http://www.w3.org/Graphics/SVG/1.1/DTD/svg11.dtd">
<!-- Generated by graphviz version 13.1.1 (20250719.2154)
 -->
<!-- Title: G Pages: 1 -->
<svg width="167pt" height="251pt"
 viewBox="0.00 0.00 167.00 251.00" xmlns="http://www.w3.org/2000/svg" xmlns:xlink="http://www.w3.org/1999/xlink">
<g id="graph0" class="graph" transform="scale(1 1) rotate(0) translate(4 247.25)">
<title>G</title>
<polygon fill="white" stroke="none" points="-4,4 -4,-247.25 162.5,-247.25 162.5,4 -4,4"/>
<!-- BaseWorker -->
<g id="node1" class="node">
<title>BaseWorker</title>
<path fill="#f8f9fb" stroke="#4a5568" stroke-width="1.1" d="M40.88,-151.25C40.88,-151.25 117.62,-151.25 117.62,-151.25 123.62,-151.25 129.62,-157.25 129.62,-163.25 129.62,-163.25 129.62,-230.75 129.62,-230.75 129.62,-236.75 123.62,-242.75 117.62,-242.75 117.62,-242.75 40.88,-242.75 40.88,-242.75 34.88,-242.75 28.88,-236.75 28.88,-230.75 28.88,-230.75 28.88,-163.25 28.88,-163.25 28.88,-157.25 34.88,-151.25 40.88,-151.25"/>
<text xml:space="preserve" text-anchor="middle" x="79.25" y="-229.25" font-family="Helvetica,sans-Serif" font-size="10.00">BaseWorker</text>
<polyline fill="none" stroke="#4a5568" stroke-width="1.1" points="28.88,-223.5 129.62,-223.5"/>
<text xml:space="preserve" text-anchor="start" x="36.88" y="-210" font-family="Helvetica,sans-Serif" font-size="10.00">+env</text>
<polyline fill="none" stroke="#4a5568" stroke-width="1.1" points="28.88,-204.25 129.62,-204.25"/>
<text xml:space="preserve" text-anchor="start" x="36.88" y="-190.75" font-family="Helvetica,sans-Serif" font-size="10.00">+expand()</text>
<text xml:space="preserve" text-anchor="start" x="36.88" y="-179.5" font-family="Helvetica,sans-Serif" font-size="10.00">+expand_and_join()</text>
<text xml:space="preserve" text-anchor="start" x="36.88" y="-168.25" font-family="Helvetica,sans-Serif" font-size="10.00">+start()</text>
<text xml:space="preserve" text-anchor="start" x="36.88" y="-157" font-family="Helvetica,sans-Serif" font-size="10.00">+stop()</text>
</g>
<!-- Flight -->
<g id="node2" class="node">
<title>Flight</title>
<path fill="#f8f9fb" stroke="#4a5568" stroke-width="1.1" d="M12,-0.5C12,-0.5 146.5,-0.5 146.5,-0.5 152.5,-0.5 158.5,-6.5 158.5,-12.5 158.5,-12.5 158.5,-91.25 158.5,-91.25 158.5,-97.25 152.5,-103.25 146.5,-103.25 146.5,-103.25 12,-103.25 12,-103.25 6,-103.25 0,-97.25 0,-91.25 0,-91.25 0,-12.5 0,-12.5 0,-6.5 6,-0.5 12,-0.5"/>
<text xml:space="preserve" text-anchor="middle" x="79.25" y="-89.75" font-family="Helvetica,sans-Serif" font-size="10.00">Flight</text>
<polyline fill="none" stroke="#4a5568" stroke-width="1.1" points="0,-84 158.5,-84"/>
<text xml:space="preserve" text-anchor="start" x="8" y="-70.5" font-family="Helvetica,sans-Serif" font-size="10.00">+ivq_logs</text>
<polyline fill="none" stroke="#4a5568" stroke-width="1.1" points="0,-64.75 158.5,-64.75"/>
<text xml:space="preserve" text-anchor="start" x="8" y="-51.25" font-family="Helvetica,sans-Serif" font-size="10.00">+build_distribution()</text>
<text xml:space="preserve" text-anchor="start" x="8" y="-40" font-family="Helvetica,sans-Serif" font-size="10.00">+get_data_from_hawk()</text>
<text xml:space="preserve" text-anchor="start" x="8" y="-28.75" font-family="Helvetica,sans-Serif" font-size="10.00">+extract_plane_from_file_name()</text>
<text xml:space="preserve" text-anchor="start" x="8" y="-17.5" font-family="Helvetica,sans-Serif" font-size="10.00">+get_data_from_files()</text>
<text xml:space="preserve" text-anchor="start" x="8" y="-6.25" font-family="Helvetica,sans-Serif" font-size="10.00">+get_partition_by_planes()</text>
</g>
<!-- BaseWorker&#45;&gt;Flight -->
<g id="edge1" class="edge">
<title>BaseWorker&#45;&gt;Flight</title>
<path fill="none" stroke="#4a5568" stroke-width="1.05" d="M79.25,-150.71C79.25,-139.36 79.25,-126.97 79.25,-114.95"/>
<polygon fill="#4a5568" stroke="#4a5568" stroke-width="1.05" points="82.75,-115.18 79.25,-105.18 75.75,-115.18 82.75,-115.18"/>
</g>
</g>
</svg>
