<?xml version="1.0" encoding="UTF-8" standalone="no"?>
<!DOCTYPE svg PUBLIC "-//W3C//DTD SVG 1.1//EN"
 "http://www.w3.org/Graphics/SVG/1.1/DTD/svg11.dtd">
<!-- Generated by graphviz version 14.0.0 (20250921.2048)
 -->
<!-- Title: G Pages: 1 -->
<svg width="109pt" height="221pt"
 viewBox="0.00 0.00 109.00 221.00" xmlns="http://www.w3.org/2000/svg" xmlns:xlink="http://www.w3.org/1999/xlink">
<g id="graph0" class="graph" transform="scale(1 1) rotate(0) translate(4 216.75)">
<title>G</title>
<polygon fill="white" stroke="none" points="-4,4 -4,-216.75 104.75,-216.75 104.75,4 -4,4"/>
<!-- BaseWorker -->
<g id="node1" class="node">
<title>BaseWorker</title>
<path fill="#f8f9fb" stroke="#4a5568" stroke-width="1.1" d="M12,-120.75C12,-120.75 88.75,-120.75 88.75,-120.75 94.75,-120.75 100.75,-126.75 100.75,-132.75 100.75,-132.75 100.75,-200.25 100.75,-200.25 100.75,-206.25 94.75,-212.25 88.75,-212.25 88.75,-212.25 12,-212.25 12,-212.25 6,-212.25 0,-206.25 0,-200.25 0,-200.25 0,-132.75 0,-132.75 0,-126.75 6,-120.75 12,-120.75"/>
<text xml:space="preserve" text-anchor="middle" x="50.38" y="-198.75" font-family="Helvetica,sans-Serif" font-size="10.00">BaseWorker</text>
<polyline fill="none" stroke="#4a5568" stroke-width="1.1" points="0,-193 100.75,-193"/>
<text xml:space="preserve" text-anchor="start" x="8" y="-179.5" font-family="Helvetica,sans-Serif" font-size="10.00">+env</text>
<polyline fill="none" stroke="#4a5568" stroke-width="1.1" points="0,-173.75 100.75,-173.75"/>
<text xml:space="preserve" text-anchor="start" x="8" y="-160.25" font-family="Helvetica,sans-Serif" font-size="10.00">+expand()</text>
<text xml:space="preserve" text-anchor="start" x="8" y="-149" font-family="Helvetica,sans-Serif" font-size="10.00">+expand_and_join()</text>
<text xml:space="preserve" text-anchor="start" x="8" y="-137.75" font-family="Helvetica,sans-Serif" font-size="10.00">+start()</text>
<text xml:space="preserve" text-anchor="start" x="8" y="-126.5" font-family="Helvetica,sans-Serif" font-size="10.00">+stop()</text>
</g>
<!-- Mycode -->
<g id="node2" class="node">
<title>Mycode</title>
<path fill="#f8f9fb" stroke="#4a5568" stroke-width="1.1" d="M12,-0.5C12,-0.5 88.75,-0.5 88.75,-0.5 94.75,-0.5 100.75,-6.5 100.75,-12.5 100.75,-12.5 100.75,-60.75 100.75,-60.75 100.75,-66.75 94.75,-72.75 88.75,-72.75 88.75,-72.75 12,-72.75 12,-72.75 6,-72.75 0,-66.75 0,-60.75 0,-60.75 0,-12.5 0,-12.5 0,-6.5 6,-0.5 12,-0.5"/>
<text xml:space="preserve" text-anchor="middle" x="50.38" y="-59.25" font-family="Helvetica,sans-Serif" font-size="10.00">Mycode</text>
<polyline fill="none" stroke="#4a5568" stroke-width="1.1" points="0,-53.5 100.75,-53.5"/>
<text xml:space="preserve" text-anchor="start" x="8" y="-40" font-family="Helvetica,sans-Serif" font-size="10.00">+from_toml()</text>
<text xml:space="preserve" text-anchor="start" x="8" y="-28.75" font-family="Helvetica,sans-Serif" font-size="10.00">+to_toml()</text>
<text xml:space="preserve" text-anchor="start" x="8" y="-17.5" font-family="Helvetica,sans-Serif" font-size="10.00">+as_dict()</text>
<text xml:space="preserve" text-anchor="start" x="8" y="-6.25" font-family="Helvetica,sans-Serif" font-size="10.00">+build_distribution()</text>
</g>
<!-- BaseWorker&#45;&gt;Mycode -->
<g id="edge1" class="edge">
<title>BaseWorker&#45;&gt;Mycode</title>
<path fill="none" stroke="#4a5568" stroke-width="1.05" d="M50.38,-120.42C50.38,-108.77 50.38,-96.2 50.38,-84.47"/>
<polygon fill="#4a5568" stroke="#4a5568" stroke-width="1.05" points="53.88,-84.66 50.38,-74.66 46.88,-84.66 53.88,-84.66"/>
</g>
</g>
</svg>
