<?xml version="1.0" encoding="UTF-8" standalone="no"?>
<!DOCTYPE svg PUBLIC "-//W3C//DTD SVG 1.1//EN"
 "http://www.w3.org/Graphics/SVG/1.1/DTD/svg11.dtd">
<!-- Generated by graphviz version 14.0.5 (20251129.0259)
 -->
<!-- Title: G Pages: 1 -->
<svg width="109pt" height="240pt"
 viewBox="0.00 0.00 109.00 240.00" xmlns="http://www.w3.org/2000/svg" xmlns:xlink="http://www.w3.org/1999/xlink">
<g id="graph0" class="graph" transform="scale(1 1) rotate(0) translate(4 236)">
<title>G</title>
<polygon fill="white" stroke="none" points="-4,4 -4,-236 104.75,-236 104.75,4 -4,4"/>
<!-- BaseWorker -->
<g id="node1" class="node">
<title>BaseWorker</title>
<path fill="#f8f9fb" stroke="#4a5568" stroke-width="1.1" d="M12,-140C12,-140 88.75,-140 88.75,-140 94.75,-140 100.75,-146 100.75,-152 100.75,-152 100.75,-219.5 100.75,-219.5 100.75,-225.5 94.75,-231.5 88.75,-231.5 88.75,-231.5 12,-231.5 12,-231.5 6,-231.5 0,-225.5 0,-219.5 0,-219.5 0,-152 0,-152 0,-146 6,-140 12,-140"/>
<text xml:space="preserve" text-anchor="middle" x="50.38" y="-218" font-family="Helvetica,sans-Serif" font-size="10.00">BaseWorker</text>
<polyline fill="none" stroke="#4a5568" stroke-width="1.1" points="0,-212.25 100.75,-212.25"/>
<text xml:space="preserve" text-anchor="start" x="8" y="-198.75" font-family="Helvetica,sans-Serif" font-size="10.00">+env</text>
<polyline fill="none" stroke="#4a5568" stroke-width="1.1" points="0,-193 100.75,-193"/>
<text xml:space="preserve" text-anchor="start" x="8" y="-179.5" font-family="Helvetica,sans-Serif" font-size="10.00">+expand()</text>
<text xml:space="preserve" text-anchor="start" x="8" y="-168.25" font-family="Helvetica,sans-Serif" font-size="10.00">+expand_and_join()</text>
<text xml:space="preserve" text-anchor="start" x="8" y="-157" font-family="Helvetica,sans-Serif" font-size="10.00">+start()</text>
<text xml:space="preserve" text-anchor="start" x="8" y="-145.75" font-family="Helvetica,sans-Serif" font-size="10.00">+stop()</text>
</g>
<!-- Mycode -->
<g id="node2" class="node">
<title>Mycode</title>
<path fill="#f8f9fb" stroke="#4a5568" stroke-width="1.1" d="M12,-0.5C12,-0.5 88.75,-0.5 88.75,-0.5 94.75,-0.5 100.75,-6.5 100.75,-12.5 100.75,-12.5 100.75,-80 100.75,-80 100.75,-86 94.75,-92 88.75,-92 88.75,-92 12,-92 12,-92 6,-92 0,-86 0,-80 0,-80 0,-12.5 0,-12.5 0,-6.5 6,-0.5 12,-0.5"/>
<text xml:space="preserve" text-anchor="middle" x="50.38" y="-78.5" font-family="Helvetica,sans-Serif" font-size="10.00">Mycode</text>
<polyline fill="none" stroke="#4a5568" stroke-width="1.1" points="0,-72.75 100.75,-72.75"/>
<text xml:space="preserve" text-anchor="start" x="8" y="-59.25" font-family="Helvetica,sans-Serif" font-size="10.00">+worker_vars</text>
<polyline fill="none" stroke="#4a5568" stroke-width="1.1" points="0,-53.5 100.75,-53.5"/>
<text xml:space="preserve" text-anchor="start" x="8" y="-40" font-family="Helvetica,sans-Serif" font-size="10.00">+from_toml()</text>
<text xml:space="preserve" text-anchor="start" x="8" y="-28.75" font-family="Helvetica,sans-Serif" font-size="10.00">+to_toml()</text>
<text xml:space="preserve" text-anchor="start" x="8" y="-17.5" font-family="Helvetica,sans-Serif" font-size="10.00">+as_dict()</text>
<text xml:space="preserve" text-anchor="start" x="8" y="-6.25" font-family="Helvetica,sans-Serif" font-size="10.00">+build_distribution()</text>
</g>
<!-- BaseWorker&#45;&gt;Mycode -->
<g id="edge1" class="edge">
<title>BaseWorker&#45;&gt;Mycode</title>
<path fill="none" stroke="#4a5568" stroke-width="1.05" d="M50.38,-139.73C50.38,-128.21 50.38,-115.69 50.38,-103.68"/>
<polygon fill="#4a5568" stroke="#4a5568" stroke-width="1.05" points="53.88,-103.96 50.38,-93.96 46.88,-103.96 53.88,-103.96"/>
</g>
</g>
</svg>
