<?xml version="1.0" encoding="UTF-8" standalone="no"?>
<!DOCTYPE svg PUBLIC "-//W3C//DTD SVG 1.1//EN"
 "http://www.w3.org/Graphics/SVG/1.1/DTD/svg11.dtd">
<!-- Generated by graphviz version 14.0.2 (20251019.1705)
 -->
<!-- Title: G Pages: 1 -->
<svg width="138pt" height="206pt"
 viewBox="0.00 0.00 138.00 206.00" xmlns="http://www.w3.org/2000/svg" xmlns:xlink="http://www.w3.org/1999/xlink">
<g id="graph0" class="graph" transform="scale(1 1) rotate(0) translate(4 202.25)">
<title>G</title>
<polygon fill="white" stroke="none" points="-4,4 -4,-202.25 134,-202.25 134,4 -4,4"/>
<!-- BaseWorker -->
<g id="node1" class="node">
<title>BaseWorker</title>
<path fill="#f8f9fb" stroke="#4a5568" stroke-width="1.1" d="M26.62,-106.25C26.62,-106.25 103.38,-106.25 103.38,-106.25 109.38,-106.25 115.38,-112.25 115.38,-118.25 115.38,-118.25 115.38,-185.75 115.38,-185.75 115.38,-191.75 109.38,-197.75 103.38,-197.75 103.38,-197.75 26.62,-197.75 26.62,-197.75 20.62,-197.75 14.62,-191.75 14.62,-185.75 14.62,-185.75 14.62,-118.25 14.62,-118.25 14.62,-112.25 20.62,-106.25 26.62,-106.25"/>
<text xml:space="preserve" text-anchor="middle" x="65" y="-184.25" font-family="Helvetica,sans-Serif" font-size="10.00">BaseWorker</text>
<polyline fill="none" stroke="#4a5568" stroke-width="1.1" points="14.62,-178.5 115.38,-178.5"/>
<text xml:space="preserve" text-anchor="start" x="22.62" y="-165" font-family="Helvetica,sans-Serif" font-size="10.00">+env</text>
<polyline fill="none" stroke="#4a5568" stroke-width="1.1" points="14.62,-159.25 115.38,-159.25"/>
<text xml:space="preserve" text-anchor="start" x="22.62" y="-145.75" font-family="Helvetica,sans-Serif" font-size="10.00">+expand()</text>
<text xml:space="preserve" text-anchor="start" x="22.62" y="-134.5" font-family="Helvetica,sans-Serif" font-size="10.00">+expand_and_join()</text>
<text xml:space="preserve" text-anchor="start" x="22.62" y="-123.25" font-family="Helvetica,sans-Serif" font-size="10.00">+start()</text>
<text xml:space="preserve" text-anchor="start" x="22.62" y="-112" font-family="Helvetica,sans-Serif" font-size="10.00">+stop()</text>
</g>
<!-- Sb3Trainer -->
<g id="node2" class="node">
<title>Sb3Trainer</title>
<path fill="#f8f9fb" stroke="#4a5568" stroke-width="1.1" d="M12,-0.5C12,-0.5 118,-0.5 118,-0.5 124,-0.5 130,-6.5 130,-12.5 130,-12.5 130,-46.25 130,-46.25 130,-52.25 124,-58.25 118,-58.25 118,-58.25 12,-58.25 12,-58.25 6,-58.25 0,-52.25 0,-46.25 0,-46.25 0,-12.5 0,-12.5 0,-6.5 6,-0.5 12,-0.5"/>
<text xml:space="preserve" text-anchor="middle" x="65" y="-44.75" font-family="Helvetica,sans-Serif" font-size="10.00">Sb3Trainer</text>
<polyline fill="none" stroke="#4a5568" stroke-width="1.1" points="0,-39 130,-39"/>
<text xml:space="preserve" text-anchor="start" x="8" y="-25.5" font-family="Helvetica,sans-Serif" font-size="10.00">+managed_pc_path_fields</text>
<polyline fill="none" stroke="#4a5568" stroke-width="1.1" points="0,-19.75 130,-19.75"/>
<text xml:space="preserve" text-anchor="start" x="8" y="-6.25" font-family="Helvetica,sans-Serif" font-size="10.00">+build_distribution()</text>
</g>
<!-- BaseWorker&#45;&gt;Sb3Trainer -->
<g id="edge1" class="edge">
<title>BaseWorker&#45;&gt;Sb3Trainer</title>
<path fill="none" stroke="#4a5568" stroke-width="1.05" d="M65,-105.74C65,-94.03 65,-81.51 65,-70.11"/>
<polygon fill="#4a5568" stroke="#4a5568" stroke-width="1.05" points="68.5,-70.3 65,-60.3 61.5,-70.3 68.5,-70.3"/>
</g>
</g>
</svg>
