<?xml version="1.0" encoding="UTF-8" standalone="no"?>
<!DOCTYPE svg PUBLIC "-//W3C//DTD SVG 1.1//EN"
 "http://www.w3.org/Graphics/SVG/1.1/DTD/svg11.dtd">
<!-- Generated by graphviz version 14.0.0 (20250921.2048)
 -->
<!-- Title: G Pages: 1 -->
<svg width="109pt" height="372pt"
 viewBox="0.00 0.00 109.00 372.00" xmlns="http://www.w3.org/2000/svg" xmlns:xlink="http://www.w3.org/1999/xlink">
<g id="graph0" class="graph" transform="scale(1 1) rotate(0) translate(4 367.5)">
<title>G</title>
<polygon fill="white" stroke="none" points="-4,4 -4,-367.5 104.75,-367.5 104.75,4 -4,4"/>
<!-- BaseWorker -->
<g id="node1" class="node">
<title>BaseWorker</title>
<path fill="#f8f9fb" stroke="#4a5568" stroke-width="1.1" d="M12,-271.5C12,-271.5 88.75,-271.5 88.75,-271.5 94.75,-271.5 100.75,-277.5 100.75,-283.5 100.75,-283.5 100.75,-351 100.75,-351 100.75,-357 94.75,-363 88.75,-363 88.75,-363 12,-363 12,-363 6,-363 0,-357 0,-351 0,-351 0,-283.5 0,-283.5 0,-277.5 6,-271.5 12,-271.5"/>
<text xml:space="preserve" text-anchor="middle" x="50.38" y="-349.5" font-family="Helvetica,sans-Serif" font-size="10.00">BaseWorker</text>
<polyline fill="none" stroke="#4a5568" stroke-width="1.1" points="0,-343.75 100.75,-343.75"/>
<text xml:space="preserve" text-anchor="start" x="8" y="-330.25" font-family="Helvetica,sans-Serif" font-size="10.00">+env</text>
<polyline fill="none" stroke="#4a5568" stroke-width="1.1" points="0,-324.5 100.75,-324.5"/>
<text xml:space="preserve" text-anchor="start" x="8" y="-311" font-family="Helvetica,sans-Serif" font-size="10.00">+expand()</text>
<text xml:space="preserve" text-anchor="start" x="8" y="-299.75" font-family="Helvetica,sans-Serif" font-size="10.00">+expand_and_join()</text>
<text xml:space="preserve" text-anchor="start" x="8" y="-288.5" font-family="Helvetica,sans-Serif" font-size="10.00">+start()</text>
<text xml:space="preserve" text-anchor="start" x="8" y="-277.25" font-family="Helvetica,sans-Serif" font-size="10.00">+stop()</text>
</g>
<!-- PolarsWorker -->
<g id="node2" class="node">
<title>PolarsWorker</title>
<path fill="#f8f9fb" stroke="#4a5568" stroke-width="1.1" d="M24.75,-162.5C24.75,-162.5 76,-162.5 76,-162.5 82,-162.5 88,-168.5 88,-174.5 88,-174.5 88,-211.5 88,-211.5 88,-217.5 82,-223.5 76,-223.5 76,-223.5 24.75,-223.5 24.75,-223.5 18.75,-223.5 12.75,-217.5 12.75,-211.5 12.75,-211.5 12.75,-174.5 12.75,-174.5 12.75,-168.5 18.75,-162.5 24.75,-162.5"/>
<text xml:space="preserve" text-anchor="middle" x="50.38" y="-210" font-family="Helvetica,sans-Serif" font-size="10.00">PolarsWorker</text>
<polyline fill="none" stroke="#4a5568" stroke-width="1.1" points="12.75,-204.25 88,-204.25"/>
<text xml:space="preserve" text-anchor="start" x="20.75" y="-190.75" font-family="Helvetica,sans-Serif" font-size="10.00">+work_pool()</text>
<text xml:space="preserve" text-anchor="start" x="20.75" y="-179.5" font-family="Helvetica,sans-Serif" font-size="10.00">+work_done()</text>
<text xml:space="preserve" text-anchor="start" x="20.75" y="-168.25" font-family="Helvetica,sans-Serif" font-size="10.00">+works()</text>
</g>
<!-- BaseWorker&#45;&gt;PolarsWorker -->
<g id="edge1" class="edge">
<title>BaseWorker&#45;&gt;PolarsWorker</title>
<path fill="none" stroke="#4a5568" stroke-width="1.05" d="M50.38,-271.08C50.38,-259.36 50.38,-246.81 50.38,-235.31"/>
<polygon fill="#4a5568" stroke="#4a5568" stroke-width="1.05" points="53.88,-235.37 50.38,-225.37 46.88,-235.37 53.88,-235.37"/>
</g>
<!-- LinkSimWorker -->
<g id="node3" class="node">
<title>LinkSimWorker</title>
<path fill="#f8f9fb" stroke="#4a5568" stroke-width="1.1" d="M21.38,-0.5C21.38,-0.5 79.38,-0.5 79.38,-0.5 85.38,-0.5 91.38,-6.5 91.38,-12.5 91.38,-12.5 91.38,-102.5 91.38,-102.5 91.38,-108.5 85.38,-114.5 79.38,-114.5 79.38,-114.5 21.38,-114.5 21.38,-114.5 15.37,-114.5 9.38,-108.5 9.38,-102.5 9.38,-102.5 9.38,-12.5 9.38,-12.5 9.38,-6.5 15.38,-0.5 21.38,-0.5"/>
<text xml:space="preserve" text-anchor="middle" x="50.38" y="-101" font-family="Helvetica,sans-Serif" font-size="10.00">LinkSimWorker</text>
<polyline fill="none" stroke="#4a5568" stroke-width="1.1" points="9.38,-95.25 91.38,-95.25"/>
<text xml:space="preserve" text-anchor="start" x="17.38" y="-81.75" font-family="Helvetica,sans-Serif" font-size="10.00">+pool_vars</text>
<polyline fill="none" stroke="#4a5568" stroke-width="1.1" points="9.38,-76 91.38,-76"/>
<text xml:space="preserve" text-anchor="start" x="17.38" y="-62.5" font-family="Helvetica,sans-Serif" font-size="10.00">+start()</text>
<text xml:space="preserve" text-anchor="start" x="17.38" y="-51.25" font-family="Helvetica,sans-Serif" font-size="10.00">+work_init()</text>
<text xml:space="preserve" text-anchor="start" x="17.38" y="-40" font-family="Helvetica,sans-Serif" font-size="10.00">+pool_init()</text>
<text xml:space="preserve" text-anchor="start" x="17.38" y="-28.75" font-family="Helvetica,sans-Serif" font-size="10.00">+work_pool()</text>
<text xml:space="preserve" text-anchor="start" x="17.38" y="-17.5" font-family="Helvetica,sans-Serif" font-size="10.00">+work_done()</text>
<text xml:space="preserve" text-anchor="start" x="17.38" y="-6.25" font-family="Helvetica,sans-Serif" font-size="10.00">+stop()</text>
</g>
<!-- PolarsWorker&#45;&gt;LinkSimWorker -->
<g id="edge2" class="edge">
<title>PolarsWorker&#45;&gt;LinkSimWorker</title>
<path fill="none" stroke="#4a5568" stroke-width="1.05" d="M50.38,-162.04C50.38,-151.39 50.38,-138.92 50.38,-126.39"/>
<polygon fill="#4a5568" stroke="#4a5568" stroke-width="1.05" points="53.88,-126.51 50.38,-116.51 46.88,-126.51 53.88,-126.51"/>
</g>
</g>
</svg>
