<?xml version="1.0" encoding="UTF-8" standalone="no"?>
<!DOCTYPE svg PUBLIC "-//W3C//DTD SVG 1.1//EN"
 "http://www.w3.org/Graphics/SVG/1.1/DTD/svg11.dtd">
<!-- Generated by graphviz version 14.0.0 (20250921.2048)
 -->
<!-- Title: G Pages: 1 -->
<svg width="109pt" height="296pt"
 viewBox="0.00 0.00 109.00 296.00" xmlns="http://www.w3.org/2000/svg" xmlns:xlink="http://www.w3.org/1999/xlink">
<g id="graph0" class="graph" transform="scale(1 1) rotate(0) translate(4 292)">
<title>G</title>
<polygon fill="white" stroke="none" points="-4,4 -4,-292 104.75,-292 104.75,4 -4,4"/>
<!-- BaseWorker -->
<g id="node1" class="node">
<title>BaseWorker</title>
<path fill="#f8f9fb" stroke="#4a5568" stroke-width="1.1" d="M12,-196C12,-196 88.75,-196 88.75,-196 94.75,-196 100.75,-202 100.75,-208 100.75,-208 100.75,-275.5 100.75,-275.5 100.75,-281.5 94.75,-287.5 88.75,-287.5 88.75,-287.5 12,-287.5 12,-287.5 6,-287.5 0,-281.5 0,-275.5 0,-275.5 0,-208 0,-208 0,-202 6,-196 12,-196"/>
<text xml:space="preserve" text-anchor="middle" x="50.38" y="-274" font-family="Helvetica,sans-Serif" font-size="10.00">BaseWorker</text>
<polyline fill="none" stroke="#4a5568" stroke-width="1.1" points="0,-268.25 100.75,-268.25"/>
<text xml:space="preserve" text-anchor="start" x="8" y="-254.75" font-family="Helvetica,sans-Serif" font-size="10.00">+env</text>
<polyline fill="none" stroke="#4a5568" stroke-width="1.1" points="0,-249 100.75,-249"/>
<text xml:space="preserve" text-anchor="start" x="8" y="-235.5" font-family="Helvetica,sans-Serif" font-size="10.00">+expand()</text>
<text xml:space="preserve" text-anchor="start" x="8" y="-224.25" font-family="Helvetica,sans-Serif" font-size="10.00">+expand_and_join()</text>
<text xml:space="preserve" text-anchor="start" x="8" y="-213" font-family="Helvetica,sans-Serif" font-size="10.00">+start()</text>
<text xml:space="preserve" text-anchor="start" x="8" y="-201.75" font-family="Helvetica,sans-Serif" font-size="10.00">+stop()</text>
</g>
<!-- PandasWorker -->
<g id="node2" class="node">
<title>PandasWorker</title>
<path fill="#f8f9fb" stroke="#4a5568" stroke-width="1.1" d="M22.5,-87C22.5,-87 78.25,-87 78.25,-87 84.25,-87 90.25,-93 90.25,-99 90.25,-99 90.25,-136 90.25,-136 90.25,-142 84.25,-148 78.25,-148 78.25,-148 22.5,-148 22.5,-148 16.5,-148 10.5,-142 10.5,-136 10.5,-136 10.5,-99 10.5,-99 10.5,-93 16.5,-87 22.5,-87"/>
<text xml:space="preserve" text-anchor="middle" x="50.38" y="-134.5" font-family="Helvetica,sans-Serif" font-size="10.00">PandasWorker</text>
<polyline fill="none" stroke="#4a5568" stroke-width="1.1" points="10.5,-128.75 90.25,-128.75"/>
<text xml:space="preserve" text-anchor="start" x="18.5" y="-115.25" font-family="Helvetica,sans-Serif" font-size="10.00">+work_pool()</text>
<text xml:space="preserve" text-anchor="start" x="18.5" y="-104" font-family="Helvetica,sans-Serif" font-size="10.00">+work_done()</text>
<text xml:space="preserve" text-anchor="start" x="18.5" y="-92.75" font-family="Helvetica,sans-Serif" font-size="10.00">+works()</text>
</g>
<!-- BaseWorker&#45;&gt;PandasWorker -->
<g id="edge1" class="edge">
<title>BaseWorker&#45;&gt;PandasWorker</title>
<path fill="none" stroke="#4a5568" stroke-width="1.05" d="M50.38,-195.58C50.38,-183.86 50.38,-171.31 50.38,-159.81"/>
<polygon fill="#4a5568" stroke="#4a5568" stroke-width="1.05" points="53.88,-159.87 50.38,-149.87 46.88,-159.87 53.88,-159.87"/>
</g>
<!-- FlightWorker -->
<g id="node3" class="node">
<title>FlightWorker</title>
<path fill="#f8f9fb" stroke="#4a5568" stroke-width="1.1" d="M27,-0.5C27,-0.5 73.75,-0.5 73.75,-0.5 79.75,-0.5 85.75,-6.5 85.75,-12.5 85.75,-12.5 85.75,-27 85.75,-27 85.75,-33 79.75,-39 73.75,-39 73.75,-39 27,-39 27,-39 21,-39 15,-33 15,-27 15,-27 15,-12.5 15,-12.5 15,-6.5 21,-0.5 27,-0.5"/>
<text xml:space="preserve" text-anchor="middle" x="50.38" y="-25.5" font-family="Helvetica,sans-Serif" font-size="10.00">FlightWorker</text>
<polyline fill="none" stroke="#4a5568" stroke-width="1.1" points="15,-19.75 85.75,-19.75"/>
<text xml:space="preserve" text-anchor="middle" x="50.38" y="-6.25" font-family="Helvetica,sans-Serif" font-size="10.00"> </text>
</g>
<!-- PandasWorker&#45;&gt;FlightWorker -->
<g id="edge2" class="edge">
<title>PandasWorker&#45;&gt;FlightWorker</title>
<path fill="none" stroke="#4a5568" stroke-width="1.05" d="M50.38,-86.47C50.38,-75.19 50.38,-62.37 50.38,-51.07"/>
<polygon fill="#4a5568" stroke="#4a5568" stroke-width="1.05" points="53.88,-51.13 50.38,-41.13 46.88,-51.13 53.88,-51.13"/>
</g>
</g>
</svg>
