<?xml version="1.0" encoding="UTF-8"?>
<svg xmlns="http://www.w3.org/2000/svg" viewBox="0 0 960 540" role="img" aria-labelledby="title desc">
  <title id="title">Needs for an algorithm set</title>
  <desc id="desc">Diagram illustrating that complex engineering systems require a suite of algorithms rather than a single model.</desc>
  <defs>
    <style>
      .bg{fill:#ffffff}
      .title{font:700 26px/1.2 Arial, Helvetica, sans-serif; fill:#0f172a}
      .h{font:700 15px/1.2 Arial, Helvetica, sans-serif; fill:#0f172a}
      .t{font:400 13px/1.4 Arial, Helvetica, sans-serif; fill:#334155}
      .box{fill:#f8fafc;stroke:#cbd5e1;stroke-width:2}
      .center{fill:#ecfeff;stroke:#0891b2;stroke-width:2}
      .arrow{stroke:#475569;stroke-width:3;fill:none;marker-end:url(#arrow)}
    </style>
    <marker id="arrow" viewBox="0 0 10 10" refX="9" refY="5" markerWidth="10" markerHeight="10" orient="auto">
      <path d="M 0 0 L 10 5 L 0 10 z" fill="#475569"/>
    </marker>
  </defs>

  <rect class="bg" width="960" height="540"/>
  <text class="title" x="480" y="56" text-anchor="middle">Complex problems need an algorithm set</text>
  <text class="t" x="480" y="82" text-anchor="middle">Example: communications planning under constraints, uncertainty, and scale.</text>

  <rect class="center" x="330" y="200" rx="18" ry="18" width="300" height="140"/>
  <text class="h" x="480" y="240" text-anchor="middle">System objective</text>
  <text class="t" x="480" y="268" text-anchor="middle">Decisions, allocations, and KPIs</text>
  <text class="t" x="480" y="294" text-anchor="middle">must satisfy constraints</text>

  <rect class="box" x="80" y="120" rx="14" ry="14" width="220" height="84"/>
  <text class="h" x="190" y="150" text-anchor="middle">Simulation</text>
  <text class="t" x="190" y="174" text-anchor="middle">scenarios, dynamics</text>

  <rect class="box" x="660" y="120" rx="14" ry="14" width="220" height="84"/>
  <text class="h" x="770" y="150" text-anchor="middle">Optimization</text>
  <text class="t" x="770" y="174" text-anchor="middle">ILP / heuristics</text>

  <rect class="box" x="80" y="250" rx="14" ry="14" width="220" height="84"/>
  <text class="h" x="190" y="280" text-anchor="middle">Data pipelines</text>
  <text class="t" x="190" y="304" text-anchor="middle">cleaning, features</text>

  <rect class="box" x="660" y="250" rx="14" ry="14" width="220" height="84"/>
  <text class="h" x="770" y="280" text-anchor="middle">Learning</text>
  <text class="t" x="770" y="304" text-anchor="middle">ML / RL policies</text>

  <rect class="box" x="80" y="380" rx="14" ry="14" width="220" height="84"/>
  <text class="h" x="190" y="410" text-anchor="middle">Verification</text>
  <text class="t" x="190" y="434" text-anchor="middle">tests, invariants</text>

  <rect class="box" x="660" y="380" rx="14" ry="14" width="220" height="84"/>
  <text class="h" x="770" y="410" text-anchor="middle">Visualisation</text>
  <text class="t" x="770" y="434" text-anchor="middle">maps, KPIs, reports</text>

  <line class="arrow" x1="300" y1="162" x2="330" y2="235"/>
  <line class="arrow" x1="660" y1="162" x2="630" y2="235"/>
  <line class="arrow" x1="300" y1="292" x2="330" y2="270"/>
  <line class="arrow" x1="660" y1="292" x2="630" y2="270"/>
  <line class="arrow" x1="300" y1="422" x2="330" y2="305"/>
  <line class="arrow" x1="660" y1="422" x2="630" y2="305"/>

  <text class="t" x="480" y="515" text-anchor="middle">AGILab orchestrates these components into repeatable, scalable experiments.</text>
</svg>
