<?xml version="1.0" encoding="UTF-8" standalone="no"?>
<!DOCTYPE svg PUBLIC "-//W3C//DTD SVG 1.1//EN"
 "http://www.w3.org/Graphics/SVG/1.1/DTD/svg11.dtd">
<!-- Generated by graphviz version 14.0.0 (20250921.2048)
 -->
<!-- Title: packages_link_sim_worker Pages: 1 -->
<svg width="640pt" height="44pt"
 viewBox="0.00 0.00 640.00 44.00" xmlns="http://www.w3.org/2000/svg" xmlns:xlink="http://www.w3.org/1999/xlink">
<g id="graph0" class="graph" transform="scale(1 1) rotate(0) translate(4 40)">
<title>packages_link_sim_worker</title>
<polygon fill="white" stroke="none" points="-4,4 -4,-40 635.75,-40 635.75,4 -4,4"/>
<!-- link_sim_worker -->
<g id="node1" class="node">
<title>link_sim_worker</title>
<polygon fill="#f8f9fb" stroke="#77aadd" stroke-width="1.1" points="86.5,-36 0,-36 0,0 86.5,0 86.5,-36"/>
<text xml:space="preserve" text-anchor="start" x="8" y="-14.12" font-family="Helvetica,sans-Serif" font-size="10.00">link_sim_worker</text>
</g>
<!-- link_sim_worker&#45;&gt;link_sim_worker -->
<g id="edge1" class="edge">
<title>link_sim_worker&#45;&gt;link_sim_worker</title>
<path fill="none" stroke="#4a5568" stroke-width="1.05" d="M86.93,-24.72C104.13,-25.06 118.5,-22.82 118.5,-18 118.5,-14.27 109.91,-12.09 98.05,-11.45"/>
<polygon fill="#4a5568" stroke="#4a5568" stroke-width="1.05" points="88.21,-11.3 98.28,-6.95 91.93,-11.33 98.21,-11.43 98.21,-11.45 98.21,-11.48 91.93,-11.38 98.14,-15.95 88.21,-11.3"/>
</g>
<!-- link_sim_worker.link_sim_worker -->
<g id="node2" class="node">
<title>link_sim_worker.link_sim_worker</title>
<polygon fill="#f8f9fb" stroke="#77aadd" stroke-width="1.1" points="295.88,-36 136.62,-36 136.62,0 295.88,0 295.88,-36"/>
<text xml:space="preserve" text-anchor="start" x="144.62" y="-14.12" font-family="Helvetica,sans-Serif" font-size="10.00">link_sim_worker.link_sim_worker</text>
</g>
<!-- link_sim_worker.post_install -->
<g id="node3" class="node">
<title>link_sim_worker.post_install</title>
<polygon fill="#f8f9fb" stroke="#77aadd" stroke-width="1.1" points="466.38,-36 328.12,-36 328.12,0 466.38,0 466.38,-36"/>
<text xml:space="preserve" text-anchor="start" x="336.12" y="-14.12" font-family="Helvetica,sans-Serif" font-size="10.00">link_sim_worker.post_install</text>
</g>
<!-- link_sim_worker.pre_install -->
<g id="node4" class="node">
<title>link_sim_worker.pre_install</title>
<polygon fill="#f8f9fb" stroke="#77aadd" stroke-width="1.1" points="631.75,-36 498.75,-36 498.75,0 631.75,0 631.75,-36"/>
<text xml:space="preserve" text-anchor="start" x="506.75" y="-14.12" font-family="Helvetica,sans-Serif" font-size="10.00">link_sim_worker.pre_install</text>
</g>
</g>
</svg>
