<?xml version="1.0" encoding="UTF-8" standalone="no"?>
<!DOCTYPE svg PUBLIC "-//W3C//DTD SVG 1.1//EN"
 "http://www.w3.org/Graphics/SVG/1.1/DTD/svg11.dtd">
<!-- Generated by graphviz version 14.0.0 (20250921.2048)
 -->
<!-- Title: packages_link_sim Pages: 1 -->
<svg width="204pt" height="127pt"
 viewBox="0.00 0.00 204.00 127.00" xmlns="http://www.w3.org/2000/svg" xmlns:xlink="http://www.w3.org/1999/xlink">
<g id="graph0" class="graph" transform="scale(1 1) rotate(0) translate(4 123)">
<title>packages_link_sim</title>
<polygon fill="white" stroke="none" points="-4,4 -4,-123 199.5,-123 199.5,4 -4,4"/>
<!-- link_sim -->
<g id="node1" class="node">
<title>link_sim</title>
<polygon fill="#f8f9fb" stroke="#77aadd" stroke-width="1.1" points="54,-119 0,-119 0,-83 54,-83 54,-119"/>
<text xml:space="preserve" text-anchor="start" x="9" y="-97.12" font-family="Helvetica,sans-Serif" font-size="10.00">link_sim</text>
</g>
<!-- link_sim&#45;&gt;link_sim -->
<g id="edge1" class="edge">
<title>link_sim&#45;&gt;link_sim</title>
<path fill="none" stroke="#4a5568" stroke-width="1.05" d="M54.31,-115.59C70.64,-118.83 86,-113.97 86,-101 86,-91.07 76.99,-85.89 65.45,-85.47"/>
<polygon fill="#4a5568" stroke="#4a5568" stroke-width="1.05" points="55.59,-86.3 65.17,-80.97 59.29,-85.96 65.55,-85.43 65.55,-85.46 65.55,-85.48 59.29,-86.01 65.93,-89.94 55.59,-86.3"/>
</g>
<!-- link_sim.link_sim_args -->
<g id="node3" class="node">
<title>link_sim.link_sim_args</title>
<polygon fill="#f8f9fb" stroke="#77aadd" stroke-width="1.1" points="145.5,-36 30.5,-36 30.5,0 145.5,0 145.5,-36"/>
<text xml:space="preserve" text-anchor="start" x="38.5" y="-14.12" font-family="Helvetica,sans-Serif" font-size="10.00">link_sim.link_sim_args</text>
</g>
<!-- link_sim&#45;&gt;link_sim.link_sim_args -->
<g id="edge2" class="edge">
<title>link_sim&#45;&gt;link_sim.link_sim_args</title>
<path fill="none" stroke="#4a5568" stroke-width="1.05" d="M39.94,-82.82C48.13,-71.94 58.89,-57.66 68.15,-45.36"/>
<polygon fill="#4a5568" stroke="#4a5568" stroke-width="1.05" points="74.1,-37.45 71.68,-48.15 71.88,-40.44 68.11,-45.46 68.09,-45.44 68.07,-45.43 71.84,-40.41 64.49,-42.74 74.1,-37.45"/>
</g>
<!-- link_sim.link_sim -->
<g id="node2" class="node">
<title>link_sim.link_sim</title>
<polygon fill="#f8f9fb" stroke="#77aadd" stroke-width="1.1" points="195.5,-119 104.5,-119 104.5,-83 195.5,-83 195.5,-119"/>
<text xml:space="preserve" text-anchor="start" x="112.5" y="-97.12" font-family="Helvetica,sans-Serif" font-size="10.00">link_sim.link_sim</text>
</g>
<!-- link_sim.link_sim&#45;&gt;link_sim.link_sim_args -->
<g id="edge3" class="edge">
<title>link_sim.link_sim&#45;&gt;link_sim.link_sim_args</title>
<path fill="none" stroke="#4a5568" stroke-width="1.05" d="M136.85,-82.82C128.52,-71.94 117.59,-57.66 108.18,-45.36"/>
<polygon fill="#4a5568" stroke="#4a5568" stroke-width="1.05" points="102.12,-37.45 111.77,-42.65 104.4,-40.39 108.22,-45.37 108.2,-45.39 108.18,-45.4 104.36,-40.42 104.63,-48.12 102.12,-37.45"/>
</g>
</g>
</svg>
