<?xml version="1.0" encoding="UTF-8" standalone="no"?>
<!DOCTYPE svg PUBLIC "-//W3C//DTD SVG 1.1//EN"
 "http://www.w3.org/Graphics/SVG/1.1/DTD/svg11.dtd">
<!-- Generated by graphviz version 14.1.0 (20251206.1807)
 -->
<!-- Title: packages_flight_worker Pages: 1 -->
<svg width="258pt" height="44pt"
 viewBox="0.00 0.00 258.00 44.00" xmlns="http://www.w3.org/2000/svg" xmlns:xlink="http://www.w3.org/1999/xlink">
<g id="graph0" class="graph" transform="scale(1 1) rotate(0) translate(4 40)">
<title>packages_flight_worker</title>
<polygon fill="white" stroke="none" points="-4,4 -4,-40 254.38,-40 254.38,4 -4,4"/>
<!-- flight_worker -->
<g id="node1" class="node">
<title>flight_worker</title>
<polygon fill="#f8f9fb" stroke="#77aadd" stroke-width="1.1" points="71.5,-36 0,-36 0,0 71.5,0 71.5,-36"/>
<text xml:space="preserve" text-anchor="start" x="8" y="-14.12" font-family="Helvetica,sans-Serif" font-size="10.00">flight_worker</text>
</g>
<!-- flight_worker&#45;&gt;flight_worker -->
<g id="edge1" class="edge">
<title>flight_worker&#45;&gt;flight_worker</title>
<path fill="none" stroke="#4a5568" stroke-width="1.05" d="M72,-24.62C88.81,-25.34 103.5,-23.13 103.5,-18 103.5,-14.03 94.71,-11.81 82.95,-11.34"/>
<polygon fill="#4a5568" stroke="#4a5568" stroke-width="1.05" points="73.27,-11.38 83.26,-6.84 77,-11.34 83.27,-11.32 83.27,-11.34 83.27,-11.37 77,-11.39 83.29,-15.84 73.27,-11.38"/>
</g>
<!-- flight_worker.flight_worker -->
<g id="node2" class="node">
<title>flight_worker.flight_worker</title>
<polygon fill="#f8f9fb" stroke="#77aadd" stroke-width="1.1" points="250.38,-36 121.12,-36 121.12,0 250.38,0 250.38,-36"/>
<text xml:space="preserve" text-anchor="start" x="129.12" y="-14.12" font-family="Helvetica,sans-Serif" font-size="10.00">flight_worker.flight_worker</text>
</g>
</g>
</svg>
