<?xml version="1.0" encoding="UTF-8" standalone="no"?>
<!DOCTYPE svg PUBLIC "-//W3C//DTD SVG 1.1//EN"
 "http://www.w3.org/Graphics/SVG/1.1/DTD/svg11.dtd">
<!-- Generated by graphviz version 14.1.0 (20251206.1807)
 -->
<!-- Title: packages_agi_distributor Pages: 1 -->
<svg width="395pt" height="44pt"
 viewBox="0.00 0.00 395.00 44.00" xmlns="http://www.w3.org/2000/svg" xmlns:xlink="http://www.w3.org/1999/xlink">
<g id="graph0" class="graph" transform="scale(1 1) rotate(0) translate(4 40)">
<title>packages_agi_distributor</title>
<polygon fill="white" stroke="none" points="-4,4 -4,-40 390.75,-40 390.75,4 -4,4"/>
<!-- agi_distributor -->
<g id="node1" class="node">
<title>agi_distributor</title>
<polygon fill="#f8f9fb" stroke="#77aadd" stroke-width="1.1" points="76.75,-36 0,-36 0,0 76.75,0 76.75,-36"/>
<text xml:space="preserve" text-anchor="start" x="8" y="-14.12" font-family="Helvetica,sans-Serif" font-size="10.00">agi_distributor</text>
</g>
<!-- agi_distributor&#45;&gt;agi_distributor -->
<g id="edge1" class="edge">
<title>agi_distributor&#45;&gt;agi_distributor</title>
<path fill="none" stroke="#4a5568" stroke-width="1.05" d="M77.1,-24.66C94.11,-25.25 108.75,-23.03 108.75,-18 108.75,-14.11 99.99,-11.9 88.15,-11.37"/>
<polygon fill="#4a5568" stroke="#4a5568" stroke-width="1.05" points="78.38,-11.35 88.39,-6.88 82.1,-11.33 88.38,-11.35 88.38,-11.38 88.38,-11.4 82.1,-11.38 88.36,-15.88 78.38,-11.35"/>
</g>
<!-- agi_distributor.agi_distributor -->
<g id="node2" class="node">
<title>agi_distributor.agi_distributor</title>
<polygon fill="#f8f9fb" stroke="#77aadd" stroke-width="1.1" points="266.25,-36 126.5,-36 126.5,0 266.25,0 266.25,-36"/>
<text xml:space="preserve" text-anchor="start" x="134.5" y="-14.12" font-family="Helvetica,sans-Serif" font-size="10.00">agi_distributor.agi_distributor</text>
</g>
<!-- agi_distributor.cli -->
<g id="node3" class="node">
<title>agi_distributor.cli</title>
<polygon fill="#f8f9fb" stroke="#77aadd" stroke-width="1.1" points="386.75,-36 298,-36 298,0 386.75,0 386.75,-36"/>
<text xml:space="preserve" text-anchor="start" x="306" y="-14.12" font-family="Helvetica,sans-Serif" font-size="10.00">agi_distributor.cli</text>
</g>
</g>
</svg>
