<?xml version="1.0" encoding="UTF-8" standalone="no"?>
<!DOCTYPE svg PUBLIC "-//W3C//DTD SVG 1.1//EN"
 "http://www.w3.org/Graphics/SVG/1.1/DTD/svg11.dtd">
<!-- Generated by graphviz version 14.1.1 (20251213.1925)
 -->
<!-- Title: packages_mycode_worker Pages: 1 -->
<svg width="300pt" height="44pt"
 viewBox="0.00 0.00 300.00 44.00" xmlns="http://www.w3.org/2000/svg" xmlns:xlink="http://www.w3.org/1999/xlink">
<g id="graph0" class="graph" transform="scale(1 1) rotate(0) translate(4 40)">
<title>packages_mycode_worker</title>
<polygon fill="white" stroke="none" points="-4,4 -4,-40 295.62,-40 295.62,4 -4,4"/>
<!-- mycode_worker -->
<g id="node1" class="node">
<title>mycode_worker</title>
<polygon fill="#f8f9fb" stroke="#77aadd" stroke-width="1.1" points="85,-36 0,-36 0,0 85,0 85,-36"/>
<text xml:space="preserve" text-anchor="start" x="8" y="-14.12" font-family="Helvetica,sans-Serif" font-size="10.00">mycode_worker</text>
</g>
<!-- mycode_worker&#45;&gt;mycode_worker -->
<g id="edge1" class="edge">
<title>mycode_worker&#45;&gt;mycode_worker</title>
<path fill="none" stroke="#4a5568" stroke-width="1.05" d="M85.37,-24.71C102.57,-25.09 117,-22.85 117,-18 117,-14.25 108.37,-12.06 96.5,-11.44"/>
<polygon fill="#4a5568" stroke="#4a5568" stroke-width="1.05" points="86.65,-11.31 96.71,-6.94 90.37,-11.33 96.65,-11.41 96.65,-11.44 96.65,-11.46 90.37,-11.38 96.59,-15.94 86.65,-11.31"/>
</g>
<!-- mycode_worker.mycode_worker -->
<g id="node2" class="node">
<title>mycode_worker.mycode_worker</title>
<polygon fill="#f8f9fb" stroke="#77aadd" stroke-width="1.1" points="291.62,-36 135.38,-36 135.38,0 291.62,0 291.62,-36"/>
<text xml:space="preserve" text-anchor="start" x="143.38" y="-14.12" font-family="Helvetica,sans-Serif" font-size="10.00">mycode_worker.mycode_worker</text>
</g>
</g>
</svg>
