<?xml version="1.0" encoding="UTF-8" standalone="no"?>
<!DOCTYPE svg PUBLIC "-//W3C//DTD SVG 1.1//EN"
 "http://www.w3.org/Graphics/SVG/1.1/DTD/svg11.dtd">
<!-- Generated by graphviz version 13.1.1 (20250719.2154)
 -->
<!-- Title: packages_sb3_trainer_worker Pages: 1 -->
<svg width="878pt" height="44pt"
 viewBox="0.00 0.00 878.00 44.00" xmlns="http://www.w3.org/2000/svg" xmlns:xlink="http://www.w3.org/1999/xlink">
<g id="graph0" class="graph" transform="scale(1 1) rotate(0) translate(4 40)">
<title>packages_sb3_trainer_worker</title>
<polygon fill="white" stroke="none" points="-4,4 -4,-40 873.88,-40 873.88,4 -4,4"/>
<!-- sb3_trainer_worker -->
<g id="node1" class="node">
<title>sb3_trainer_worker</title>
<polygon fill="#f8f9fb" stroke="#77aadd" stroke-width="1.1" points="98.5,-36 0,-36 0,0 98.5,0 98.5,-36"/>
<text xml:space="preserve" text-anchor="start" x="8" y="-14.12" font-family="Helvetica,sans-Serif" font-size="10.00">sb3_trainer_worker</text>
</g>
<!-- sb3_trainer_worker&#45;&gt;sb3_trainer_worker -->
<g id="edge1" class="edge">
<title>sb3_trainer_worker&#45;&gt;sb3_trainer_worker</title>
<path fill="none" stroke="#4a5568" stroke-width="1.05" d="M98.84,-24.75C116.32,-24.85 130.5,-22.61 130.5,-18 130.5,-14.44 122.02,-12.29 110.08,-11.54"/>
<polygon fill="#4a5568" stroke="#4a5568" stroke-width="1.05" points="100.11,-11.29 110.23,-7.05 103.83,-11.36 110.11,-11.52 110.11,-11.54 110.11,-11.57 103.83,-11.41 110,-16.04 100.11,-11.29"/>
</g>
<!-- sb3_trainer_worker.post_install -->
<g id="node2" class="node">
<title>sb3_trainer_worker.post_install</title>
<polygon fill="#f8f9fb" stroke="#77aadd" stroke-width="1.1" points="298.38,-36 148.12,-36 148.12,0 298.38,0 298.38,-36"/>
<text xml:space="preserve" text-anchor="start" x="156.12" y="-14.12" font-family="Helvetica,sans-Serif" font-size="10.00">sb3_trainer_worker.post_install</text>
</g>
<!-- sb3_trainer_worker.pre_install -->
<g id="node3" class="node">
<title>sb3_trainer_worker.pre_install</title>
<polygon fill="#f8f9fb" stroke="#77aadd" stroke-width="1.1" points="475.75,-36 330.75,-36 330.75,0 475.75,0 475.75,-36"/>
<text xml:space="preserve" text-anchor="start" x="338.75" y="-14.12" font-family="Helvetica,sans-Serif" font-size="10.00">sb3_trainer_worker.pre_install</text>
</g>
<!-- sb3_trainer_worker.run&#45;all&#45;test -->
<g id="node4" class="node">
<title>sb3_trainer_worker.run&#45;all&#45;test</title>
<polygon fill="#f8f9fb" stroke="#77aadd" stroke-width="1.1" points="654.5,-36 508,-36 508,0 654.5,0 654.5,-36"/>
<text xml:space="preserve" text-anchor="start" x="516" y="-14.12" font-family="Helvetica,sans-Serif" font-size="10.00">sb3_trainer_worker.run&#45;all&#45;test</text>
</g>
<!-- sb3_trainer_worker.sb3_trainer_worker -->
<g id="node5" class="node">
<title>sb3_trainer_worker.sb3_trainer_worker</title>
<polygon fill="#f8f9fb" stroke="#77aadd" stroke-width="1.1" points="869.88,-36 686.62,-36 686.62,0 869.88,0 869.88,-36"/>
<text xml:space="preserve" text-anchor="start" x="694.62" y="-14.12" font-family="Helvetica,sans-Serif" font-size="10.00">sb3_trainer_worker.sb3_trainer_worker</text>
</g>
</g>
</svg>
