<?xml version="1.0" encoding="UTF-8" standalone="no"?>
<!DOCTYPE svg PUBLIC "-//W3C//DTD SVG 1.1//EN"
 "http://www.w3.org/Graphics/SVG/1.1/DTD/svg11.dtd">
<!-- Generated by graphviz version 14.0.0 (20250921.2048)
 -->
<!-- Title: packages_mycode Pages: 1 -->
<svg width="200pt" height="127pt"
 viewBox="0.00 0.00 200.00 127.00" xmlns="http://www.w3.org/2000/svg" xmlns:xlink="http://www.w3.org/1999/xlink">
<g id="graph0" class="graph" transform="scale(1 1) rotate(0) translate(4 123)">
<title>packages_mycode</title>
<polygon fill="white" stroke="none" points="-4,4 -4,-123 196,-123 196,4 -4,4"/>
<!-- mycode -->
<g id="node1" class="node">
<title>mycode</title>
<polygon fill="#f8f9fb" stroke="#77aadd" stroke-width="1.1" points="54,-119 0,-119 0,-83 54,-83 54,-119"/>
<text xml:space="preserve" text-anchor="start" x="9.75" y="-97.12" font-family="Helvetica,sans-Serif" font-size="10.00">mycode</text>
</g>
<!-- mycode&#45;&gt;mycode -->
<g id="edge1" class="edge">
<title>mycode&#45;&gt;mycode</title>
<path fill="none" stroke="#4a5568" stroke-width="1.05" d="M54.31,-115.59C70.64,-118.83 86,-113.97 86,-101 86,-91.07 76.99,-85.89 65.45,-85.47"/>
<polygon fill="#4a5568" stroke="#4a5568" stroke-width="1.05" points="55.59,-86.3 65.17,-80.97 59.29,-85.96 65.55,-85.43 65.55,-85.46 65.55,-85.48 59.29,-86.01 65.93,-89.94 55.59,-86.3"/>
</g>
<!-- mycode.mycode_args -->
<g id="node3" class="node">
<title>mycode.mycode_args</title>
<polygon fill="#f8f9fb" stroke="#77aadd" stroke-width="1.1" points="143,-36 31,-36 31,0 143,0 143,-36"/>
<text xml:space="preserve" text-anchor="start" x="39" y="-14.12" font-family="Helvetica,sans-Serif" font-size="10.00">mycode.mycode_args</text>
</g>
<!-- mycode&#45;&gt;mycode.mycode_args -->
<g id="edge2" class="edge">
<title>mycode&#45;&gt;mycode.mycode_args</title>
<path fill="none" stroke="#4a5568" stroke-width="1.05" d="M39.72,-82.82C47.78,-71.94 58.37,-57.66 67.47,-45.36"/>
<polygon fill="#4a5568" stroke="#4a5568" stroke-width="1.05" points="73.33,-37.46 70.99,-48.17 71.13,-40.47 67.39,-45.51 67.37,-45.5 67.35,-45.48 71.09,-40.44 63.76,-42.82 73.33,-37.46"/>
</g>
<!-- mycode.mycode -->
<g id="node2" class="node">
<title>mycode.mycode</title>
<polygon fill="#f8f9fb" stroke="#77aadd" stroke-width="1.1" points="192,-119 104,-119 104,-83 192,-83 192,-119"/>
<text xml:space="preserve" text-anchor="start" x="112" y="-97.12" font-family="Helvetica,sans-Serif" font-size="10.00">mycode.mycode</text>
</g>
<!-- mycode.mycode&#45;&gt;mycode.mycode_args -->
<g id="edge3" class="edge">
<title>mycode.mycode&#45;&gt;mycode.mycode_args</title>
<path fill="none" stroke="#4a5568" stroke-width="1.05" d="M135.06,-82.82C126.87,-71.94 116.11,-57.66 106.85,-45.36"/>
<polygon fill="#4a5568" stroke="#4a5568" stroke-width="1.05" points="100.9,-37.45 110.51,-42.74 103.16,-40.41 106.93,-45.43 106.91,-45.44 106.89,-45.46 103.12,-40.44 103.32,-48.15 100.9,-37.45"/>
</g>
</g>
</svg>
