<?xml version="1.0" encoding="UTF-8" standalone="no"?>
<!DOCTYPE svg PUBLIC "-//W3C//DTD SVG 1.1//EN"
 "http://www.w3.org/Graphics/SVG/1.1/DTD/svg11.dtd">
<!-- Generated by graphviz version 13.1.1 (20250719.2154)
 -->
<!-- Title: packages_flight Pages: 1 -->
<svg width="247pt" height="210pt"
 viewBox="0.00 0.00 247.00 210.00" xmlns="http://www.w3.org/2000/svg" xmlns:xlink="http://www.w3.org/1999/xlink">
<g id="graph0" class="graph" transform="scale(1 1) rotate(0) translate(4 206)">
<title>packages_flight</title>
<polygon fill="white" stroke="none" points="-4,4 -4,-206 243.38,-206 243.38,4 -4,4"/>
<!-- flight -->
<g id="node1" class="node">
<title>flight</title>
<polygon fill="#f8f9fb" stroke="#77aadd" stroke-width="1.1" points="110.88,-202 56.88,-202 56.88,-166 110.88,-166 110.88,-202"/>
<text xml:space="preserve" text-anchor="start" x="73.38" y="-180.12" font-family="Helvetica,sans-Serif" font-size="10.00">flight</text>
</g>
<!-- flight&#45;&gt;flight -->
<g id="edge1" class="edge">
<title>flight&#45;&gt;flight</title>
<path fill="none" stroke="#4a5568" stroke-width="1.05" d="M111.19,-198.59C127.51,-201.83 142.88,-196.97 142.88,-184 142.88,-174.07 133.87,-168.89 122.32,-168.47"/>
<polygon fill="#4a5568" stroke="#4a5568" stroke-width="1.05" points="112.46,-169.3 122.04,-163.97 116.17,-168.96 122.42,-168.43 122.42,-168.46 122.43,-168.48 116.17,-169.01 122.8,-172.94 112.46,-169.3"/>
</g>
<!-- flight.app_args -->
<g id="node2" class="node">
<title>flight.app_args</title>
<polygon fill="#f8f9fb" stroke="#77aadd" stroke-width="1.1" points="79.75,-119 0,-119 0,-83 79.75,-83 79.75,-119"/>
<text xml:space="preserve" text-anchor="start" x="8" y="-97.12" font-family="Helvetica,sans-Serif" font-size="10.00">flight.app_args</text>
</g>
<!-- flight&#45;&gt;flight.app_args -->
<g id="edge2" class="edge">
<title>flight&#45;&gt;flight.app_args</title>
<path fill="none" stroke="#4a5568" stroke-width="1.05" d="M74.54,-165.82C68.75,-155.16 61.18,-141.22 54.59,-129.08"/>
<polygon fill="#4a5568" stroke="#4a5568" stroke-width="1.05" points="49.96,-120.56 58.68,-127.2 51.75,-123.81 54.75,-129.33 54.73,-129.34 54.71,-129.36 51.71,-123.84 50.77,-131.49 49.96,-120.56"/>
</g>
<!-- flight.flight_args -->
<g id="node4" class="node">
<title>flight.flight_args</title>
<polygon fill="#f8f9fb" stroke="#77aadd" stroke-width="1.1" points="171.38,-36 86.38,-36 86.38,0 171.38,0 171.38,-36"/>
<text xml:space="preserve" text-anchor="start" x="94.38" y="-14.12" font-family="Helvetica,sans-Serif" font-size="10.00">flight.flight_args</text>
</g>
<!-- flight&#45;&gt;flight.flight_args -->
<g id="edge3" class="edge">
<title>flight&#45;&gt;flight.flight_args</title>
<path fill="none" stroke="#4a5568" stroke-width="1.05" d="M88.61,-165.76C96.35,-137.53 111.81,-81.21 121.16,-47.13"/>
<polygon fill="#4a5568" stroke="#4a5568" stroke-width="1.05" points="123.73,-37.74 125.43,-48.57 122.77,-41.33 121.11,-47.39 121.09,-47.38 121.06,-47.37 122.73,-41.32 116.75,-46.19 123.73,-37.74"/>
</g>
<!-- flight.app_args&#45;&gt;flight.flight_args -->
<g id="edge4" class="edge">
<title>flight.app_args&#45;&gt;flight.flight_args</title>
<path fill="none" stroke="#4a5568" stroke-width="1.05" d="M58.75,-82.82C71.17,-71.52 87.64,-56.53 101.49,-43.92"/>
<polygon fill="#4a5568" stroke="#4a5568" stroke-width="1.05" points="108.77,-37.29 104.41,-47.35 106.04,-39.82 101.4,-44.04 101.38,-44.02 101.36,-44.01 106.01,-39.78 98.35,-40.7 108.77,-37.29"/>
</g>
<!-- flight.flight -->
<g id="node3" class="node">
<title>flight.flight</title>
<polygon fill="#f8f9fb" stroke="#77aadd" stroke-width="1.1" points="239.38,-119 178.38,-119 178.38,-83 239.38,-83 239.38,-119"/>
<text xml:space="preserve" text-anchor="start" x="186.38" y="-97.12" font-family="Helvetica,sans-Serif" font-size="10.00">flight.flight</text>
</g>
<!-- flight.flight&#45;&gt;flight.flight_args -->
<g id="edge5" class="edge">
<title>flight.flight&#45;&gt;flight.flight_args</title>
<path fill="none" stroke="#4a5568" stroke-width="1.05" d="M191.91,-82.82C180.85,-71.62 166.22,-56.81 153.84,-44.28"/>
<polygon fill="#4a5568" stroke="#4a5568" stroke-width="1.05" points="146.99,-37.34 157.22,-41.3 149.62,-39.97 154.04,-44.44 154.02,-44.46 154,-44.48 149.59,-40.01 150.82,-47.62 146.99,-37.34"/>
</g>
</g>
</svg>
