<?xml version="1.0" encoding="UTF-8" standalone="no"?>
<!DOCTYPE svg PUBLIC "-//W3C//DTD SVG 1.1//EN"
 "http://www.w3.org/Graphics/SVG/1.1/DTD/svg11.dtd">
<!-- Generated by graphviz version 13.1.1 (20250719.2154)
 -->
<!-- Title: packages_link_sim Pages: 1 -->
<svg width="224pt" height="127pt"
 viewBox="0.00 0.00 224.00 127.00" xmlns="http://www.w3.org/2000/svg" xmlns:xlink="http://www.w3.org/1999/xlink">
<g id="graph0" class="graph" transform="scale(1 1) rotate(0) translate(4 123)">
<title>packages_link_sim</title>
<polygon fill="white" stroke="none" points="-4,4 -4,-123 219.88,-123 219.88,4 -4,4"/>
<!-- link_sim -->
<g id="node1" class="node">
<title>link_sim</title>
<polygon fill="#f8f9fb" stroke="#77aadd" stroke-width="1.1" points="74.38,-119 20.38,-119 20.38,-83 74.38,-83 74.38,-119"/>
<text xml:space="preserve" text-anchor="start" x="29.38" y="-97.12" font-family="Helvetica,sans-Serif" font-size="10.00">link_sim</text>
</g>
<!-- link_sim&#45;&gt;link_sim -->
<g id="edge1" class="edge">
<title>link_sim&#45;&gt;link_sim</title>
<path fill="none" stroke="#4a5568" stroke-width="1.05" d="M74.69,-115.59C91.01,-118.83 106.38,-113.97 106.38,-101 106.38,-91.07 97.37,-85.89 85.82,-85.47"/>
<polygon fill="#4a5568" stroke="#4a5568" stroke-width="1.05" points="75.96,-86.3 85.54,-80.97 79.67,-85.96 85.92,-85.43 85.92,-85.46 85.93,-85.48 79.67,-86.01 86.3,-89.94 75.96,-86.3"/>
</g>
<!-- link_sim.app_args -->
<g id="node2" class="node">
<title>link_sim.app_args</title>
<polygon fill="#f8f9fb" stroke="#77aadd" stroke-width="1.1" points="94.75,-36 0,-36 0,0 94.75,0 94.75,-36"/>
<text xml:space="preserve" text-anchor="start" x="8" y="-14.12" font-family="Helvetica,sans-Serif" font-size="10.00">link_sim.app_args</text>
</g>
<!-- link_sim&#45;&gt;link_sim.app_args -->
<g id="edge2" class="edge">
<title>link_sim&#45;&gt;link_sim.app_args</title>
<path fill="none" stroke="#4a5568" stroke-width="1.05" d="M47.38,-82.82C47.38,-72.58 47.38,-59.33 47.38,-47.55"/>
<polygon fill="#4a5568" stroke="#4a5568" stroke-width="1.05" points="47.38,-37.71 51.88,-47.71 47.4,-41.43 47.4,-47.71 47.38,-47.71 47.35,-47.71 47.35,-41.43 42.88,-47.71 47.38,-37.71"/>
</g>
<!-- link_sim.link_sim -->
<g id="node3" class="node">
<title>link_sim.link_sim</title>
<polygon fill="#f8f9fb" stroke="#77aadd" stroke-width="1.1" points="215.88,-119 124.88,-119 124.88,-83 215.88,-83 215.88,-119"/>
<text xml:space="preserve" text-anchor="start" x="132.88" y="-97.12" font-family="Helvetica,sans-Serif" font-size="10.00">link_sim.link_sim</text>
</g>
</g>
</svg>
