<?xml version="1.0" encoding="UTF-8" standalone="no"?>
<!DOCTYPE svg PUBLIC "-//W3C//DTD SVG 1.1//EN"
 "http://www.w3.org/Graphics/SVG/1.1/DTD/svg11.dtd">
<!-- Generated by graphviz version 14.0.0 (20250921.2048)
 -->
<!-- Title: packages_flight_trajectory Pages: 1 -->
<svg width="292pt" height="44pt"
 viewBox="0.00 0.00 292.00 44.00" xmlns="http://www.w3.org/2000/svg" xmlns:xlink="http://www.w3.org/1999/xlink">
<g id="graph0" class="graph" transform="scale(1 1) rotate(0) translate(4 40)">
<title>packages_flight_trajectory</title>
<polygon fill="white" stroke="none" points="-4,4 -4,-40 287.88,-40 287.88,4 -4,4"/>
<!-- flight_trajectory -->
<g id="node1" class="node">
<title>flight_trajectory</title>
<polygon fill="#f8f9fb" stroke="#77aadd" stroke-width="1.1" points="82.75,-36 0,-36 0,0 82.75,0 82.75,-36"/>
<text xml:space="preserve" text-anchor="start" x="8" y="-14.12" font-family="Helvetica,sans-Serif" font-size="10.00">flight_trajectory</text>
</g>
<!-- flight_trajectory&#45;&gt;flight_trajectory -->
<g id="edge1" class="edge">
<title>flight_trajectory&#45;&gt;flight_trajectory</title>
<path fill="none" stroke="#4a5568" stroke-width="1.05" d="M83.23,-24.7C100.33,-25.12 114.75,-22.89 114.75,-18 114.75,-14.22 106.12,-12.03 94.3,-11.42"/>
<polygon fill="#4a5568" stroke="#4a5568" stroke-width="1.05" points="84.51,-11.31 94.56,-6.93 88.23,-11.33 94.51,-11.4 94.51,-11.43 94.51,-11.45 88.23,-11.38 94.46,-15.93 84.51,-11.31"/>
</g>
<!-- flight_trajectory.flight_trajectory -->
<g id="node2" class="node">
<title>flight_trajectory.flight_trajectory</title>
<polygon fill="#f8f9fb" stroke="#77aadd" stroke-width="1.1" points="283.88,-36 132.88,-36 132.88,0 283.88,0 283.88,-36"/>
<text xml:space="preserve" text-anchor="start" x="140.88" y="-14.12" font-family="Helvetica,sans-Serif" font-size="10.00">flight_trajectory.flight_trajectory</text>
</g>
</g>
</svg>
