<?xml version="1.0" encoding="UTF-8" standalone="no"?>
<!DOCTYPE svg PUBLIC "-//W3C//DTD SVG 1.1//EN"
 "http://www.w3.org/Graphics/SVG/1.1/DTD/svg11.dtd">
<!-- Generated by graphviz version 14.0.2 (20251019.1705)
 -->
<!-- Title: packages_flight_trajectory Pages: 1 -->
<svg width="292pt" height="127pt"
 viewBox="0.00 0.00 292.00 127.00" xmlns="http://www.w3.org/2000/svg" xmlns:xlink="http://www.w3.org/1999/xlink">
<g id="graph0" class="graph" transform="scale(1 1) rotate(0) translate(4 123)">
<title>packages_flight_trajectory</title>
<polygon fill="white" stroke="none" points="-4,4 -4,-123 287.88,-123 287.88,4 -4,4"/>
<!-- flight_trajectory -->
<g id="node1" class="node">
<title>flight_trajectory</title>
<polygon fill="#f8f9fb" stroke="#77aadd" stroke-width="1.1" points="82.75,-119 0,-119 0,-83 82.75,-83 82.75,-119"/>
<text xml:space="preserve" text-anchor="start" x="8" y="-97.12" font-family="Helvetica,sans-Serif" font-size="10.00">flight_trajectory</text>
</g>
<!-- flight_trajectory&#45;&gt;flight_trajectory -->
<g id="edge1" class="edge">
<title>flight_trajectory&#45;&gt;flight_trajectory</title>
<path fill="none" stroke="#4a5568" stroke-width="1.05" d="M83.23,-116.45C100.33,-117.42 114.75,-112.27 114.75,-101 114.75,-92.29 106.12,-87.23 94.3,-85.84"/>
<polygon fill="#4a5568" stroke="#4a5568" stroke-width="1.05" points="84.51,-85.59 94.62,-81.34 88.23,-85.66 94.51,-85.82 94.51,-85.84 94.51,-85.87 88.23,-85.71 94.39,-90.34 84.51,-85.59"/>
</g>
<!-- flight_trajectory.flight_trajectory_args -->
<g id="node3" class="node">
<title>flight_trajectory.flight_trajectory_args</title>
<polygon fill="#f8f9fb" stroke="#77aadd" stroke-width="1.1" points="211.88,-36 36.88,-36 36.88,0 211.88,0 211.88,-36"/>
<text xml:space="preserve" text-anchor="start" x="44.88" y="-14.12" font-family="Helvetica,sans-Serif" font-size="10.00">flight_trajectory.flight_trajectory_args</text>
</g>
<!-- flight_trajectory&#45;&gt;flight_trajectory.flight_trajectory_args -->
<g id="edge2" class="edge">
<title>flight_trajectory&#45;&gt;flight_trajectory.flight_trajectory_args</title>
<path fill="none" stroke="#4a5568" stroke-width="1.05" d="M58.98,-82.82C70.45,-71.62 85.63,-56.81 98.47,-44.28"/>
<polygon fill="#4a5568" stroke="#4a5568" stroke-width="1.05" points="105.6,-37.33 101.58,-47.53 102.95,-39.94 98.46,-44.33 98.44,-44.31 98.42,-44.29 102.92,-39.91 95.3,-41.09 105.6,-37.33"/>
</g>
<!-- flight_trajectory.flight_trajectory -->
<g id="node2" class="node">
<title>flight_trajectory.flight_trajectory</title>
<polygon fill="#f8f9fb" stroke="#77aadd" stroke-width="1.1" points="283.88,-119 132.88,-119 132.88,-83 283.88,-83 283.88,-119"/>
<text xml:space="preserve" text-anchor="start" x="140.88" y="-97.12" font-family="Helvetica,sans-Serif" font-size="10.00">flight_trajectory.flight_trajectory</text>
</g>
<!-- flight_trajectory.flight_trajectory&#45;&gt;flight_trajectory.flight_trajectory_args -->
<g id="edge3" class="edge">
<title>flight_trajectory.flight_trajectory&#45;&gt;flight_trajectory.flight_trajectory_args</title>
<path fill="none" stroke="#4a5568" stroke-width="1.05" d="M190.56,-82.82C178.84,-71.52 163.3,-56.53 150.22,-43.92"/>
<polygon fill="#4a5568" stroke="#4a5568" stroke-width="1.05" points="143.37,-37.32 153.7,-41.02 146.07,-39.89 150.59,-44.24 150.57,-44.26 150.56,-44.28 146.04,-39.92 147.45,-47.5 143.37,-37.32"/>
</g>
</g>
</svg>
