<?xml version="1.0" encoding="UTF-8" standalone="no"?>
<!DOCTYPE svg PUBLIC "-//W3C//DTD SVG 1.1//EN"
 "http://www.w3.org/Graphics/SVG/1.1/DTD/svg11.dtd">
<!-- Generated by graphviz version 14.0.0 (20250921.2048)
 -->
<!-- Title: packages_sat_trajectory Pages: 1 -->
<svg width="270pt" height="44pt"
 viewBox="0.00 0.00 270.00 44.00" xmlns="http://www.w3.org/2000/svg" xmlns:xlink="http://www.w3.org/1999/xlink">
<g id="graph0" class="graph" transform="scale(1 1) rotate(0) translate(4 40)">
<title>packages_sat_trajectory</title>
<polygon fill="white" stroke="none" points="-4,4 -4,-40 265.62,-40 265.62,4 -4,4"/>
<!-- sat_trajectory -->
<g id="node1" class="node">
<title>sat_trajectory</title>
<polygon fill="#f8f9fb" stroke="#77aadd" stroke-width="1.1" points="75.25,-36 0,-36 0,0 75.25,0 75.25,-36"/>
<text xml:space="preserve" text-anchor="start" x="8" y="-14.12" font-family="Helvetica,sans-Serif" font-size="10.00">sat_trajectory</text>
</g>
<!-- sat_trajectory&#45;&gt;sat_trajectory -->
<g id="edge1" class="edge">
<title>sat_trajectory&#45;&gt;sat_trajectory</title>
<path fill="none" stroke="#4a5568" stroke-width="1.05" d="M75.58,-24.64C92.56,-25.28 107.25,-23.06 107.25,-18 107.25,-14.08 98.46,-11.87 86.63,-11.36"/>
<polygon fill="#4a5568" stroke="#4a5568" stroke-width="1.05" points="76.86,-11.36 86.86,-6.86 80.58,-11.33 86.86,-11.34 86.86,-11.36 86.86,-11.39 80.58,-11.38 86.86,-15.86 76.86,-11.36"/>
</g>
<!-- sat_trajectory.sat_trajectory -->
<g id="node2" class="node">
<title>sat_trajectory.sat_trajectory</title>
<polygon fill="#f8f9fb" stroke="#77aadd" stroke-width="1.1" points="261.62,-36 125.62,-36 125.62,0 261.62,0 261.62,-36"/>
<text xml:space="preserve" text-anchor="start" x="133.62" y="-14.12" font-family="Helvetica,sans-Serif" font-size="10.00">sat_trajectory.sat_trajectory</text>
</g>
</g>
</svg>
