<?xml version="1.0" encoding="UTF-8" standalone="no"?>
<!DOCTYPE svg PUBLIC "-//W3C//DTD SVG 1.1//EN"
 "http://www.w3.org/Graphics/SVG/1.1/DTD/svg11.dtd">
<!-- Generated by graphviz version 14.0.2 (20251019.1705)
 -->
<!-- Title: packages_flight_trajectory Pages: 1 -->
<svg width="448pt" height="127pt"
 viewBox="0.00 0.00 448.00 127.00" xmlns="http://www.w3.org/2000/svg" xmlns:xlink="http://www.w3.org/1999/xlink">
<g id="graph0" class="graph" transform="scale(1 1) rotate(0) translate(4 123)">
<title>packages_flight_trajectory</title>
<polygon fill="white" stroke="none" points="-4,4 -4,-123 443.88,-123 443.88,4 -4,4"/>
<!-- flight_trajectory -->
<g id="node1" class="node">
<title>flight_trajectory</title>
<polygon fill="#f8f9fb" stroke="#77aadd" stroke-width="1.1" points="82.75,-119 0,-119 0,-83 82.75,-83 82.75,-119"/>
<text xml:space="preserve" text-anchor="start" x="8" y="-97.12" font-family="Helvetica,sans-Serif" font-size="10.00">flight_trajectory</text>
</g>
<!-- flight_trajectory&#45;&gt;flight_trajectory -->
<g id="edge1" class="edge">
<title>flight_trajectory&#45;&gt;flight_trajectory</title>
<path fill="none" stroke="#4a5568" stroke-width="1.05" d="M83.23,-116.45C100.33,-117.42 114.75,-112.27 114.75,-101 114.75,-92.29 106.12,-87.23 94.3,-85.84"/>
<polygon fill="#4a5568" stroke="#4a5568" stroke-width="1.05" points="84.51,-85.59 94.62,-81.34 88.23,-85.66 94.51,-85.82 94.51,-85.84 94.51,-85.87 88.23,-85.71 94.39,-90.34 84.51,-85.59"/>
</g>
<!-- flight_trajectory.flight_trajectory_args -->
<g id="node4" class="node">
<title>flight_trajectory.flight_trajectory_args</title>
<polygon fill="#f8f9fb" stroke="#77aadd" stroke-width="1.1" points="281.88,-36 106.88,-36 106.88,0 281.88,0 281.88,-36"/>
<text xml:space="preserve" text-anchor="start" x="114.88" y="-14.12" font-family="Helvetica,sans-Serif" font-size="10.00">flight_trajectory.flight_trajectory_args</text>
</g>
<!-- flight_trajectory&#45;&gt;flight_trajectory.flight_trajectory_args -->
<g id="edge2" class="edge">
<title>flight_trajectory&#45;&gt;flight_trajectory.flight_trajectory_args</title>
<path fill="none" stroke="#4a5568" stroke-width="1.05" d="M74.2,-82.62C96.81,-70.65 127.08,-54.63 151.58,-41.66"/>
<polygon fill="#4a5568" stroke="#4a5568" stroke-width="1.05" points="160.21,-37.09 153.48,-45.74 156.94,-38.85 151.39,-41.79 151.37,-41.76 151.36,-41.74 156.91,-38.8 149.27,-37.79 160.21,-37.09"/>
</g>
<!-- flight_trajectory.app_args -->
<g id="node2" class="node">
<title>flight_trajectory.app_args</title>
<polygon fill="#f8f9fb" stroke="#77aadd" stroke-width="1.1" points="256.38,-119 132.38,-119 132.38,-83 256.38,-83 256.38,-119"/>
<text xml:space="preserve" text-anchor="start" x="140.38" y="-97.12" font-family="Helvetica,sans-Serif" font-size="10.00">flight_trajectory.app_args</text>
</g>
<!-- flight_trajectory.app_args&#45;&gt;flight_trajectory.flight_trajectory_args -->
<g id="edge3" class="edge">
<title>flight_trajectory.app_args&#45;&gt;flight_trajectory.flight_trajectory_args</title>
<path fill="none" stroke="#4a5568" stroke-width="1.05" d="M194.38,-82.82C194.38,-72.58 194.38,-59.33 194.38,-47.55"/>
<polygon fill="#4a5568" stroke="#4a5568" stroke-width="1.05" points="194.38,-37.71 198.88,-47.71 194.4,-41.43 194.4,-47.71 194.38,-47.71 194.35,-47.71 194.35,-41.43 189.88,-47.71 194.38,-37.71"/>
</g>
<!-- flight_trajectory.flight_trajectory -->
<g id="node3" class="node">
<title>flight_trajectory.flight_trajectory</title>
<polygon fill="#f8f9fb" stroke="#77aadd" stroke-width="1.1" points="439.88,-119 288.88,-119 288.88,-83 439.88,-83 439.88,-119"/>
<text xml:space="preserve" text-anchor="start" x="296.88" y="-97.12" font-family="Helvetica,sans-Serif" font-size="10.00">flight_trajectory.flight_trajectory</text>
</g>
<!-- flight_trajectory.flight_trajectory&#45;&gt;flight_trajectory.flight_trajectory_args -->
<g id="edge4" class="edge">
<title>flight_trajectory.flight_trajectory&#45;&gt;flight_trajectory.flight_trajectory_args</title>
<path fill="none" stroke="#4a5568" stroke-width="1.05" d="M327.91,-82.62C302.56,-70.55 268.55,-54.34 241.2,-41.31"/>
<polygon fill="#4a5568" stroke="#4a5568" stroke-width="1.05" points="232.23,-37.04 243.2,-37.28 235.6,-38.62 241.27,-41.32 241.26,-41.34 241.25,-41.36 235.58,-38.66 239.32,-45.4 232.23,-37.04"/>
</g>
</g>
</svg>
