<?xml version="1.0" encoding="UTF-8" standalone="no"?>
<!DOCTYPE svg PUBLIC "-//W3C//DTD SVG 1.1//EN"
 "http://www.w3.org/Graphics/SVG/1.1/DTD/svg11.dtd">
<!-- Generated by graphviz version 14.0.0 (20250921.2048)
 -->
<!-- Title: packages_agi_env Pages: 1 -->
<svg width="1300pt" height="44pt"
 viewBox="0.00 0.00 1300.00 44.00" xmlns="http://www.w3.org/2000/svg" xmlns:xlink="http://www.w3.org/1999/xlink">
<g id="graph0" class="graph" transform="scale(1 1) rotate(0) translate(4 40)">
<title>packages_agi_env</title>
<polygon fill="white" stroke="none" points="-4,4 -4,-40 1296,-40 1296,4 -4,4"/>
<!-- agilab.core.agi&#45;env.src.agi_env -->
<g id="node1" class="node">
<title>agilab.core.agi&#45;env.src.agi_env</title>
<polygon fill="#f8f9fb" stroke="#77aadd" stroke-width="1.1" points="149.5,-36 0,-36 0,0 149.5,0 149.5,-36"/>
<text xml:space="preserve" text-anchor="start" x="8" y="-14.12" font-family="Helvetica,sans-Serif" font-size="10.00">agilab.core.agi&#45;env.src.agi_env</text>
</g>
<!-- agilab.core.agi&#45;env.src.agi_env&#45;&gt;agilab.core.agi&#45;env.src.agi_env -->
<g id="edge1" class="edge">
<title>agilab.core.agi&#45;env.src.agi_env&#45;&gt;agilab.core.agi&#45;env.src.agi_env</title>
<path fill="none" stroke="#4a5568" stroke-width="1.05" d="M149.57,-24.64C167.88,-24.15 181.5,-21.94 181.5,-18 181.5,-14.92 173.19,-12.9 160.82,-11.93"/>
<polygon fill="#4a5568" stroke="#4a5568" stroke-width="1.05" points="150.85,-11.42 161.07,-7.43 154.57,-11.58 160.84,-11.9 160.84,-11.93 160.84,-11.95 154.57,-11.63 160.61,-16.42 150.85,-11.42"/>
</g>
<!-- agilab.core.agi&#45;env.src.agi_env.agi_env -->
<g id="node2" class="node">
<title>agilab.core.agi&#45;env.src.agi_env.agi_env</title>
<polygon fill="#f8f9fb" stroke="#77aadd" stroke-width="1.1" points="384.12,-36 199.38,-36 199.38,0 384.12,0 384.12,-36"/>
<text xml:space="preserve" text-anchor="start" x="207.38" y="-14.12" font-family="Helvetica,sans-Serif" font-size="10.00">agilab.core.agi&#45;env.src.agi_env.agi_env</text>
</g>
<!-- agilab.core.agi&#45;env.src.agi_env.agi_logger -->
<g id="node3" class="node">
<title>agilab.core.agi&#45;env.src.agi_env.agi_logger</title>
<polygon fill="#f8f9fb" stroke="#77aadd" stroke-width="1.1" points="611.38,-36 416.12,-36 416.12,0 611.38,0 611.38,-36"/>
<text xml:space="preserve" text-anchor="start" x="424.12" y="-14.12" font-family="Helvetica,sans-Serif" font-size="10.00">agilab.core.agi&#45;env.src.agi_env.agi_logger</text>
</g>
<!-- agilab.core.agi&#45;env.src.agi_env.app_args -->
<g id="node4" class="node">
<title>agilab.core.agi&#45;env.src.agi_env.app_args</title>
<polygon fill="#f8f9fb" stroke="#77aadd" stroke-width="1.1" points="834.12,-36 643.38,-36 643.38,0 834.12,0 834.12,-36"/>
<text xml:space="preserve" text-anchor="start" x="651.38" y="-14.12" font-family="Helvetica,sans-Serif" font-size="10.00">agilab.core.agi&#45;env.src.agi_env.app_args</text>
</g>
<!-- agilab.core.agi&#45;env.src.agi_env.pagelib -->
<g id="node5" class="node">
<title>agilab.core.agi&#45;env.src.agi_env.pagelib</title>
<polygon fill="#f8f9fb" stroke="#77aadd" stroke-width="1.1" points="1047.62,-36 865.88,-36 865.88,0 1047.62,0 1047.62,-36"/>
<text xml:space="preserve" text-anchor="start" x="873.88" y="-14.12" font-family="Helvetica,sans-Serif" font-size="10.00">agilab.core.agi&#45;env.src.agi_env.pagelib</text>
</g>
<!-- agilab.core.agi&#45;env.src.agi_env.streamlit_args -->
<g id="node6" class="node">
<title>agilab.core.agi&#45;env.src.agi_env.streamlit_args</title>
<polygon fill="#f8f9fb" stroke="#77aadd" stroke-width="1.1" points="1292,-36 1079.5,-36 1079.5,0 1292,0 1292,-36"/>
<text xml:space="preserve" text-anchor="start" x="1087.5" y="-14.12" font-family="Helvetica,sans-Serif" font-size="10.00">agilab.core.agi&#45;env.src.agi_env.streamlit_args</text>
</g>
</g>
</svg>
