<?xml version="1.0" encoding="UTF-8" standalone="no"?>
<!DOCTYPE svg PUBLIC "-//W3C//DTD SVG 1.1//EN"
 "http://www.w3.org/Graphics/SVG/1.1/DTD/svg11.dtd">
<!-- Generated by graphviz version 14.0.0 (20250921.2048)
 -->
<!-- Title: packages_link_sim Pages: 1 -->
<svg width="204pt" height="44pt"
 viewBox="0.00 0.00 204.00 44.00" xmlns="http://www.w3.org/2000/svg" xmlns:xlink="http://www.w3.org/1999/xlink">
<g id="graph0" class="graph" transform="scale(1 1) rotate(0) translate(4 40)">
<title>packages_link_sim</title>
<polygon fill="white" stroke="none" points="-4,4 -4,-40 199.5,-40 199.5,4 -4,4"/>
<!-- link_sim -->
<g id="node1" class="node">
<title>link_sim</title>
<polygon fill="#f8f9fb" stroke="#77aadd" stroke-width="1.1" points="54,-36 0,-36 0,0 54,0 54,-36"/>
<text xml:space="preserve" text-anchor="start" x="9" y="-14.12" font-family="Helvetica,sans-Serif" font-size="10.00">link_sim</text>
</g>
<!-- link_sim&#45;&gt;link_sim -->
<g id="edge1" class="edge">
<title>link_sim&#45;&gt;link_sim</title>
<path fill="none" stroke="#4a5568" stroke-width="1.05" d="M54.31,-24.33C70.64,-25.73 86,-23.62 86,-18 86,-13.69 76.99,-11.45 65.45,-11.26"/>
<polygon fill="#4a5568" stroke="#4a5568" stroke-width="1.05" points="55.59,-11.62 65.42,-6.76 59.31,-11.46 65.58,-11.23 65.58,-11.26 65.58,-11.28 59.31,-11.51 65.75,-15.75 55.59,-11.62"/>
</g>
<!-- link_sim.link_sim -->
<g id="node2" class="node">
<title>link_sim.link_sim</title>
<polygon fill="#f8f9fb" stroke="#77aadd" stroke-width="1.1" points="195.5,-36 104.5,-36 104.5,0 195.5,0 195.5,-36"/>
<text xml:space="preserve" text-anchor="start" x="112.5" y="-14.12" font-family="Helvetica,sans-Serif" font-size="10.00">link_sim.link_sim</text>
</g>
</g>
</svg>
