<?xml version="1.0" encoding="UTF-8" standalone="no"?>
<!DOCTYPE svg PUBLIC "-//W3C//DTD SVG 1.1//EN"
 "http://www.w3.org/Graphics/SVG/1.1/DTD/svg11.dtd">
<!-- Generated by graphviz version 14.1.0 (20251206.1807)
 -->
<!-- Title: packages_flight Pages: 1 -->
<svg width="174pt" height="127pt"
 viewBox="0.00 0.00 174.00 127.00" xmlns="http://www.w3.org/2000/svg" xmlns:xlink="http://www.w3.org/1999/xlink">
<g id="graph0" class="graph" transform="scale(1 1) rotate(0) translate(4 123)">
<title>packages_flight</title>
<polygon fill="white" stroke="none" points="-4,4 -4,-123 169.5,-123 169.5,4 -4,4"/>
<!-- flight -->
<g id="node1" class="node">
<title>flight</title>
<polygon fill="#f8f9fb" stroke="#77aadd" stroke-width="1.1" points="54,-119 0,-119 0,-83 54,-83 54,-119"/>
<text xml:space="preserve" text-anchor="start" x="16.5" y="-97.12" font-family="Helvetica,sans-Serif" font-size="10.00">flight</text>
</g>
<!-- flight&#45;&gt;flight -->
<g id="edge1" class="edge">
<title>flight&#45;&gt;flight</title>
<path fill="none" stroke="#4a5568" stroke-width="1.05" d="M54.31,-115.59C70.64,-118.83 86,-113.97 86,-101 86,-91.07 76.99,-85.89 65.45,-85.47"/>
<polygon fill="#4a5568" stroke="#4a5568" stroke-width="1.05" points="55.59,-86.3 65.17,-80.97 59.29,-85.96 65.55,-85.43 65.55,-85.46 65.55,-85.48 59.29,-86.01 65.93,-89.94 55.59,-86.3"/>
</g>
<!-- flight.flight_args -->
<g id="node3" class="node">
<title>flight.flight_args</title>
<polygon fill="#f8f9fb" stroke="#77aadd" stroke-width="1.1" points="123.5,-36 38.5,-36 38.5,0 123.5,0 123.5,-36"/>
<text xml:space="preserve" text-anchor="start" x="46.5" y="-14.12" font-family="Helvetica,sans-Serif" font-size="10.00">flight.flight_args</text>
</g>
<!-- flight&#45;&gt;flight.flight_args -->
<g id="edge2" class="edge">
<title>flight&#45;&gt;flight.flight_args</title>
<path fill="none" stroke="#4a5568" stroke-width="1.05" d="M38.45,-82.82C45.63,-72.05 55.04,-57.94 63.19,-45.72"/>
<polygon fill="#4a5568" stroke="#4a5568" stroke-width="1.05" points="68.67,-37.5 66.87,-48.31 66.63,-40.61 63.14,-45.83 63.12,-45.82 63.1,-45.8 66.58,-40.58 59.38,-43.32 68.67,-37.5"/>
</g>
<!-- flight.flight -->
<g id="node2" class="node">
<title>flight.flight</title>
<polygon fill="#f8f9fb" stroke="#77aadd" stroke-width="1.1" points="165.5,-119 104.5,-119 104.5,-83 165.5,-83 165.5,-119"/>
<text xml:space="preserve" text-anchor="start" x="112.5" y="-97.12" font-family="Helvetica,sans-Serif" font-size="10.00">flight.flight</text>
</g>
<!-- flight.flight&#45;&gt;flight.flight_args -->
<g id="edge3" class="edge">
<title>flight.flight&#45;&gt;flight.flight_args</title>
<path fill="none" stroke="#4a5568" stroke-width="1.05" d="M123.55,-82.82C116.37,-72.05 106.96,-57.94 98.81,-45.72"/>
<polygon fill="#4a5568" stroke="#4a5568" stroke-width="1.05" points="93.33,-37.5 102.62,-43.32 95.42,-40.58 98.9,-45.8 98.88,-45.82 98.86,-45.83 95.37,-40.61 95.13,-48.31 93.33,-37.5"/>
</g>
</g>
</svg>
