<?xml version="1.0" encoding="UTF-8" standalone="no"?>
<!DOCTYPE svg PUBLIC "-//W3C//DTD SVG 1.1//EN"
 "http://www.w3.org/Graphics/SVG/1.1/DTD/svg11.dtd">
<!-- Generated by graphviz version 14.0.2 (20251019.1705)
 -->
<!-- Title: packages_sat_trajectory_worker Pages: 1 -->
<svg width="374pt" height="44pt"
 viewBox="0.00 0.00 374.00 44.00" xmlns="http://www.w3.org/2000/svg" xmlns:xlink="http://www.w3.org/1999/xlink">
<g id="graph0" class="graph" transform="scale(1 1) rotate(0) translate(4 40)">
<title>packages_sat_trajectory_worker</title>
<polygon fill="white" stroke="none" points="-4,4 -4,-40 369.75,-40 369.75,4 -4,4"/>
<!-- sat_trajectory_worker -->
<g id="node1" class="node">
<title>sat_trajectory_worker</title>
<polygon fill="#f8f9fb" stroke="#77aadd" stroke-width="1.1" points="109.75,-36 0,-36 0,0 109.75,0 109.75,-36"/>
<text xml:space="preserve" text-anchor="start" x="8" y="-14.12" font-family="Helvetica,sans-Serif" font-size="10.00">sat_trajectory_worker</text>
</g>
<!-- sat_trajectory_worker&#45;&gt;sat_trajectory_worker -->
<g id="edge1" class="edge">
<title>sat_trajectory_worker&#45;&gt;sat_trajectory_worker</title>
<path fill="none" stroke="#4a5568" stroke-width="1.05" d="M110.02,-24.75C127.72,-24.68 141.75,-22.43 141.75,-18 141.75,-14.54 133.19,-12.41 121,-11.61"/>
<polygon fill="#4a5568" stroke="#4a5568" stroke-width="1.05" points="111.3,-11.29 121.44,-7.12 115.02,-11.39 121.29,-11.59 121.29,-11.62 121.29,-11.64 115.01,-11.44 121.14,-16.12 111.3,-11.29"/>
</g>
<!-- sat_trajectory_worker.sat_trajectory_worker -->
<g id="node2" class="node">
<title>sat_trajectory_worker.sat_trajectory_worker</title>
<polygon fill="#f8f9fb" stroke="#77aadd" stroke-width="1.1" points="365.75,-36 160,-36 160,0 365.75,0 365.75,-36"/>
<text xml:space="preserve" text-anchor="start" x="168" y="-14.12" font-family="Helvetica,sans-Serif" font-size="10.00">sat_trajectory_worker.sat_trajectory_worker</text>
</g>
</g>
</svg>
