<?xml version="1.0" encoding="UTF-8" standalone="no"?>
<!DOCTYPE svg PUBLIC "-//W3C//DTD SVG 1.1//EN"
 "http://www.w3.org/Graphics/SVG/1.1/DTD/svg11.dtd">
<!-- Generated by graphviz version 14.1.0 (20251206.1807)
 -->
<!-- Title: packages_mycode Pages: 1 -->
<svg width="344pt" height="127pt"
 viewBox="0.00 0.00 344.00 127.00" xmlns="http://www.w3.org/2000/svg" xmlns:xlink="http://www.w3.org/1999/xlink">
<g id="graph0" class="graph" transform="scale(1 1) rotate(0) translate(4 123)">
<title>packages_mycode</title>
<polygon fill="white" stroke="none" points="-4,4 -4,-123 340,-123 340,4 -4,4"/>
<!-- mycode -->
<g id="node1" class="node">
<title>mycode</title>
<polygon fill="#f8f9fb" stroke="#77aadd" stroke-width="1.1" points="54,-119 0,-119 0,-83 54,-83 54,-119"/>
<text xml:space="preserve" text-anchor="start" x="9.75" y="-97.12" font-family="Helvetica,sans-Serif" font-size="10.00">mycode</text>
</g>
<!-- mycode&#45;&gt;mycode -->
<g id="edge1" class="edge">
<title>mycode&#45;&gt;mycode</title>
<path fill="none" stroke="#4a5568" stroke-width="1.05" d="M54.31,-115.59C70.64,-118.83 86,-113.97 86,-101 86,-91.07 76.99,-85.89 65.45,-85.47"/>
<polygon fill="#4a5568" stroke="#4a5568" stroke-width="1.05" points="55.59,-86.3 65.17,-80.97 59.29,-85.96 65.55,-85.43 65.55,-85.46 65.55,-85.48 59.29,-86.01 65.93,-89.94 55.59,-86.3"/>
</g>
<!-- mycode.app_args -->
<g id="node2" class="node">
<title>mycode.app_args</title>
<polygon fill="#f8f9fb" stroke="#77aadd" stroke-width="1.1" points="194.62,-36 101.38,-36 101.38,0 194.62,0 194.62,-36"/>
<text xml:space="preserve" text-anchor="start" x="109.38" y="-14.12" font-family="Helvetica,sans-Serif" font-size="10.00">mycode.app_args</text>
</g>
<!-- mycode&#45;&gt;mycode.app_args -->
<g id="edge2" class="edge">
<title>mycode&#45;&gt;mycode.app_args</title>
<path fill="none" stroke="#4a5568" stroke-width="1.05" d="M52.96,-82.62C70.42,-70.93 93.66,-55.37 112.79,-42.57"/>
<polygon fill="#4a5568" stroke="#4a5568" stroke-width="1.05" points="121.02,-37.06 115.22,-46.36 117.94,-39.15 112.73,-42.64 112.71,-42.62 112.7,-42.6 117.92,-39.11 110.21,-38.88 121.02,-37.06"/>
</g>
<!-- mycode.mycode -->
<g id="node3" class="node">
<title>mycode.mycode</title>
<polygon fill="#f8f9fb" stroke="#77aadd" stroke-width="1.1" points="192,-119 104,-119 104,-83 192,-83 192,-119"/>
<text xml:space="preserve" text-anchor="start" x="112" y="-97.12" font-family="Helvetica,sans-Serif" font-size="10.00">mycode.mycode</text>
</g>
<!-- mycode.mycode&#45;&gt;mycode.app_args -->
<g id="edge3" class="edge">
<title>mycode.mycode&#45;&gt;mycode.app_args</title>
<path fill="none" stroke="#4a5568" stroke-width="1.05" d="M148,-82.82C148,-72.58 148,-59.33 148,-47.55"/>
<polygon fill="#4a5568" stroke="#4a5568" stroke-width="1.05" points="148,-37.71 152.5,-47.71 148.03,-41.43 148.03,-47.71 148,-47.71 147.98,-47.71 147.98,-41.43 143.5,-47.71 148,-37.71"/>
</g>
<!-- mycode.mycode_args -->
<g id="node4" class="node">
<title>mycode.mycode_args</title>
<polygon fill="#f8f9fb" stroke="#77aadd" stroke-width="1.1" points="336,-119 224,-119 224,-83 336,-83 336,-119"/>
<text xml:space="preserve" text-anchor="start" x="232" y="-97.12" font-family="Helvetica,sans-Serif" font-size="10.00">mycode.mycode_args</text>
</g>
<!-- mycode.mycode_args&#45;&gt;mycode.app_args -->
<g id="edge4" class="edge">
<title>mycode.mycode_args&#45;&gt;mycode.app_args</title>
<path fill="none" stroke="#4a5568" stroke-width="1.05" d="M251.68,-82.62C232.46,-70.83 206.81,-55.09 185.84,-42.22"/>
<polygon fill="#4a5568" stroke="#4a5568" stroke-width="1.05" points="177.36,-37.02 188.24,-38.41 180.55,-38.94 185.9,-42.23 185.88,-42.25 185.87,-42.27 180.52,-38.98 183.53,-46.08 177.36,-37.02"/>
</g>
</g>
</svg>
