<?xml version="1.0" encoding="UTF-8" standalone="no"?>
<!DOCTYPE svg PUBLIC "-//W3C//DTD SVG 1.1//EN"
 "http://www.w3.org/Graphics/SVG/1.1/DTD/svg11.dtd">
<!-- Generated by graphviz version 14.0.2 (20251019.1705)
 -->
<!-- Title: packages_link_sim Pages: 1 -->
<svg width="330pt" height="127pt"
 viewBox="0.00 0.00 330.00 127.00" xmlns="http://www.w3.org/2000/svg" xmlns:xlink="http://www.w3.org/1999/xlink">
<g id="graph0" class="graph" transform="scale(1 1) rotate(0) translate(4 123)">
<title>packages_link_sim</title>
<polygon fill="white" stroke="none" points="-4,4 -4,-123 325.5,-123 325.5,4 -4,4"/>
<!-- link_sim -->
<g id="node1" class="node">
<title>link_sim</title>
<polygon fill="#f8f9fb" stroke="#77aadd" stroke-width="1.1" points="54,-119 0,-119 0,-83 54,-83 54,-119"/>
<text xml:space="preserve" text-anchor="start" x="9" y="-97.12" font-family="Helvetica,sans-Serif" font-size="10.00">link_sim</text>
</g>
<!-- link_sim&#45;&gt;link_sim -->
<g id="edge1" class="edge">
<title>link_sim&#45;&gt;link_sim</title>
<path fill="none" stroke="#4a5568" stroke-width="1.05" d="M54.31,-115.59C70.64,-118.83 86,-113.97 86,-101 86,-91.07 76.99,-85.89 65.45,-85.47"/>
<polygon fill="#4a5568" stroke="#4a5568" stroke-width="1.05" points="55.59,-86.3 65.17,-80.97 59.29,-85.96 65.55,-85.43 65.55,-85.46 65.55,-85.48 59.29,-86.01 65.93,-89.94 55.59,-86.3"/>
</g>
<!-- link_sim.link_sim_args -->
<g id="node4" class="node">
<title>link_sim.link_sim_args</title>
<polygon fill="#f8f9fb" stroke="#77aadd" stroke-width="1.1" points="208.5,-36 93.5,-36 93.5,0 208.5,0 208.5,-36"/>
<text xml:space="preserve" text-anchor="start" x="101.5" y="-14.12" font-family="Helvetica,sans-Serif" font-size="10.00">link_sim.link_sim_args</text>
</g>
<!-- link_sim&#45;&gt;link_sim.link_sim_args -->
<g id="edge2" class="edge">
<title>link_sim&#45;&gt;link_sim.link_sim_args</title>
<path fill="none" stroke="#4a5568" stroke-width="1.05" d="M53.6,-82.62C71.58,-70.88 95.53,-55.23 115.19,-42.39"/>
<polygon fill="#4a5568" stroke="#4a5568" stroke-width="1.05" points="123.37,-37.05 117.46,-46.28 120.27,-39.1 115.01,-42.54 115,-42.52 114.99,-42.5 120.24,-39.06 112.54,-38.75 123.37,-37.05"/>
</g>
<!-- link_sim.app_args -->
<g id="node2" class="node">
<title>link_sim.app_args</title>
<polygon fill="#f8f9fb" stroke="#77aadd" stroke-width="1.1" points="198.38,-119 103.62,-119 103.62,-83 198.38,-83 198.38,-119"/>
<text xml:space="preserve" text-anchor="start" x="111.62" y="-97.12" font-family="Helvetica,sans-Serif" font-size="10.00">link_sim.app_args</text>
</g>
<!-- link_sim.app_args&#45;&gt;link_sim.link_sim_args -->
<g id="edge3" class="edge">
<title>link_sim.app_args&#45;&gt;link_sim.link_sim_args</title>
<path fill="none" stroke="#4a5568" stroke-width="1.05" d="M151,-82.82C151,-72.58 151,-59.33 151,-47.55"/>
<polygon fill="#4a5568" stroke="#4a5568" stroke-width="1.05" points="151,-37.71 155.5,-47.71 151.03,-41.43 151.03,-47.71 151,-47.71 150.98,-47.71 150.98,-41.43 146.5,-47.71 151,-37.71"/>
</g>
<!-- link_sim.link_sim -->
<g id="node3" class="node">
<title>link_sim.link_sim</title>
<polygon fill="#f8f9fb" stroke="#77aadd" stroke-width="1.1" points="321.5,-119 230.5,-119 230.5,-83 321.5,-83 321.5,-119"/>
<text xml:space="preserve" text-anchor="start" x="238.5" y="-97.12" font-family="Helvetica,sans-Serif" font-size="10.00">link_sim.link_sim</text>
</g>
<!-- link_sim.link_sim&#45;&gt;link_sim.link_sim_args -->
<g id="edge4" class="edge">
<title>link_sim.link_sim&#45;&gt;link_sim.link_sim_args</title>
<path fill="none" stroke="#4a5568" stroke-width="1.05" d="M249.18,-82.62C231.06,-70.88 206.91,-55.23 187.1,-42.39"/>
<polygon fill="#4a5568" stroke="#4a5568" stroke-width="1.05" points="178.84,-37.04 189.68,-38.71 181.98,-39.05 187.25,-42.46 187.24,-42.48 187.22,-42.5 181.95,-39.09 184.79,-46.26 178.84,-37.04"/>
</g>
</g>
</svg>
