<?xml version="1.0" encoding="UTF-8" standalone="no"?>
<!DOCTYPE svg PUBLIC "-//W3C//DTD SVG 1.1//EN"
 "http://www.w3.org/Graphics/SVG/1.1/DTD/svg11.dtd">
<!-- Generated by graphviz version 14.1.0 (20251206.1807)
 -->
<!-- Title: packages_mycode Pages: 1 -->
<svg width="326pt" height="127pt"
 viewBox="0.00 0.00 326.00 127.00" xmlns="http://www.w3.org/2000/svg" xmlns:xlink="http://www.w3.org/1999/xlink">
<g id="graph0" class="graph" transform="scale(1 1) rotate(0) translate(4 123)">
<title>packages_mycode</title>
<polygon fill="white" stroke="none" points="-4,4 -4,-123 322,-123 322,4 -4,4"/>
<!-- mycode -->
<g id="node1" class="node">
<title>mycode</title>
<polygon fill="#f8f9fb" stroke="#77aadd" stroke-width="1.1" points="54,-119 0,-119 0,-83 54,-83 54,-119"/>
<text xml:space="preserve" text-anchor="start" x="9.75" y="-97.12" font-family="Helvetica,sans-Serif" font-size="10.00">mycode</text>
</g>
<!-- mycode&#45;&gt;mycode -->
<g id="edge1" class="edge">
<title>mycode&#45;&gt;mycode</title>
<path fill="none" stroke="#4a5568" stroke-width="1.05" d="M54.31,-115.59C70.64,-118.83 86,-113.97 86,-101 86,-91.07 76.99,-85.89 65.45,-85.47"/>
<polygon fill="#4a5568" stroke="#4a5568" stroke-width="1.05" points="55.59,-86.3 65.17,-80.97 59.29,-85.96 65.55,-85.43 65.55,-85.46 65.55,-85.48 59.29,-86.01 65.93,-89.94 55.59,-86.3"/>
</g>
<!-- mycode.mycode_args -->
<g id="node4" class="node">
<title>mycode.mycode_args</title>
<polygon fill="#f8f9fb" stroke="#77aadd" stroke-width="1.1" points="207,-36 95,-36 95,0 207,0 207,-36"/>
<text xml:space="preserve" text-anchor="start" x="103" y="-14.12" font-family="Helvetica,sans-Serif" font-size="10.00">mycode.mycode_args</text>
</g>
<!-- mycode&#45;&gt;mycode.mycode_args -->
<g id="edge2" class="edge">
<title>mycode&#45;&gt;mycode.mycode_args</title>
<path fill="none" stroke="#4a5568" stroke-width="1.05" d="M53.6,-82.62C71.58,-70.88 95.53,-55.23 115.19,-42.39"/>
<polygon fill="#4a5568" stroke="#4a5568" stroke-width="1.05" points="123.37,-37.05 117.46,-46.28 120.27,-39.1 115.01,-42.54 115,-42.52 114.99,-42.5 120.24,-39.06 112.54,-38.75 123.37,-37.05"/>
</g>
<!-- mycode.app_args -->
<g id="node2" class="node">
<title>mycode.app_args</title>
<polygon fill="#f8f9fb" stroke="#77aadd" stroke-width="1.1" points="197.62,-119 104.38,-119 104.38,-83 197.62,-83 197.62,-119"/>
<text xml:space="preserve" text-anchor="start" x="112.38" y="-97.12" font-family="Helvetica,sans-Serif" font-size="10.00">mycode.app_args</text>
</g>
<!-- mycode.app_args&#45;&gt;mycode.mycode_args -->
<g id="edge3" class="edge">
<title>mycode.app_args&#45;&gt;mycode.mycode_args</title>
<path fill="none" stroke="#4a5568" stroke-width="1.05" d="M151,-82.82C151,-72.58 151,-59.33 151,-47.55"/>
<polygon fill="#4a5568" stroke="#4a5568" stroke-width="1.05" points="151,-37.71 155.5,-47.71 151.03,-41.43 151.03,-47.71 151,-47.71 150.98,-47.71 150.98,-41.43 146.5,-47.71 151,-37.71"/>
</g>
<!-- mycode.mycode -->
<g id="node3" class="node">
<title>mycode.mycode</title>
<polygon fill="#f8f9fb" stroke="#77aadd" stroke-width="1.1" points="318,-119 230,-119 230,-83 318,-83 318,-119"/>
<text xml:space="preserve" text-anchor="start" x="238" y="-97.12" font-family="Helvetica,sans-Serif" font-size="10.00">mycode.mycode</text>
</g>
<!-- mycode.mycode&#45;&gt;mycode.mycode_args -->
<g id="edge4" class="edge">
<title>mycode.mycode&#45;&gt;mycode.mycode_args</title>
<path fill="none" stroke="#4a5568" stroke-width="1.05" d="M247.61,-82.62C229.78,-70.88 206.02,-55.23 186.53,-42.39"/>
<polygon fill="#4a5568" stroke="#4a5568" stroke-width="1.05" points="178.41,-37.05 189.24,-38.79 181.53,-39.08 186.78,-42.53 186.76,-42.55 186.75,-42.57 181.51,-39.12 184.29,-46.31 178.41,-37.05"/>
</g>
</g>
</svg>
