<?xml version="1.0" encoding="UTF-8" standalone="no"?>
<!DOCTYPE svg PUBLIC "-//W3C//DTD SVG 1.1//EN"
 "http://www.w3.org/Graphics/SVG/1.1/DTD/svg11.dtd">
<!-- Generated by graphviz version 14.0.2 (20251019.1705)
 -->
<!-- Title: packages_agi_env Pages: 1 -->
<svg width="1833pt" height="44pt"
 viewBox="0.00 0.00 1833.00 44.00" xmlns="http://www.w3.org/2000/svg" xmlns:xlink="http://www.w3.org/1999/xlink">
<g id="graph0" class="graph" transform="scale(1 1) rotate(0) translate(4 40)">
<title>packages_agi_env</title>
<polygon fill="white" stroke="none" points="-4,4 -4,-40 1829,-40 1829,4 -4,4"/>
<!-- agilab.src.agilab.core.agi&#45;env.src.agi_env -->
<g id="node1" class="node">
<title>agilab.src.agilab.core.agi&#45;env.src.agi_env</title>
<polygon fill="#f8f9fb" stroke="#77aadd" stroke-width="1.1" points="194.5,-36 0,-36 0,0 194.5,0 194.5,-36"/>
<text xml:space="preserve" text-anchor="start" x="8" y="-14.12" font-family="Helvetica,sans-Serif" font-size="10.00">agilab.src.agilab.core.agi&#45;env.src.agi_env</text>
</g>
<!-- agilab.src.agilab.core.agi&#45;env.src.agi_env&#45;&gt;agilab.src.agilab.core.agi&#45;env.src.agi_env -->
<g id="edge1" class="edge">
<title>agilab.src.agilab.core.agi&#45;env.src.agi_env&#45;&gt;agilab.src.agilab.core.agi&#45;env.src.agi_env</title>
<path fill="none" stroke="#4a5568" stroke-width="1.05" d="M195.04,-24.42C213.48,-23.64 226.5,-21.5 226.5,-18 226.5,-15.27 218.56,-13.36 206.28,-12.29"/>
<polygon fill="#4a5568" stroke="#4a5568" stroke-width="1.05" points="196.32,-11.66 206.58,-7.8 200.03,-11.87 206.3,-12.27 206.3,-12.29 206.29,-12.32 200.03,-11.92 206.01,-16.78 196.32,-11.66"/>
</g>
<!-- agilab.src.agilab.core.agi&#45;env.src.agi_env.agi_env -->
<g id="node2" class="node">
<title>agilab.src.agilab.core.agi&#45;env.src.agi_env.agi_env</title>
<polygon fill="#f8f9fb" stroke="#77aadd" stroke-width="1.1" points="474.12,-36 244.38,-36 244.38,0 474.12,0 474.12,-36"/>
<text xml:space="preserve" text-anchor="start" x="252.38" y="-14.12" font-family="Helvetica,sans-Serif" font-size="10.00">agilab.src.agilab.core.agi&#45;env.src.agi_env.agi_env</text>
</g>
<!-- agilab.src.agilab.core.agi&#45;env.src.agi_env.agi_logger -->
<g id="node3" class="node">
<title>agilab.src.agilab.core.agi&#45;env.src.agi_env.agi_logger</title>
<polygon fill="#f8f9fb" stroke="#77aadd" stroke-width="1.1" points="746.38,-36 506.12,-36 506.12,0 746.38,0 746.38,-36"/>
<text xml:space="preserve" text-anchor="start" x="514.12" y="-14.12" font-family="Helvetica,sans-Serif" font-size="10.00">agilab.src.agilab.core.agi&#45;env.src.agi_env.agi_logger</text>
</g>
<!-- agilab.src.agilab.core.agi&#45;env.src.agi_env.app_args -->
<g id="node4" class="node">
<title>agilab.src.agilab.core.agi&#45;env.src.agi_env.app_args</title>
<polygon fill="#f8f9fb" stroke="#77aadd" stroke-width="1.1" points="1014.12,-36 778.38,-36 778.38,0 1014.12,0 1014.12,-36"/>
<text xml:space="preserve" text-anchor="start" x="786.38" y="-14.12" font-family="Helvetica,sans-Serif" font-size="10.00">agilab.src.agilab.core.agi&#45;env.src.agi_env.app_args</text>
</g>
<!-- agilab.src.agilab.core.agi&#45;env.src.agi_env.defaults -->
<g id="node5" class="node">
<title>agilab.src.agilab.core.agi&#45;env.src.agi_env.defaults</title>
<polygon fill="#f8f9fb" stroke="#77aadd" stroke-width="1.1" points="1276.5,-36 1046,-36 1046,0 1276.5,0 1276.5,-36"/>
<text xml:space="preserve" text-anchor="start" x="1054" y="-14.12" font-family="Helvetica,sans-Serif" font-size="10.00">agilab.src.agilab.core.agi&#45;env.src.agi_env.defaults</text>
</g>
<!-- agilab.src.agilab.core.agi&#45;env.src.agi_env.pagelib -->
<g id="node6" class="node">
<title>agilab.src.agilab.core.agi&#45;env.src.agi_env.pagelib</title>
<polygon fill="#f8f9fb" stroke="#77aadd" stroke-width="1.1" points="1535.62,-36 1308.88,-36 1308.88,0 1535.62,0 1535.62,-36"/>
<text xml:space="preserve" text-anchor="start" x="1316.88" y="-14.12" font-family="Helvetica,sans-Serif" font-size="10.00">agilab.src.agilab.core.agi&#45;env.src.agi_env.pagelib</text>
</g>
<!-- agilab.src.agilab.core.agi&#45;env.src.agi_env.streamlit_args -->
<g id="node7" class="node">
<title>agilab.src.agilab.core.agi&#45;env.src.agi_env.streamlit_args</title>
<polygon fill="#f8f9fb" stroke="#77aadd" stroke-width="1.1" points="1825,-36 1567.5,-36 1567.5,0 1825,0 1825,-36"/>
<text xml:space="preserve" text-anchor="start" x="1575.5" y="-14.12" font-family="Helvetica,sans-Serif" font-size="10.00">agilab.src.agilab.core.agi&#45;env.src.agi_env.streamlit_args</text>
</g>
</g>
</svg>
