<?xml version="1.0" encoding="UTF-8" standalone="no"?>
<!DOCTYPE svg PUBLIC "-//W3C//DTD SVG 1.1//EN"
 "http://www.w3.org/Graphics/SVG/1.1/DTD/svg11.dtd">
<!-- Generated by graphviz version 14.0.4 (20251115.1723)
 -->
<!-- Title: packages_sb3_trainer Pages: 1 -->
<svg width="374pt" height="44pt"
 viewBox="0.00 0.00 374.00 44.00" xmlns="http://www.w3.org/2000/svg" xmlns:xlink="http://www.w3.org/1999/xlink">
<g id="graph0" class="graph" transform="scale(1 1) rotate(0) translate(4 40)">
<title>packages_sb3_trainer</title>
<polygon fill="white" stroke="none" points="-4,4 -4,-40 370.12,-40 370.12,4 -4,4"/>
<!-- sb3_trainer -->
<g id="node1" class="node">
<title>sb3_trainer</title>
<polygon fill="#f8f9fb" stroke="#77aadd" stroke-width="1.1" points="64,-36 0,-36 0,0 64,0 64,-36"/>
<text xml:space="preserve" text-anchor="start" x="8" y="-14.12" font-family="Helvetica,sans-Serif" font-size="10.00">sb3_trainer</text>
</g>
<!-- sb3_trainer&#45;&gt;sb3_trainer -->
<g id="edge1" class="edge">
<title>sb3_trainer&#45;&gt;sb3_trainer</title>
<path fill="none" stroke="#4a5568" stroke-width="1.05" d="M64.27,-24.51C80.96,-25.51 96,-23.34 96,-18 96,-13.87 87,-11.63 75.2,-11.29"/>
<polygon fill="#4a5568" stroke="#4a5568" stroke-width="1.05" points="65.55,-11.46 75.47,-6.79 69.27,-11.37 75.55,-11.26 75.55,-11.29 75.55,-11.31 69.27,-11.42 75.63,-15.79 65.55,-11.46"/>
</g>
<!-- sb3_trainer.app_args -->
<g id="node2" class="node">
<title>sb3_trainer.app_args</title>
<polygon fill="#f8f9fb" stroke="#77aadd" stroke-width="1.1" points="220,-36 114,-36 114,0 220,0 220,-36"/>
<text xml:space="preserve" text-anchor="start" x="122" y="-14.12" font-family="Helvetica,sans-Serif" font-size="10.00">sb3_trainer.app_args</text>
</g>
<!-- sb3_trainer.sb3_trainer -->
<g id="node3" class="node">
<title>sb3_trainer.sb3_trainer</title>
<polygon fill="#f8f9fb" stroke="#77aadd" stroke-width="1.1" points="366.12,-36 251.88,-36 251.88,0 366.12,0 366.12,-36"/>
<text xml:space="preserve" text-anchor="start" x="259.88" y="-14.12" font-family="Helvetica,sans-Serif" font-size="10.00">sb3_trainer.sb3_trainer</text>
</g>
</g>
</svg>
