<?xml version="1.0" encoding="UTF-8" standalone="no"?>
<!DOCTYPE svg PUBLIC "-//W3C//DTD SVG 1.1//EN"
 "http://www.w3.org/Graphics/SVG/1.1/DTD/svg11.dtd">
<!-- Generated by graphviz version 14.1.0 (20251206.1807)
 -->
<!-- Title: PipelineExample Pages: 1 -->
<svg width="789pt" height="196pt"
 viewBox="0.00 0.00 789.00 196.00" xmlns="http://www.w3.org/2000/svg" xmlns:xlink="http://www.w3.org/1999/xlink">
<g id="graph0" class="graph" transform="scale(1 1) rotate(0) translate(4 192)">
<title>PipelineExample</title>
<polygon fill="white" stroke="none" points="-4,4 -4,-192 784.5,-192 784.5,4 -4,4"/>
<!-- TrajFlight -->
<g id="node1" class="node">
<title>TrajFlight</title>
<polygon fill="#bfdbfe" stroke="#1d4ed8" points="119.12,-188 5.62,-188 5.62,-152 119.12,-152 119.12,-188"/>
<text xml:space="preserve" text-anchor="middle" x="62.38" y="-171.55" font-family="Helvetica,sans-Serif" font-size="11.00">Trajectory generator</text>
<text xml:space="preserve" text-anchor="middle" x="62.38" y="-159.55" font-family="Helvetica,sans-Serif" font-size="11.00">(air tracks)</text>
</g>
<!-- Sim -->
<g id="node4" class="node">
<title>Sim</title>
<polygon fill="#c7f9cc" stroke="#15803d" points="381.5,-112 253,-112 253,-76 381.5,-76 381.5,-112"/>
<text xml:space="preserve" text-anchor="middle" x="317.25" y="-95.55" font-family="Helvetica,sans-Serif" font-size="11.00">Simulation</text>
<text xml:space="preserve" text-anchor="middle" x="317.25" y="-83.55" font-family="Helvetica,sans-Serif" font-size="11.00">(link + demand models)</text>
</g>
<!-- TrajFlight&#45;&gt;Sim -->
<g id="edge1" class="edge">
<title>TrajFlight&#45;&gt;Sim</title>
<path fill="none" stroke="#475569" stroke-width="1.4" d="M119.32,-155.42C150.8,-146.99 190.74,-135.92 226,-125 234.79,-122.28 244.01,-119.28 253.07,-116.25"/>
<polygon fill="#475569" stroke="#475569" stroke-width="1.4" points="254.05,-119.61 262.4,-113.09 251.81,-112.98 254.05,-119.61"/>
</g>
<!-- TrajSat -->
<g id="node2" class="node">
<title>TrajSat</title>
<polygon fill="#bfdbfe" stroke="#1d4ed8" points="119.12,-112 5.62,-112 5.62,-76 119.12,-76 119.12,-112"/>
<text xml:space="preserve" text-anchor="middle" x="62.38" y="-95.55" font-family="Helvetica,sans-Serif" font-size="11.00">Trajectory generator</text>
<text xml:space="preserve" text-anchor="middle" x="62.38" y="-83.55" font-family="Helvetica,sans-Serif" font-size="11.00">(space tracks)</text>
</g>
<!-- TrajSat&#45;&gt;Sim -->
<g id="edge2" class="edge">
<title>TrajSat&#45;&gt;Sim</title>
<path fill="none" stroke="#475569" stroke-width="1.4" d="M119.5,-94C155.15,-94 201.75,-94 240.65,-94"/>
<polygon fill="#475569" stroke="#475569" stroke-width="1.4" points="240.6,-97.5 250.6,-94 240.6,-90.5 240.6,-97.5"/>
</g>
<!-- EnvMaps -->
<g id="node3" class="node">
<title>EnvMaps</title>
<polygon fill="#e0f2fe" stroke="#0284c7" points="124.75,-36 0,-36 0,0 124.75,0 124.75,-36"/>
<text xml:space="preserve" text-anchor="middle" x="62.38" y="-19.55" font-family="Helvetica,sans-Serif" font-size="11.00">Environment maps</text>
<text xml:space="preserve" text-anchor="middle" x="62.38" y="-7.55" font-family="Helvetica,sans-Serif" font-size="11.00">(weather / attenuation)</text>
</g>
<!-- EnvMaps&#45;&gt;Sim -->
<g id="edge3" class="edge">
<title>EnvMaps&#45;&gt;Sim</title>
<path fill="none" stroke="#475569" stroke-width="1.4" d="M124.91,-36.49C160.68,-47.25 205.96,-60.85 243.5,-72.13"/>
<polygon fill="#475569" stroke="#475569" stroke-width="1.4" points="242.26,-75.42 252.85,-74.94 244.28,-68.71 242.26,-75.42"/>
<text xml:space="preserve" text-anchor="middle" x="188.88" y="-66.79" font-family="Times,serif" font-size="10.00">attenuation inputs</text>
</g>
<!-- Learned -->
<g id="node5" class="node">
<title>Learned</title>
<polygon fill="#fde68a" stroke="#ca8a04" points="569.5,-151 436.5,-151 436.5,-115 569.5,-115 569.5,-151"/>
<text xml:space="preserve" text-anchor="middle" x="503" y="-134.55" font-family="Helvetica,sans-Serif" font-size="11.00">Learned decision engine</text>
<text xml:space="preserve" text-anchor="middle" x="503" y="-122.55" font-family="Helvetica,sans-Serif" font-size="11.00">(ML / RL)</text>
</g>
<!-- Sim&#45;&gt;Learned -->
<g id="edge4" class="edge">
<title>Sim&#45;&gt;Learned</title>
<path fill="none" stroke="#475569" stroke-width="1.4" d="M381.74,-107.48C395.44,-110.38 410.07,-113.49 424.24,-116.5"/>
<polygon fill="#475569" stroke="#475569" stroke-width="1.4" points="423.42,-119.9 433.93,-118.55 424.88,-113.05 423.42,-119.9"/>
</g>
<!-- Opt -->
<g id="node6" class="node">
<title>Opt</title>
<polygon fill="#fde68a" stroke="#ca8a04" points="562,-75 444,-75 444,-39 562,-39 562,-75"/>
<text xml:space="preserve" text-anchor="middle" x="503" y="-58.55" font-family="Helvetica,sans-Serif" font-size="11.00">Optimization baseline</text>
<text xml:space="preserve" text-anchor="middle" x="503" y="-46.55" font-family="Helvetica,sans-Serif" font-size="11.00">(ILP / MILP)</text>
</g>
<!-- Sim&#45;&gt;Opt -->
<g id="edge5" class="edge">
<title>Sim&#45;&gt;Opt</title>
<path fill="none" stroke="#475569" stroke-width="1.4" d="M381.74,-81.21C397.94,-77.95 415.44,-74.43 431.94,-71.11"/>
<polygon fill="#475569" stroke="#475569" stroke-width="1.4" points="432.56,-74.55 441.67,-69.15 431.17,-67.69 432.56,-74.55"/>
</g>
<!-- View -->
<g id="node7" class="node">
<title>View</title>
<polygon fill="#fbcfe8" stroke="#be185d" points="780.5,-113 668.5,-113 668.5,-77 780.5,-77 780.5,-113"/>
<text xml:space="preserve" text-anchor="middle" x="724.5" y="-96.55" font-family="Helvetica,sans-Serif" font-size="11.00">Visualisation + KPIs</text>
<text xml:space="preserve" text-anchor="middle" x="724.5" y="-84.55" font-family="Helvetica,sans-Serif" font-size="11.00">(maps / charts)</text>
</g>
<!-- Learned&#45;&gt;View -->
<g id="edge6" class="edge">
<title>Learned&#45;&gt;View</title>
<path fill="none" stroke="#475569" stroke-width="1.4" d="M569.86,-121.6C597.14,-116.88 628.75,-111.4 656.18,-106.65"/>
<polygon fill="#475569" stroke="#475569" stroke-width="1.4" points="656.71,-110.11 665.97,-104.96 655.52,-103.22 656.71,-110.11"/>
<text xml:space="preserve" text-anchor="middle" x="619" y="-118.03" font-family="Times,serif" font-size="10.00">allocations</text>
</g>
<!-- Opt&#45;&gt;View -->
<g id="edge7" class="edge">
<title>Opt&#45;&gt;View</title>
<path fill="none" stroke="#475569" stroke-width="1.4" d="M562.25,-67.08C591.17,-72.09 626.28,-78.17 656.33,-83.37"/>
<polygon fill="#475569" stroke="#475569" stroke-width="1.4" points="655.47,-86.78 665.92,-85.03 656.67,-79.88 655.47,-86.78"/>
<text xml:space="preserve" text-anchor="middle" x="619" y="-82.27" font-family="Times,serif" font-size="10.00">allocations</text>
</g>
</g>
</svg>
