<?xml version="1.0" encoding="UTF-8" standalone="no"?>
<!DOCTYPE svg PUBLIC "-//W3C//DTD SVG 1.1//EN"
 "http://www.w3.org/Graphics/SVG/1.1/DTD/svg11.dtd">
<!-- Generated by graphviz version 13.1.1 (20250719.2154)
 -->
<!-- Title: G Pages: 1 -->
<svg width="109pt" height="375pt"
 viewBox="0.00 0.00 109.00 375.00" xmlns="http://www.w3.org/2000/svg" xmlns:xlink="http://www.w3.org/1999/xlink">
<g id="graph0" class="graph" transform="scale(1 1) rotate(0) translate(4 370.75)">
<title>G</title>
<polygon fill="white" stroke="none" points="-4,4 -4,-370.75 104.75,-370.75 104.75,4 -4,4"/>
<!-- BaseWorker -->
<g id="node1" class="node">
<title>BaseWorker</title>
<path fill="#f8f9fb" stroke="#4a5568" stroke-width="1.1" d="M12,-274.75C12,-274.75 88.75,-274.75 88.75,-274.75 94.75,-274.75 100.75,-280.75 100.75,-286.75 100.75,-286.75 100.75,-354.25 100.75,-354.25 100.75,-360.25 94.75,-366.25 88.75,-366.25 88.75,-366.25 12,-366.25 12,-366.25 6,-366.25 0,-360.25 0,-354.25 0,-354.25 0,-286.75 0,-286.75 0,-280.75 6,-274.75 12,-274.75"/>
<text xml:space="preserve" text-anchor="middle" x="50.38" y="-352.75" font-family="Helvetica,sans-Serif" font-size="10.00">BaseWorker</text>
<polyline fill="none" stroke="#4a5568" stroke-width="1.1" points="0,-347 100.75,-347"/>
<text xml:space="preserve" text-anchor="start" x="8" y="-333.5" font-family="Helvetica,sans-Serif" font-size="10.00">+env</text>
<polyline fill="none" stroke="#4a5568" stroke-width="1.1" points="0,-327.75 100.75,-327.75"/>
<text xml:space="preserve" text-anchor="start" x="8" y="-314.25" font-family="Helvetica,sans-Serif" font-size="10.00">+expand()</text>
<text xml:space="preserve" text-anchor="start" x="8" y="-303" font-family="Helvetica,sans-Serif" font-size="10.00">+expand_and_join()</text>
<text xml:space="preserve" text-anchor="start" x="8" y="-291.75" font-family="Helvetica,sans-Serif" font-size="10.00">+start()</text>
<text xml:space="preserve" text-anchor="start" x="8" y="-280.5" font-family="Helvetica,sans-Serif" font-size="10.00">+stop()</text>
</g>
<!-- DagWorker -->
<g id="node2" class="node">
<title>DagWorker</title>
<path fill="#f8f9fb" stroke="#4a5568" stroke-width="1.1" d="M28.5,-177C28.5,-177 72.25,-177 72.25,-177 78.25,-177 84.25,-183 84.25,-189 84.25,-189 84.25,-214.75 84.25,-214.75 84.25,-220.75 78.25,-226.75 72.25,-226.75 72.25,-226.75 28.5,-226.75 28.5,-226.75 22.5,-226.75 16.5,-220.75 16.5,-214.75 16.5,-214.75 16.5,-189 16.5,-189 16.5,-183 22.5,-177 28.5,-177"/>
<text xml:space="preserve" text-anchor="middle" x="50.38" y="-213.25" font-family="Helvetica,sans-Serif" font-size="10.00">DagWorker</text>
<polyline fill="none" stroke="#4a5568" stroke-width="1.1" points="16.5,-207.5 84.25,-207.5"/>
<text xml:space="preserve" text-anchor="start" x="24.5" y="-194" font-family="Helvetica,sans-Serif" font-size="10.00">+get_work()</text>
<text xml:space="preserve" text-anchor="start" x="24.5" y="-182.75" font-family="Helvetica,sans-Serif" font-size="10.00">+works()</text>
</g>
<!-- BaseWorker&#45;&gt;DagWorker -->
<g id="edge1" class="edge">
<title>BaseWorker&#45;&gt;DagWorker</title>
<path fill="none" stroke="#4a5568" stroke-width="1.05" d="M50.38,-274.41C50.38,-262.42 50.38,-249.65 50.38,-238.26"/>
<polygon fill="#4a5568" stroke="#4a5568" stroke-width="1.05" points="53.88,-238.57 50.38,-228.57 46.88,-238.57 53.88,-238.57"/>
</g>
<!-- MycodeWorker -->
<g id="node3" class="node">
<title>MycodeWorker</title>
<path fill="#f8f9fb" stroke="#4a5568" stroke-width="1.1" d="M21.75,-0.5C21.75,-0.5 79,-0.5 79,-0.5 85,-0.5 91,-6.5 91,-12.5 91,-12.5 91,-117 91,-117 91,-123 85,-129 79,-129 79,-129 21.75,-129 21.75,-129 15.75,-129 9.75,-123 9.75,-117 9.75,-117 9.75,-12.5 9.75,-12.5 9.75,-6.5 15.75,-0.5 21.75,-0.5"/>
<text xml:space="preserve" text-anchor="middle" x="50.38" y="-115.5" font-family="Helvetica,sans-Serif" font-size="10.00">MycodeWorker</text>
<polyline fill="none" stroke="#4a5568" stroke-width="1.1" points="9.75,-109.75 91,-109.75"/>
<text xml:space="preserve" text-anchor="start" x="17.75" y="-96.25" font-family="Helvetica,sans-Serif" font-size="10.00">+start()</text>
<text xml:space="preserve" text-anchor="start" x="17.75" y="-85" font-family="Helvetica,sans-Serif" font-size="10.00">+get_work()</text>
<text xml:space="preserve" text-anchor="start" x="17.75" y="-73.75" font-family="Helvetica,sans-Serif" font-size="10.00">+algo_A()</text>
<text xml:space="preserve" text-anchor="start" x="17.75" y="-62.5" font-family="Helvetica,sans-Serif" font-size="10.00">+algo_B()</text>
<text xml:space="preserve" text-anchor="start" x="17.75" y="-51.25" font-family="Helvetica,sans-Serif" font-size="10.00">+algo_C()</text>
<text xml:space="preserve" text-anchor="start" x="17.75" y="-40" font-family="Helvetica,sans-Serif" font-size="10.00">+algo_X()</text>
<text xml:space="preserve" text-anchor="start" x="17.75" y="-28.75" font-family="Helvetica,sans-Serif" font-size="10.00">+algo_Y()</text>
<text xml:space="preserve" text-anchor="start" x="17.75" y="-17.5" font-family="Helvetica,sans-Serif" font-size="10.00">+algo_Z()</text>
<text xml:space="preserve" text-anchor="start" x="17.75" y="-6.25" font-family="Helvetica,sans-Serif" font-size="10.00">+stop()</text>
</g>
<!-- DagWorker&#45;&gt;MycodeWorker -->
<g id="edge2" class="edge">
<title>DagWorker&#45;&gt;MycodeWorker</title>
<path fill="none" stroke="#4a5568" stroke-width="1.05" d="M50.38,-176.72C50.38,-166.44 50.38,-153.85 50.38,-140.87"/>
<polygon fill="#4a5568" stroke="#4a5568" stroke-width="1.05" points="53.88,-141.01 50.38,-131.01 46.88,-141.01 53.88,-141.01"/>
</g>
</g>
</svg>
