<?xml version="1.0" encoding="UTF-8"?>
<svg xmlns="http://www.w3.org/2000/svg" viewBox="0 0 960 580" role="img" aria-labelledby="title desc">
  <title id="title">Needs for an algorithm set</title>
  <desc id="desc">Diagram illustrating that complex engineering systems require a suite of algorithms rather than a single model.</desc>
  <defs>
    <style>
      .bg{fill:#ffffff}
      .title{font:700 26px/1.2 Arial, Helvetica, sans-serif; fill:#0f172a}
      .h{font:700 15px/1.2 Arial, Helvetica, sans-serif; fill:#0f172a}
      .t{font:400 13px/1.4 Arial, Helvetica, sans-serif; fill:#334155}
      .box{fill:#f8fafc;stroke:#cbd5e1;stroke-width:2}
      .center{fill:#ecfeff;stroke:#0891b2;stroke-width:2}
      .arrow{stroke:#475569;stroke-width:2.4;fill:none;stroke-linecap:round;marker-end:url(#arrow)}
    </style>
    <marker id="arrow" viewBox="0 0 8 8" refX="6.4" refY="4" markerWidth="8" markerHeight="8" orient="auto" markerUnits="userSpaceOnUse">
      <path d="M 0 0 L 8 4 L 0 8 z" fill="#475569"/>
    </marker>
  </defs>

  <rect class="bg" width="960" height="580"/>
  <text class="title" x="480" y="56" text-anchor="middle">Complex problems need an algorithm set</text>
  <text class="t" x="480" y="82" text-anchor="middle">Example: communications planning under constraints, uncertainty, and scale.</text>

  <rect class="center" x="330" y="210" rx="18" ry="18" width="300" height="148"/>
  <text class="h" x="480" y="248" text-anchor="middle">System objective</text>
  <text class="t" x="480" y="278" text-anchor="middle">Decisions, allocations, and KPIs</text>
  <text class="t" x="480" y="306" text-anchor="middle">must satisfy constraints</text>

  <rect class="box" x="80" y="120" rx="14" ry="14" width="220" height="84"/>
  <text class="h" x="190" y="150" text-anchor="middle">Simulation</text>
  <text class="t" x="190" y="174" text-anchor="middle">scenarios, dynamics</text>

  <rect class="box" x="660" y="120" rx="14" ry="14" width="220" height="84"/>
  <text class="h" x="770" y="150" text-anchor="middle">Optimization</text>
  <text class="t" x="770" y="174" text-anchor="middle">ILP / heuristics</text>

  <rect class="box" x="80" y="250" rx="14" ry="14" width="220" height="84"/>
  <text class="h" x="190" y="280" text-anchor="middle">Data pipelines</text>
  <text class="t" x="190" y="304" text-anchor="middle">cleaning, features</text>

  <rect class="box" x="660" y="250" rx="14" ry="14" width="220" height="84"/>
  <text class="h" x="770" y="280" text-anchor="middle">Learning</text>
  <text class="t" x="770" y="304" text-anchor="middle">ML / RL policies</text>

  <rect class="box" x="80" y="392" rx="14" ry="14" width="220" height="84"/>
  <text class="h" x="190" y="422" text-anchor="middle">Verification</text>
  <text class="t" x="190" y="446" text-anchor="middle">tests, invariants</text>

  <rect class="box" x="660" y="392" rx="14" ry="14" width="220" height="84"/>
  <text class="h" x="770" y="422" text-anchor="middle">Visualization</text>
  <text class="t" x="770" y="446" text-anchor="middle">maps, KPIs, reports</text>

  <line class="arrow" x1="300" y1="162" x2="330" y2="240"/>
  <line class="arrow" x1="660" y1="162" x2="630" y2="240"/>
  <line class="arrow" x1="300" y1="292" x2="330" y2="284"/>
  <line class="arrow" x1="660" y1="292" x2="630" y2="284"/>
  <line class="arrow" x1="300" y1="434" x2="330" y2="322"/>
  <line class="arrow" x1="660" y1="434" x2="630" y2="322"/>

  <text class="t" x="480" y="545" text-anchor="middle">AGILab orchestrates these components into repeatable, scalable experiments.</text>
</svg>
