<svg xmlns="http://www.w3.org/2000/svg" width="640" height="360" viewBox="0 0 640 360" role="img" aria-labelledby="title desc">
  <title id="title">TRI GTIA View preview</title>
  <desc id="desc">Preview thumbnail for view_tri_gtia, package agi-page-tri-gtia.</desc>
  <defs>
    <linearGradient id="bg" x1="0" x2="1" y1="0" y2="1">
      <stop offset="0" stop-color="#f8fafc"/>
      <stop offset="1" stop-color="#dbeafe"/>
    </linearGradient>
    <filter id="shadow" x="-20%" y="-20%" width="140%" height="140%">
      <feDropShadow dx="0" dy="10" stdDeviation="12" flood-color="#0f172a" flood-opacity=".18"/>
    </filter>
  </defs>
  <rect width="640" height="360" fill="url(#bg)"/>
  <rect x="52" y="54" width="536" height="252" rx="18" fill="#ffffff" filter="url(#shadow)"/>
  <rect x="52" y="54" width="536" height="58" rx="18" fill="#0f766e"/>
  <text x="84" y="91" font-family="Inter, Arial, sans-serif" font-size="24" font-weight="700" fill="#ffffff">TRI/GTIA Visibility</text>
  <text x="84" y="136" font-family="Inter, Arial, sans-serif" font-size="13" fill="#334155">NetworkSim TTL visibility analysis launched from AGILAB ANALYSIS.</text>
  <g fill="none" stroke="#0f766e" stroke-width="8" stroke-linecap="round" stroke-linejoin="round">
    <circle cx="160" cy="222" r="18"/>
    <circle cx="278" cy="154" r="18"/>
    <circle cx="420" cy="216" r="18"/>
    <path d="M178 212 L260 164"/>
    <path d="M296 162 L402 207"/>
    <path d="M178 226 C248 278 338 282 402 226"/>
  </g>
  <g fill="#14b8a6" opacity=".22">
    <circle cx="160" cy="222" r="58"/>
    <circle cx="278" cy="154" r="72"/>
    <circle cx="420" cy="216" r="64"/>
  </g>
  <g font-family="Inter, Arial, sans-serif" font-size="13" font-weight="700" fill="#0f172a">
    <text x="118" y="314">Visibility</text>
    <text x="276" y="314">TTL</text>
    <text x="420" y="314">GTIA</text>
  </g>
</svg>
