<?xml version="1.0" encoding="UTF-8" standalone="no"?>
<!DOCTYPE svg PUBLIC "-//W3C//DTD SVG 1.1//EN"
 "http://www.w3.org/Graphics/SVG/1.1/DTD/svg11.dtd">
<!-- Generated by graphviz version 14.1.5 (20260411.2331)
 -->
<!-- Title: classes_flight_telemetry_worker Pages: 1 -->
<svg width="127pt" height="355pt"
 viewBox="3.00 3.00 124.00 352.00" xmlns="http://www.w3.org/2000/svg" xmlns:xlink="http://www.w3.org/1999/xlink">
<g id="graph0" class="graph" transform="scale(1 1) rotate(0) translate(6.88 348.38)">
<title>classes_flight_telemetry_worker</title>
<polygon fill="white" stroke="none" points="-4,4 -4,-345.5 117.5,-345.5 117.5,4 -4,4"/>
<!-- BaseWorker -->
<g id="node1" class="node">
<title>BaseWorker</title>
<path fill="#f8f9fb" stroke="#4a5568" stroke-width="1.1" d="M18.38,-249.5C18.38,-249.5 95.12,-249.5 95.12,-249.5 101.12,-249.5 107.12,-255.5 107.12,-261.5 107.12,-261.5 107.12,-329 107.12,-329 107.12,-335 101.12,-341 95.12,-341 95.12,-341 18.38,-341 18.38,-341 12.38,-341 6.38,-335 6.38,-329 6.38,-329 6.38,-261.5 6.38,-261.5 6.38,-255.5 12.38,-249.5 18.38,-249.5"/>
<text xml:space="preserve" text-anchor="middle" x="56.75" y="-327.5" font-family="Helvetica,sans-Serif" font-size="10.00">BaseWorker</text>
<polyline fill="none" stroke="#4a5568" stroke-width="1.1" points="6.38,-321.75 107.12,-321.75"/>
<text xml:space="preserve" text-anchor="middle" x="56.75" y="-308.25" font-family="Helvetica,sans-Serif" font-size="10.00">+env</text>
<polyline fill="none" stroke="#4a5568" stroke-width="1.1" points="6.38,-302.5 107.12,-302.5"/>
<text xml:space="preserve" text-anchor="start" x="14.38" y="-289" font-family="Helvetica,sans-Serif" font-size="10.00">+expand()</text>
<text xml:space="preserve" text-anchor="start" x="14.38" y="-277.75" font-family="Helvetica,sans-Serif" font-size="10.00">+expand_and_join()</text>
<text xml:space="preserve" text-anchor="start" x="14.38" y="-266.5" font-family="Helvetica,sans-Serif" font-size="10.00">+start()</text>
<text xml:space="preserve" text-anchor="start" x="14.38" y="-255.25" font-family="Helvetica,sans-Serif" font-size="10.00">+stop()</text>
</g>
<!-- PolarsWorker -->
<g id="node2" class="node">
<title>PolarsWorker</title>
<path fill="#f8f9fb" stroke="#4a5568" stroke-width="1.1" d="M31.12,-151.5C31.12,-151.5 82.38,-151.5 82.38,-151.5 88.38,-151.5 94.38,-157.5 94.38,-163.5 94.38,-163.5 94.38,-200.5 94.38,-200.5 94.38,-206.5 88.38,-212.5 82.38,-212.5 82.38,-212.5 31.12,-212.5 31.12,-212.5 25.12,-212.5 19.12,-206.5 19.12,-200.5 19.12,-200.5 19.12,-163.5 19.12,-163.5 19.12,-157.5 25.12,-151.5 31.12,-151.5"/>
<text xml:space="preserve" text-anchor="middle" x="56.75" y="-199" font-family="Helvetica,sans-Serif" font-size="10.00">PolarsWorker</text>
<polyline fill="none" stroke="#4a5568" stroke-width="1.1" points="19.12,-193.25 94.38,-193.25"/>
<text xml:space="preserve" text-anchor="start" x="27.12" y="-179.75" font-family="Helvetica,sans-Serif" font-size="10.00">+work_pool()</text>
<text xml:space="preserve" text-anchor="start" x="27.12" y="-168.5" font-family="Helvetica,sans-Serif" font-size="10.00">+work_done()</text>
<text xml:space="preserve" text-anchor="start" x="27.12" y="-157.25" font-family="Helvetica,sans-Serif" font-size="10.00">+works()</text>
</g>
<!-- BaseWorker&#45;&gt;PolarsWorker -->
<g id="edge1" class="edge">
<title>BaseWorker&#45;&gt;PolarsWorker</title>
<path fill="none" stroke="#4a5568" stroke-width="1.05" d="M56.75,-249C56.75,-239.79 56.75,-230.19 56.75,-221.25"/>
<polygon fill="#4a5568" stroke="#4a5568" stroke-width="1.05" points="59.2,-221.51 56.75,-214.51 54.3,-221.51 59.2,-221.51"/>
</g>
<!-- FlightTelemetryWorker -->
<g id="node3" class="node">
<title>FlightTelemetryWorker</title>
<path fill="#f8f9fb" stroke="#4a5568" stroke-width="1.1" d="M12,-0.5C12,-0.5 101.5,-0.5 101.5,-0.5 107.5,-0.5 113.5,-6.5 113.5,-12.5 113.5,-12.5 113.5,-102.5 113.5,-102.5 113.5,-108.5 107.5,-114.5 101.5,-114.5 101.5,-114.5 12,-114.5 12,-114.5 6,-114.5 0,-108.5 0,-102.5 0,-102.5 0,-12.5 0,-12.5 0,-6.5 6,-0.5 12,-0.5"/>
<text xml:space="preserve" text-anchor="middle" x="56.75" y="-101" font-family="Helvetica,sans-Serif" font-size="10.00">FlightTelemetryWorker</text>
<polyline fill="none" stroke="#4a5568" stroke-width="1.1" points="0,-95.25 113.5,-95.25"/>
<text xml:space="preserve" text-anchor="middle" x="56.75" y="-81.75" font-family="Helvetica,sans-Serif" font-size="10.00">+pool_vars</text>
<polyline fill="none" stroke="#4a5568" stroke-width="1.1" points="0,-76 113.5,-76"/>
<text xml:space="preserve" text-anchor="start" x="8" y="-62.5" font-family="Helvetica,sans-Serif" font-size="10.00">+preprocess_df()</text>
<text xml:space="preserve" text-anchor="start" x="8" y="-51.25" font-family="Helvetica,sans-Serif" font-size="10.00">+calculate_speed()</text>
<text xml:space="preserve" text-anchor="start" x="8" y="-40" font-family="Helvetica,sans-Serif" font-size="10.00">+work_pool()</text>
<text xml:space="preserve" text-anchor="start" x="8" y="-28.75" font-family="Helvetica,sans-Serif" font-size="10.00">+work_done()</text>
<text xml:space="preserve" text-anchor="start" x="8" y="-17.5" font-family="Helvetica,sans-Serif" font-size="10.00">+start()</text>
<text xml:space="preserve" text-anchor="start" x="8" y="-6.25" font-family="Helvetica,sans-Serif" font-size="10.00">+stop()</text>
</g>
<!-- PolarsWorker&#45;&gt;FlightTelemetryWorker -->
<g id="edge2" class="edge">
<title>PolarsWorker&#45;&gt;FlightTelemetryWorker</title>
<path fill="none" stroke="#4a5568" stroke-width="1.05" d="M56.75,-151.03C56.75,-142.6 56.75,-133.08 56.75,-123.44"/>
<polygon fill="#4a5568" stroke="#4a5568" stroke-width="1.05" points="59.2,-123.54 56.75,-116.54 54.3,-123.54 59.2,-123.54"/>
</g>
</g>
</svg>
