<?xml version="1.0" encoding="UTF-8" standalone="no"?>
<!DOCTYPE svg PUBLIC "-//W3C//DTD SVG 1.1//EN"
 "http://www.w3.org/Graphics/SVG/1.1/DTD/svg11.dtd">
<!-- Generated by graphviz version 14.1.5 (20260411.2331)
 -->
<!-- Title: classes_flight Pages: 1 -->
<svg width="172pt" height="269pt"
 viewBox="3.00 3.00 169.00 266.00" xmlns="http://www.w3.org/2000/svg" xmlns:xlink="http://www.w3.org/1999/xlink">
<g id="graph0" class="graph" transform="scale(1 1) rotate(0) translate(6.88 261.63)">
<title>classes_flight</title>
<polygon fill="white" stroke="none" points="-4,4 -4,-258.75 162.5,-258.75 162.5,4 -4,4"/>
<!-- BaseWorker -->
<g id="node1" class="node">
<title>BaseWorker</title>
<path fill="#f8f9fb" stroke="#4a5568" stroke-width="1.1" d="M40.88,-162.75C40.88,-162.75 117.62,-162.75 117.62,-162.75 123.62,-162.75 129.62,-168.75 129.62,-174.75 129.62,-174.75 129.62,-242.25 129.62,-242.25 129.62,-248.25 123.62,-254.25 117.62,-254.25 117.62,-254.25 40.88,-254.25 40.88,-254.25 34.88,-254.25 28.88,-248.25 28.88,-242.25 28.88,-242.25 28.88,-174.75 28.88,-174.75 28.88,-168.75 34.88,-162.75 40.88,-162.75"/>
<text xml:space="preserve" text-anchor="middle" x="79.25" y="-240.75" font-family="Helvetica,sans-Serif" font-size="10.00">BaseWorker</text>
<polyline fill="none" stroke="#4a5568" stroke-width="1.1" points="28.88,-235 129.62,-235"/>
<text xml:space="preserve" text-anchor="middle" x="79.25" y="-221.5" font-family="Helvetica,sans-Serif" font-size="10.00">+env</text>
<polyline fill="none" stroke="#4a5568" stroke-width="1.1" points="28.88,-215.75 129.62,-215.75"/>
<text xml:space="preserve" text-anchor="start" x="36.88" y="-202.25" font-family="Helvetica,sans-Serif" font-size="10.00">+expand()</text>
<text xml:space="preserve" text-anchor="start" x="36.88" y="-191" font-family="Helvetica,sans-Serif" font-size="10.00">+expand_and_join()</text>
<text xml:space="preserve" text-anchor="start" x="36.88" y="-179.75" font-family="Helvetica,sans-Serif" font-size="10.00">+start()</text>
<text xml:space="preserve" text-anchor="start" x="36.88" y="-168.5" font-family="Helvetica,sans-Serif" font-size="10.00">+stop()</text>
</g>
<!-- FlightTelemetry -->
<g id="node2" class="node">
<title>FlightTelemetry</title>
<path fill="#f8f9fb" stroke="#4a5568" stroke-width="1.1" d="M12,-0.5C12,-0.5 146.5,-0.5 146.5,-0.5 152.5,-0.5 158.5,-6.5 158.5,-12.5 158.5,-12.5 158.5,-113.75 158.5,-113.75 158.5,-119.75 152.5,-125.75 146.5,-125.75 146.5,-125.75 12,-125.75 12,-125.75 6,-125.75 0,-119.75 0,-113.75 0,-113.75 0,-12.5 0,-12.5 0,-6.5 6,-0.5 12,-0.5"/>
<text xml:space="preserve" text-anchor="middle" x="79.25" y="-112.25" font-family="Helvetica,sans-Serif" font-size="10.00">FlightTelemetry</text>
<polyline fill="none" stroke="#4a5568" stroke-width="1.1" points="0,-106.5 158.5,-106.5"/>
<text xml:space="preserve" text-anchor="middle" x="79.25" y="-93" font-family="Helvetica,sans-Serif" font-size="10.00">+ivq_logs</text>
<polyline fill="none" stroke="#4a5568" stroke-width="1.1" points="0,-87.25 158.5,-87.25"/>
<text xml:space="preserve" text-anchor="start" x="8" y="-73.75" font-family="Helvetica,sans-Serif" font-size="10.00">+from_toml()</text>
<text xml:space="preserve" text-anchor="start" x="8" y="-62.5" font-family="Helvetica,sans-Serif" font-size="10.00">+to_toml()</text>
<text xml:space="preserve" text-anchor="start" x="8" y="-51.25" font-family="Helvetica,sans-Serif" font-size="10.00">+as_dict()</text>
<text xml:space="preserve" text-anchor="start" x="8" y="-40" font-family="Helvetica,sans-Serif" font-size="10.00">+build_distribution()</text>
<text xml:space="preserve" text-anchor="start" x="8" y="-28.75" font-family="Helvetica,sans-Serif" font-size="10.00">+extract_plane_from_file_name()</text>
<text xml:space="preserve" text-anchor="start" x="8" y="-17.5" font-family="Helvetica,sans-Serif" font-size="10.00">+get_data_from_files()</text>
<text xml:space="preserve" text-anchor="start" x="8" y="-6.25" font-family="Helvetica,sans-Serif" font-size="10.00">+get_partition_by_planes()</text>
</g>
<!-- BaseWorker&#45;&gt;FlightTelemetry -->
<g id="edge1" class="edge">
<title>BaseWorker&#45;&gt;FlightTelemetry</title>
<path fill="none" stroke="#4a5568" stroke-width="1.05" d="M79.25,-162.53C79.25,-153.64 79.25,-144.1 79.25,-134.6"/>
<polygon fill="#4a5568" stroke="#4a5568" stroke-width="1.05" points="81.7,-134.86 79.25,-127.86 76.8,-134.86 81.7,-134.86"/>
</g>
</g>
</svg>
