<svg xmlns="http://www.w3.org/2000/svg" width="1360" height="840" viewBox="0 0 1360 840" role="img" aria-labelledby="title desc">
  <title id="title">AGILAB quick tour</title>
  <desc id="desc">Compact onboarding diagram for the AGILAB README showing the main user path from PROJECT to ANALYSIS and the resulting productivity gain.</desc>
  <defs>
    <style>
      text {
        font-family: Arial, Helvetica, sans-serif;
        fill: #11283f;
      }
      .title {
        font-size: 42px;
        font-weight: 700;
      }
      .subtitle {
        font-size: 21px;
        fill: #536c88;
      }
      .section {
        font-size: 16px;
        font-weight: 700;
        letter-spacing: 0.12em;
        text-transform: uppercase;
        fill: #657d98;
      }
      .card {
        stroke: #17324d;
        stroke-width: 3.2;
        rx: 30;
        ry: 30;
      }
      .card-title {
        font-size: 23px;
        font-weight: 700;
      }
      .card-body {
        font-size: 17px;
        fill: #39536f;
      }
      .mini {
        font-size: 15px;
        fill: #617997;
      }
      .pill {
        fill: #17324d;
      }
      .pill-text {
        font-size: 14px;
        font-weight: 700;
        fill: #f8fbff;
        letter-spacing: 0.08em;
        text-transform: uppercase;
      }
      .step-circle {
        fill: #17324d;
      }
      .step-text {
        font-size: 18px;
        font-weight: 700;
        fill: #f8fbff;
      }
      .value-title {
        font-size: 20px;
        font-weight: 700;
      }
      .value-body {
        font-size: 16px;
        fill: #3d5875;
      }
      .arrow {
        stroke: #17324d;
        stroke-width: 4.8;
        stroke-linecap: round;
      }
      .soft-arrow {
        stroke: #8298b4;
        stroke-width: 3.4;
        stroke-linecap: round;
      }
      .line {
        stroke: #d4deea;
        stroke-width: 2.2;
      }
      .shadow {
        filter: url(#shadow);
      }
      .arrow-head {
        fill: #17324d;
      }
    </style>
    <linearGradient id="bg" x1="0%" y1="0%" x2="100%" y2="100%">
      <stop offset="0%" stop-color="#fbfdff" />
      <stop offset="100%" stop-color="#eef4fb" />
    </linearGradient>
    <filter id="shadow" x="-10%" y="-10%" width="130%" height="130%">
      <feDropShadow dx="0" dy="7" stdDeviation="11" flood-color="#90a5c1" flood-opacity="0.18" />
    </filter>
  </defs>

  <rect width="1360" height="840" fill="url(#bg)" rx="36" ry="36" />

  <g transform="translate(80,68)">
    <text class="title" x="0" y="0">AGILAB in one quick tour</text>
    <text class="subtitle" x="0" y="40">
      <tspan x="0" dy="0">Use the built-in flight project to see one app, one execution path,</tspan>
      <tspan x="0" dy="28">and one visible analysis loop in a few minutes.</tspan>
    </text>
  </g>

  <g transform="translate(80,150)">
    <rect x="0" y="0" width="430" height="82" rx="24" ry="24" fill="#ffffff" stroke="#d6dfeb" stroke-width="2.2" class="shadow" />
    <rect x="18" y="18" width="112" height="36" rx="18" ry="18" class="pill" />
    <text class="pill-text" x="74" y="41" text-anchor="middle">Demo path</text>
    <text class="card-body" x="154" y="40">
      <tspan x="154" dy="0">flight_project demo:</tspan>
      <tspan x="154" dy="22">PROJECT → ANALYSIS</tspan>
    </text>
  </g>

  <g transform="translate(80,258)">
    <text class="section" x="0" y="0">Main user path</text>
    <line class="line" x1="220" y1="-8" x2="1200" y2="-8" />
  </g>

  <g transform="translate(60,290)">
    <rect class="card shadow" width="270" height="230" fill="#d9efff" />
    <circle class="step-circle" cx="34" cy="34" r="18" />
    <text class="step-text" x="34" y="40" text-anchor="middle">1</text>
    <text class="card-title" x="58" y="42">PROJECT</text>
    <text class="card-body" x="28" y="86">Pick the active app.</text>
    <text class="card-body" x="28" y="112">Load settings and inspect</text>
    <text class="card-body" x="28" y="138">the source.</text>
    <text class="mini" x="28" y="178">Start with:</text>
    <text class="mini" x="28" y="202">src/agilab/apps/builtin/</text>
    <text class="mini" x="28" y="224">flight_project</text>
  </g>

  <g transform="translate(370,290)">
    <rect class="card shadow" width="270" height="230" fill="#e1dcff" />
    <circle class="step-circle" cx="34" cy="34" r="18" />
    <text class="step-text" x="34" y="40" text-anchor="middle">2</text>
    <text class="card-title" x="58" y="42">ORCHESTRATE</text>
    <text class="card-body" x="28" y="86">Install, distribute, and run.</text>
    <text class="card-body" x="28" y="112">Package workers</text>
    <text class="card-body" x="28" y="138">and launch execution.</text>
    <text class="mini" x="28" y="188">AGILAB removes most of the</text>
    <text class="mini" x="28" y="210">manual orchestration here.</text>
  </g>

  <g transform="translate(680,290)">
    <rect class="card shadow" width="270" height="230" fill="#fff2bf" />
    <circle class="step-circle" cx="34" cy="34" r="18" />
    <text class="step-text" x="34" y="40" text-anchor="middle">3</text>
    <text class="card-title" x="58" y="42">PIPELINE</text>
    <text class="card-body" x="28" y="86">Replay the generated steps.</text>
    <text class="card-body" x="28" y="112">Inspect snippets</text>
    <text class="card-body" x="28" y="138">and execution flow.</text>
    <text class="mini" x="28" y="188">Useful for validation, debugging,</text>
    <text class="mini" x="28" y="210">and repeatability.</text>
  </g>

  <g transform="translate(990,290)">
    <rect class="card shadow" width="270" height="230" fill="#ffe2e9" />
    <circle class="step-circle" cx="34" cy="34" r="18" />
    <text class="step-text" x="34" y="40" text-anchor="middle">4</text>
    <text class="card-title" x="58" y="42">ANALYSIS</text>
    <text class="card-body" x="28" y="86">Open built-in Streamlit views.</text>
    <text class="card-body" x="28" y="112">Explore exported artifacts</text>
    <text class="card-body" x="28" y="138">and results.</text>
    <text class="mini" x="28" y="182">The demo ends with</text>
    <text class="mini" x="28" y="204">visible outputs,</text>
    <text class="mini" x="28" y="226">not only shell logs.</text>
  </g>

  <line class="arrow" x1="342" y1="426" x2="358" y2="426" />
  <polygon class="arrow-head" points="358,418 358,434 374,426" />
  <line class="arrow" x1="652" y1="426" x2="668" y2="426" />
  <polygon class="arrow-head" points="668,418 668,434 684,426" />
  <line class="arrow" x1="962" y1="426" x2="978" y2="426" />
  <polygon class="arrow-head" points="978,418 978,434 994,426" />

  <g transform="translate(80,562)">
    <text class="section" x="0" y="0">Why this matters</text>
    <line class="line" x1="210" y1="-8" x2="1200" y2="-8" />
  </g>

  <g transform="translate(80,598)">
    <rect class="card shadow" width="360" height="196" fill="#ffffff" />
    <text class="value-title" x="28" y="44">Without AGILAB</text>
    <text class="value-body" x="28" y="80">You hand-wire environments, scripts,</text>
    <text class="value-body" x="28" y="104">SSH targets, logs, and analysis</text>
    <text class="value-body" x="28" y="128">views for each experiment.</text>
    <text class="value-body" x="28" y="152">The orchestration burden grows</text>
    <text class="value-body" x="28" y="176">before the model work does.</text>
  </g>

  <g transform="translate(500,598)">
    <rect class="card shadow" width="360" height="196" fill="#ffffff" />
    <text class="value-title" x="28" y="44">With AGILAB</text>
    <text class="value-body" x="28" y="80">The same app moves from UI</text>
    <text class="value-body" x="28" y="104">to workers to results through</text>
    <text class="value-body" x="28" y="128">one control path and one</text>
    <text class="value-body" x="28" y="152">documented stack.</text>
    <text class="value-body" x="28" y="176">That is the productivity gain.</text>
  </g>

  <g transform="translate(920,598)">
    <rect class="card shadow" width="360" height="196" fill="#ffffff" />
    <text class="value-title" x="28" y="44">Best fit</text>
    <text class="value-body" x="28" y="80">Teams who need reproducible</text>
    <text class="value-body" x="28" y="104">experimentation, distributed</text>
    <text class="value-body" x="28" y="128">execution, and operator-facing</text>
    <text class="value-body" x="28" y="152">flows before a larger stack.</text>
  </g>

  <line class="soft-arrow" x1="205" y1="528" x2="205" y2="580" />
  <polygon points="197,580 213,580 205,596" fill="#8298b4" />
  <line class="soft-arrow" x1="525" y1="528" x2="525" y2="580" />
  <polygon points="517,580 533,580 525,596" fill="#8298b4" />
  <line class="soft-arrow" x1="845" y1="528" x2="845" y2="580" />
  <polygon points="837,580 853,580 845,596" fill="#8298b4" />
</svg>
