<svg xmlns="http://www.w3.org/2000/svg" width="1200" height="675" viewBox="0 0 1200 675" role="img" aria-labelledby="title desc">
  <title id="title">Decision Evidence AGILAB demo card</title>
  <desc id="desc">Autonomous mission data to decision evidence demo summary for AGILAB.</desc>
  <defs>
    <linearGradient id="bg" x1="0" y1="0" x2="1" y2="1">
      <stop offset="0" stop-color="#081421"/>
      <stop offset="0.52" stop-color="#0f2b37"/>
      <stop offset="1" stop-color="#1f3f33"/>
    </linearGradient>
    <linearGradient id="accent" x1="0" y1="0" x2="1" y2="0">
      <stop offset="0" stop-color="#35d0ba"/>
      <stop offset="1" stop-color="#d4f06b"/>
    </linearGradient>
    <filter id="softShadow" x="-20%" y="-20%" width="140%" height="140%">
      <feDropShadow dx="0" dy="12" stdDeviation="18" flood-color="#000000" flood-opacity="0.28"/>
    </filter>
    <style>
      .label { font-family: Arial, Helvetica, sans-serif; fill: #dcefe9; }
      .muted { fill: #9fc2ba; }
      .panel { fill: rgba(255,255,255,0.08); stroke: rgba(255,255,255,0.18); stroke-width: 1.5; }
      .step { fill: rgba(12,34,44,0.92); stroke: #35d0ba; stroke-width: 2; }
      .chip { fill: rgba(212,240,107,0.14); stroke: rgba(212,240,107,0.45); stroke-width: 1.2; }
    </style>
  </defs>

  <rect width="1200" height="675" rx="34" fill="url(#bg)"/>
  <path d="M92 112 C280 40 418 46 566 116 C710 184 834 158 1048 76" fill="none" stroke="#35d0ba" stroke-opacity="0.22" stroke-width="32"/>
  <path d="M190 574 C330 490 505 486 646 548 C790 612 966 598 1096 518" fill="none" stroke="#d4f06b" stroke-opacity="0.18" stroke-width="42"/>
  <circle cx="1022" cy="145" r="112" fill="#35d0ba" fill-opacity="0.08"/>
  <circle cx="101" cy="547" r="132" fill="#d4f06b" fill-opacity="0.08"/>

  <g filter="url(#softShadow)">
    <rect x="70" y="70" width="1060" height="535" rx="30" class="panel"/>
  </g>

  <text x="110" y="142" class="label" font-size="34" font-weight="700">Decision Evidence Demo</text>
  <rect x="865" y="110" width="205" height="44" rx="22" class="chip"/>
  <text x="967.5" y="139" text-anchor="middle" class="label" font-size="20" font-weight="700">Public demo asset</text>

  <text x="110" y="232" class="label" font-size="66" font-weight="800">Autonomous Mission Data</text>
  <text x="110" y="298" class="label" font-size="66" font-weight="800">to Decision Evidence</text>
  <rect x="110" y="326" width="560" height="8" rx="4" fill="url(#accent)"/>
  <text x="110" y="377" class="label muted" font-size="27">A reproducible AGILAB path from raw mission signals</text>
  <text x="110" y="414" class="label muted" font-size="27">to an optimized, explainable operational decision.</text>

  <text x="800" y="276" class="label" font-size="26" font-weight="700">Decision flow</text>
  <text x="800" y="306" class="label muted" font-size="21">PROJECT -&gt; ORCHESTRATE -&gt;</text>
  <text x="800" y="333" class="label muted" font-size="21">WORKFLOW -&gt; ANALYSIS</text>

  <g transform="translate(110 470)">
    <rect x="0" y="0" width="160" height="76" rx="18" class="step"/>
    <text x="24" y="32" class="label" font-size="19" font-weight="700">1. Ingest</text>
    <text x="24" y="57" class="label muted" font-size="16">mission data</text>

    <path d="M165 38 L200 38" stroke="#9fc2ba" stroke-width="3" stroke-linecap="round"/>
    <path d="M200 38 L190 31 M200 38 L190 45" stroke="#9fc2ba" stroke-width="3" stroke-linecap="round"/>

    <rect x="205" y="0" width="160" height="76" rx="18" class="step"/>
    <text x="229" y="32" class="label" font-size="19" font-weight="700">2. Build</text>
    <text x="229" y="57" class="label muted" font-size="16">dynamic DAG</text>

    <path d="M370 38 L405 38" stroke="#9fc2ba" stroke-width="3" stroke-linecap="round"/>
    <path d="M405 38 L395 31 M405 38 L395 45" stroke="#9fc2ba" stroke-width="3" stroke-linecap="round"/>

    <rect x="410" y="0" width="160" height="76" rx="18" class="step"/>
    <text x="434" y="32" class="label" font-size="19" font-weight="700">3. Distribute</text>
    <text x="434" y="57" class="label muted" font-size="16">workers scale</text>

    <path d="M575 38 L610 38" stroke="#9fc2ba" stroke-width="3" stroke-linecap="round"/>
    <path d="M610 38 L600 31 M610 38 L600 45" stroke="#9fc2ba" stroke-width="3" stroke-linecap="round"/>

    <rect x="615" y="0" width="160" height="76" rx="18" class="step"/>
    <text x="639" y="32" class="label" font-size="19" font-weight="700">4. Optimize</text>
    <text x="639" y="57" class="label muted" font-size="16">ML + RL loop</text>

    <path d="M780 38 L815 38" stroke="#9fc2ba" stroke-width="3" stroke-linecap="round"/>
    <path d="M815 38 L805 31 M815 38 L805 45" stroke="#9fc2ba" stroke-width="3" stroke-linecap="round"/>

    <rect x="820" y="0" width="160" height="76" rx="18" class="step"/>
    <text x="844" y="32" class="label" font-size="19" font-weight="700">5. Adapt</text>
    <text x="844" y="57" class="label muted" font-size="16">new decision</text>
  </g>

  <rect x="800" y="350" width="310" height="108" rx="22" fill="rgba(53,208,186,0.11)" stroke="rgba(53,208,186,0.35)" stroke-width="1.4"/>
  <text x="830" y="389" class="label" font-size="23" font-weight="700">Failure injection</text>
  <text x="830" y="420" class="label muted" font-size="20">bandwidth drop | node loss</text>
  <text x="830" y="446" class="label muted" font-size="20">recompute | re-optimize</text>

  <text x="110" y="585" class="label" font-size="23" font-weight="700">Final output: selected strategy | latency down | cost down | reliability up</text>
</svg>
