<svg xmlns="http://www.w3.org/2000/svg" width="1200" height="675" viewBox="0 0 1200 675" role="img" aria-labelledby="title desc">
  <title id="title">Mission Decision AGILAB demo card</title>
  <desc id="desc">Autonomous mission data to decision engine demo summary for AGILAB.</desc>
  <defs>
    <linearGradient id="bg" x1="0" y1="0" x2="1" y2="1">
      <stop offset="0" stop-color="#081421"/>
      <stop offset="0.52" stop-color="#0f2b37"/>
      <stop offset="1" stop-color="#1f3f33"/>
    </linearGradient>
    <linearGradient id="accent" x1="0" y1="0" x2="1" y2="0">
      <stop offset="0" stop-color="#35d0ba"/>
      <stop offset="1" stop-color="#d4f06b"/>
    </linearGradient>
    <filter id="softShadow" x="-20%" y="-20%" width="140%" height="140%">
      <feDropShadow dx="0" dy="12" stdDeviation="18" flood-color="#000000" flood-opacity="0.28"/>
    </filter>
    <style>
      .label { font-family: "Aptos", "Segoe UI", sans-serif; fill: #dcefe9; }
      .muted { fill: #9fc2ba; }
      .panel { fill: rgba(255,255,255,0.08); stroke: rgba(255,255,255,0.18); stroke-width: 1.5; }
      .step { fill: rgba(12,34,44,0.92); stroke: #35d0ba; stroke-width: 2; }
      .chip { fill: rgba(212,240,107,0.14); stroke: rgba(212,240,107,0.45); stroke-width: 1.2; }
    </style>
  </defs>

  <rect width="1200" height="675" rx="34" fill="url(#bg)"/>
  <path d="M92 112 C280 40 418 46 566 116 C710 184 834 158 1048 76" fill="none" stroke="#35d0ba" stroke-opacity="0.22" stroke-width="32"/>
  <path d="M190 574 C330 490 505 486 646 548 C790 612 966 598 1096 518" fill="none" stroke="#d4f06b" stroke-opacity="0.18" stroke-width="42"/>
  <circle cx="1022" cy="145" r="112" fill="#35d0ba" fill-opacity="0.08"/>
  <circle cx="101" cy="547" r="132" fill="#d4f06b" fill-opacity="0.08"/>

  <g filter="url(#softShadow)">
    <rect x="70" y="70" width="1060" height="535" rx="30" class="panel"/>
  </g>

  <text x="110" y="142" class="label" font-size="34" font-weight="700">Mission Decision Demo</text>
  <rect x="865" y="110" width="205" height="44" rx="22" class="chip"/>
  <text x="890" y="139" class="label" font-size="20" font-weight="700">Public demo asset</text>

  <text x="110" y="232" class="label" font-size="66" font-weight="800">Autonomous Mission Data</text>
  <text x="110" y="298" class="label" font-size="66" font-weight="800">to Decision Engine</text>
  <rect x="110" y="326" width="560" height="8" rx="4" fill="url(#accent)"/>
  <text x="110" y="377" class="label muted" font-size="27">A reproducible AGILAB path from raw mission signals</text>
  <text x="110" y="414" class="label muted" font-size="27">to an optimized, explainable operational decision.</text>

  <text x="740" y="225" class="label" font-size="26" font-weight="700">Decision flow</text>
  <text x="740" y="265" class="label muted" font-size="21">PROJECT -&gt; ORCHESTRATE -&gt; WORKFLOW -&gt; ANALYSIS</text>

  <g transform="translate(110 470)">
    <rect x="0" y="0" width="170" height="76" rx="18" class="step"/>
    <text x="28" y="32" class="label" font-size="19" font-weight="700">1. Ingest</text>
    <text x="28" y="57" class="label muted" font-size="16">mission data</text>

    <path d="M184 38 L232 38" stroke="#9fc2ba" stroke-width="3" stroke-linecap="round"/>
    <path d="M232 38 L220 30 M232 38 L220 46" stroke="#9fc2ba" stroke-width="3" stroke-linecap="round"/>

    <rect x="250" y="0" width="170" height="76" rx="18" class="step"/>
    <text x="278" y="32" class="label" font-size="19" font-weight="700">2. Build</text>
    <text x="278" y="57" class="label muted" font-size="16">dynamic DAG</text>

    <path d="M434 38 L482 38" stroke="#9fc2ba" stroke-width="3" stroke-linecap="round"/>
    <path d="M482 38 L470 30 M482 38 L470 46" stroke="#9fc2ba" stroke-width="3" stroke-linecap="round"/>

    <rect x="500" y="0" width="170" height="76" rx="18" class="step"/>
    <text x="528" y="32" class="label" font-size="19" font-weight="700">3. Distribute</text>
    <text x="528" y="57" class="label muted" font-size="16">workers scale</text>

    <path d="M684 38 L732 38" stroke="#9fc2ba" stroke-width="3" stroke-linecap="round"/>
    <path d="M732 38 L720 30 M732 38 L720 46" stroke="#9fc2ba" stroke-width="3" stroke-linecap="round"/>

    <rect x="750" y="0" width="170" height="76" rx="18" class="step"/>
    <text x="778" y="32" class="label" font-size="19" font-weight="700">4. Optimize</text>
    <text x="778" y="57" class="label muted" font-size="16">ML + RL loop</text>

    <path d="M934 38 L982 38" stroke="#9fc2ba" stroke-width="3" stroke-linecap="round"/>
    <path d="M982 38 L970 30 M982 38 L970 46" stroke="#9fc2ba" stroke-width="3" stroke-linecap="round"/>

    <rect x="1000" y="0" width="170" height="76" rx="18" class="step"/>
    <text x="1028" y="32" class="label" font-size="19" font-weight="700">5. Adapt</text>
    <text x="1028" y="57" class="label muted" font-size="16">new decision</text>
  </g>

  <rect x="740" y="306" width="334" height="104" rx="22" fill="rgba(53,208,186,0.11)" stroke="rgba(53,208,186,0.35)" stroke-width="1.4"/>
  <text x="770" y="345" class="label" font-size="23" font-weight="700">Failure injection</text>
  <text x="770" y="376" class="label muted" font-size="20">bandwidth drop | node loss</text>
  <text x="770" y="402" class="label muted" font-size="20">recompute | re-optimize</text>

  <text x="110" y="585" class="label" font-size="23" font-weight="700">Final output: selected strategy | latency down | cost down | reliability up</text>
</svg>
