<svg xmlns="http://www.w3.org/2000/svg" width="1360" height="840" viewBox="0 0 1360 840" role="img" aria-labelledby="title desc">
  <title id="title">AGILAB quick tour</title>
  <desc id="desc">Compact onboarding diagram for the AGILAB README showing the main user path from PROJECT to ANALYSIS and the resulting productivity gain.</desc>
  <defs>
    <style>
      text {
        font-family: "Aptos", "Segoe UI", "Helvetica Neue", Arial, sans-serif;
        fill: #11283f;
      }
      .title {
        font-size: 42px;
        font-weight: 700;
      }
      .subtitle {
        font-size: 21px;
        fill: #536c88;
      }
      .section {
        font-size: 16px;
        font-weight: 700;
        letter-spacing: 0.16em;
        text-transform: uppercase;
        fill: #657d98;
      }
      .card {
        stroke: #17324d;
        stroke-width: 3.2;
        rx: 30;
        ry: 30;
      }
      .card-title {
        font-size: 28px;
        font-weight: 700;
      }
      .card-body {
        font-size: 18px;
        fill: #39536f;
      }
      .mini {
        font-size: 16px;
        fill: #617997;
      }
      .pill {
        fill: #17324d;
      }
      .pill-text {
        font-size: 14px;
        font-weight: 700;
        fill: #f8fbff;
        letter-spacing: 0.08em;
        text-transform: uppercase;
      }
      .step-circle {
        fill: #17324d;
      }
      .step-text {
        font-size: 18px;
        font-weight: 700;
        fill: #f8fbff;
      }
      .value-title {
        font-size: 21px;
        font-weight: 700;
      }
      .value-body {
        font-size: 17px;
        fill: #3d5875;
      }
      .arrow {
        stroke: #17324d;
        stroke-width: 4.8;
        stroke-linecap: round;
      }
      .soft-arrow {
        stroke: #8298b4;
        stroke-width: 3.4;
        stroke-linecap: round;
      }
      .line {
        stroke: #d4deea;
        stroke-width: 2.2;
      }
      .shadow {
        filter: url(#shadow);
      }
    </style>
    <marker id="arrowhead" viewBox="0 0 10 10" markerUnits="userSpaceOnUse" markerWidth="10" markerHeight="10" refX="8.4" refY="5" orient="auto">
      <path d="M 0 0 L 10 5 L 0 10 z" fill="#17324d" />
    </marker>
    <marker id="arrowhead-soft" viewBox="0 0 10 10" markerUnits="userSpaceOnUse" markerWidth="10" markerHeight="10" refX="8.4" refY="5" orient="auto">
      <path d="M 0 0 L 10 5 L 0 10 z" fill="#8298b4" />
    </marker>
    <linearGradient id="bg" x1="0%" y1="0%" x2="100%" y2="100%">
      <stop offset="0%" stop-color="#fbfdff" />
      <stop offset="100%" stop-color="#eef4fb" />
    </linearGradient>
    <filter id="shadow" x="-10%" y="-10%" width="130%" height="130%">
      <feDropShadow dx="0" dy="7" stdDeviation="11" flood-color="#90a5c1" flood-opacity="0.18" />
    </filter>
  </defs>

  <rect width="1360" height="840" fill="url(#bg)" rx="36" ry="36" />

  <g transform="translate(80,68)">
    <text class="title" x="0" y="0">AGILAB in one quick tour</text>
    <text class="subtitle" x="0" y="40">Use the built-in flight project to see one app, one execution path, and one visible analysis loop in a few minutes.</text>
  </g>

  <g transform="translate(80,122)">
    <rect x="0" y="0" width="400" height="74" rx="24" ry="24" fill="#ffffff" stroke="#d6dfeb" stroke-width="2.2" class="shadow" />
    <rect x="18" y="18" width="112" height="36" rx="18" ry="18" class="pill" />
    <text class="pill-text" x="74" y="41" text-anchor="middle">Demo path</text>
    <text class="card-body" x="154" y="43">flight_project from PROJECT to ANALYSIS</text>
  </g>

  <g transform="translate(80,226)">
    <text class="section" x="0" y="0">Main user path</text>
    <line class="line" x1="154" y1="-8" x2="1200" y2="-8" />
  </g>

  <g transform="translate(80,256)">
    <rect class="card shadow" width="270" height="222" fill="#d9efff" />
    <circle class="step-circle" cx="34" cy="34" r="18" />
    <text class="step-text" x="34" y="40" text-anchor="middle">1</text>
    <text class="card-title" x="66" y="42">PROJECT</text>
    <text class="card-body" x="28" y="86">Pick the active app.</text>
    <text class="card-body" x="28" y="114">Load settings and inspect the source.</text>
    <text class="mini" x="28" y="166">Start with:</text>
    <text class="mini" x="28" y="192">src/agilab/apps/builtin/</text>
    <text class="mini" x="28" y="214">flight_project</text>
  </g>

  <g transform="translate(390,256)">
    <rect class="card shadow" width="270" height="222" fill="#e1dcff" />
    <circle class="step-circle" cx="34" cy="34" r="18" />
    <text class="step-text" x="34" y="40" text-anchor="middle">2</text>
    <text class="card-title" x="66" y="42">ORCHESTRATE</text>
    <text class="card-body" x="28" y="86">Install, distribute, and run.</text>
    <text class="card-body" x="28" y="114">Package workers and launch execution.</text>
    <text class="mini" x="28" y="178">AGILAB removes most of the</text>
    <text class="mini" x="28" y="200">manual orchestration here.</text>
  </g>

  <g transform="translate(700,256)">
    <rect class="card shadow" width="270" height="222" fill="#fff2bf" />
    <circle class="step-circle" cx="34" cy="34" r="18" />
    <text class="step-text" x="34" y="40" text-anchor="middle">3</text>
    <text class="card-title" x="66" y="42">PIPELINE</text>
    <text class="card-body" x="28" y="86">Replay the generated steps.</text>
    <text class="card-body" x="28" y="114">Inspect snippets and execution flow.</text>
    <text class="mini" x="28" y="178">Useful for validation, debugging,</text>
    <text class="mini" x="28" y="200">and repeatability.</text>
  </g>

  <g transform="translate(1010,256)">
    <rect class="card shadow" width="270" height="222" fill="#ffe2e9" />
    <circle class="step-circle" cx="34" cy="34" r="18" />
    <text class="step-text" x="34" y="40" text-anchor="middle">4</text>
    <text class="card-title" x="66" y="42">ANALYSIS</text>
    <text class="card-body" x="28" y="86">Open built-in Streamlit views.</text>
    <text class="card-body" x="28" y="114">Explore exported artifacts and results.</text>
    <text class="mini" x="28" y="178">The demo ends with visible outputs,</text>
    <text class="mini" x="28" y="200">not only shell logs.</text>
  </g>

  <line class="arrow" x1="358" y1="367" x2="380" y2="367" marker-end="url(#arrowhead)" />
  <line class="arrow" x1="668" y1="367" x2="690" y2="367" marker-end="url(#arrowhead)" />
  <line class="arrow" x1="978" y1="367" x2="1000" y2="367" marker-end="url(#arrowhead)" />

  <g transform="translate(80,534)">
    <text class="section" x="0" y="0">Why this matters</text>
    <line class="line" x1="152" y1="-8" x2="1200" y2="-8" />
  </g>

  <g transform="translate(80,564)">
    <rect class="card shadow" width="380" height="176" fill="#ffffff" />
    <text class="value-title" x="28" y="44">Without AGILAB</text>
    <text class="value-body" x="28" y="82">You hand-wire environments, scripts, SSH targets,</text>
    <text class="value-body" x="28" y="108">logs, and analysis views for each experiment.</text>
    <text class="value-body" x="28" y="134">The orchestration burden grows before the model work does.</text>
  </g>

  <g transform="translate(490,564)">
    <rect class="card shadow" width="380" height="176" fill="#ffffff" />
    <text class="value-title" x="28" y="44">With AGILAB</text>
    <text class="value-body" x="28" y="82">The same app moves from UI to workers to results</text>
    <text class="value-body" x="28" y="108">through one control path and one documented stack.</text>
    <text class="value-body" x="28" y="134">That is the productivity gain to evaluate first.</text>
  </g>

  <g transform="translate(900,564)">
    <rect class="card shadow" width="380" height="176" fill="#ffffff" />
    <text class="value-title" x="28" y="44">Best fit</text>
    <text class="value-body" x="28" y="82">Teams who need reproducible experimentation,</text>
    <text class="value-body" x="28" y="108">distributed execution, and operator-facing flows</text>
    <text class="value-body" x="28" y="134">before handing off to a larger production stack.</text>
  </g>

  <path class="soft-arrow" d="M 215 488 C 215 510 215 528 215 550" marker-end="url(#arrowhead-soft)" fill="none" />
  <path class="soft-arrow" d="M 525 488 C 525 510 680 528 680 550" marker-end="url(#arrowhead-soft)" fill="none" />
  <path class="soft-arrow" d="M 835 488 C 835 510 1090 528 1090 550" marker-end="url(#arrowhead-soft)" fill="none" />
</svg>
