<svg xmlns="http://www.w3.org/2000/svg" width="1400" height="880" viewBox="0 0 1400 880" role="img" aria-labelledby="title desc">
  <title id="title">AGILab dual DAG concept</title>
  <desc id="desc">Diagram showing one AGILab DAG contract projected into a conceptual review view and an execution runner view, linked by stable node IDs, artifact names, and provenance.</desc>
  <defs>
    <style>
      .bg { fill: #f7f6f2; }
      .title { font: 700 34px "DejaVu Sans", Arial, sans-serif; fill: #1c2b32; }
      .subtitle { font: 500 18px "DejaVu Sans", Arial, sans-serif; fill: #4f626b; }
      .source { fill: #fffdf8; stroke: #60727a; stroke-width: 2; }
      .concept-lane { fill: #e9f3fb; stroke: #3a7199; stroke-width: 2.4; }
      .execution-lane { fill: #f4efe3; stroke: #94722f; stroke-width: 2.4; }
      .bridge { fill: #eef2ee; stroke: #5f756e; stroke-width: 2; }
      .concept-node { fill: #fbfdff; stroke: #3a7199; stroke-width: 2; }
      .execution-node { fill: #fffdf8; stroke: #94722f; stroke-width: 2; }
      .source-node { fill: #f8fbfb; stroke: #60727a; stroke-width: 1.8; }
      .lane-title { font: 700 23px "DejaVu Sans", Arial, sans-serif; fill: #20313a; }
      .lane-note { font: 500 15px "DejaVu Sans", Arial, sans-serif; fill: #536770; }
      .box-title { font: 700 17px "DejaVu Sans", Arial, sans-serif; fill: #1f2e35; }
      .body { font: 15px "DejaVu Sans", Arial, sans-serif; fill: #263942; }
      .small { font: 13.5px "DejaVu Sans", Arial, sans-serif; fill: #56666d; }
      .chip { fill: #ffffff; stroke: #bac6c7; stroke-width: 1.3; }
      .chip-text { font: 700 14px "DejaVu Sans", Arial, sans-serif; fill: #2f454d; }
      .concept-arrow { stroke: #2d6f9f; stroke-width: 3.2; fill: none; marker-end: url(#arrowConcept); }
      .execution-arrow { stroke: #8b6724; stroke-width: 3.2; fill: none; marker-end: url(#arrowExecution); }
      .source-arrow { stroke: #60727a; stroke-width: 3; fill: none; marker-end: url(#arrowSource); }
      .trace { stroke: #738987; stroke-width: 2.2; stroke-dasharray: 8 8; fill: none; }
      .divider { stroke: #c7d1d2; stroke-width: 1.4; stroke-dasharray: 5 7; }
    </style>
    <marker id="arrowConcept" markerWidth="12" markerHeight="12" refX="10" refY="6" orient="auto">
      <path d="M 0 0 L 12 6 L 0 12 z" fill="#2d6f9f"/>
    </marker>
    <marker id="arrowExecution" markerWidth="12" markerHeight="12" refX="10" refY="6" orient="auto">
      <path d="M 0 0 L 12 6 L 0 12 z" fill="#8b6724"/>
    </marker>
    <marker id="arrowSource" markerWidth="12" markerHeight="12" refX="10" refY="6" orient="auto">
      <path d="M 0 0 L 12 6 L 0 12 z" fill="#60727a"/>
    </marker>
  </defs>

  <rect class="bg" x="0" y="0" width="1400" height="880"/>

  <text class="title" x="700" y="56" text-anchor="middle">Dual DAG concept</text>
  <text class="subtitle" x="700" y="88" text-anchor="middle">One workflow contract, two synchronized projections: readable intent above, executable state below.</text>

  <g id="source-contract">
    <rect class="source" x="56" y="280" width="230" height="276" rx="24" ry="24"/>
    <text class="lane-title" x="171" y="322" text-anchor="middle">DAG contract</text>
    <text class="lane-note" x="171" y="348" text-anchor="middle">single source of truth</text>

    <rect class="source-node" x="86" y="380" width="170" height="42" rx="14" ry="14"/>
    <text class="chip-text" x="171" y="407" text-anchor="middle">multi_app_dag.json</text>

    <rect class="source-node" x="86" y="438" width="170" height="42" rx="14" ry="14"/>
    <text class="chip-text" x="171" y="465" text-anchor="middle">pipeline_view.dot</text>

    <rect class="source-node" x="86" y="496" width="170" height="42" rx="14" ry="14"/>
    <text class="chip-text" x="171" y="523" text-anchor="middle">artifact edges</text>
  </g>

  <g id="conceptual-view">
    <rect class="concept-lane" x="330" y="126" width="1014" height="258" rx="28" ry="28"/>
    <text class="lane-title" x="366" y="166">Conceptual DAG view</text>
    <text class="lane-note" x="366" y="193">Reviewer-facing view: what the workflow means, where artifacts move, and why dependencies exist.</text>

    <rect class="concept-node" x="366" y="228" width="188" height="102" rx="16" ry="16"/>
    <text class="box-title" x="460" y="258" text-anchor="middle">Domain nodes</text>
    <text class="body" x="386" y="284">
      <tspan x="386" dy="0">Apps and named</tspan>
      <tspan x="386" dy="20">workflow steps.</tspan>
    </text>
    <text class="small" x="386" y="320">Example: queue baseline</text>

    <rect class="concept-node" x="616" y="228" width="188" height="102" rx="16" ry="16"/>
    <text class="box-title" x="710" y="258" text-anchor="middle">Local pipeline</text>
    <text class="body" x="636" y="284">
      <tspan x="636" dy="0">App-level steps from</tspan>
      <tspan x="636" dy="20">pipeline_view files.</tspan>
    </text>
    <text class="small" x="636" y="320">Readable expansion</text>

    <rect class="concept-node" x="866" y="228" width="188" height="102" rx="16" ry="16"/>
    <text class="box-title" x="960" y="258" text-anchor="middle">Artifact handoff</text>
    <text class="body" x="886" y="284">
      <tspan x="886" dy="0">Explicit cross-app</tspan>
      <tspan x="886" dy="20">data dependency.</tspan>
    </text>
    <text class="small" x="886" y="320">Example: queue_metrics</text>

    <rect class="concept-node" x="1116" y="228" width="188" height="102" rx="16" ry="16"/>
    <text class="box-title" x="1210" y="258" text-anchor="middle">Review map</text>
    <text class="body" x="1136" y="284">
      <tspan x="1136" dy="0">Clear graph for design,</tspan>
      <tspan x="1136" dy="20">QA, and documentation.</tspan>
    </text>
    <text class="small" x="1136" y="320">No runner side effects</text>

    <path class="concept-arrow" d="M 554 279 L 602 279"/>
    <path class="concept-arrow" d="M 804 279 L 852 279"/>
    <path class="concept-arrow" d="M 1054 279 L 1102 279"/>
  </g>

  <g id="projection-bridge">
    <rect class="bridge" x="464" y="404" width="746" height="62" rx="22" ry="22"/>
    <text class="box-title" x="837" y="431" text-anchor="middle">Shared identity keeps both views aligned</text>
    <text class="body" x="837" y="454" text-anchor="middle">stable node IDs, artifact names, status records, and provenance paths</text>

    <path class="trace" d="M 460 330 L 460 404"/>
    <path class="trace" d="M 710 330 L 710 404"/>
    <path class="trace" d="M 960 330 L 960 404"/>
    <path class="trace" d="M 1210 330 L 1210 404"/>
    <path class="trace" d="M 460 466 L 460 540"/>
    <path class="trace" d="M 710 466 L 710 540"/>
    <path class="trace" d="M 960 466 L 960 540"/>
    <path class="trace" d="M 1210 466 L 1210 540"/>
  </g>

  <g id="execution-view">
    <rect class="execution-lane" x="330" y="486" width="1014" height="258" rx="28" ry="28"/>
    <text class="lane-title" x="366" y="526">Execution DAG view</text>
    <text class="lane-note" x="366" y="553">Runner-facing view: which units can run, which artifacts are available, and what the operator can do next.</text>

    <rect class="execution-node" x="366" y="588" width="188" height="102" rx="16" ry="16"/>
    <text class="box-title" x="460" y="618" text-anchor="middle">Plan units</text>
    <text class="body" x="386" y="644">
      <tspan x="386" dy="0">Topological order and</tspan>
      <tspan x="386" dy="20">runnable work items.</tspan>
    </text>
    <text class="small" x="386" y="680">pending to runnable</text>

    <rect class="execution-node" x="616" y="588" width="188" height="102" rx="16" ry="16"/>
    <text class="box-title" x="710" y="618" text-anchor="middle">Readiness gates</text>
    <text class="body" x="636" y="644">
      <tspan x="636" dy="0">Blocked until upstream</tspan>
      <tspan x="636" dy="20">artifacts are present.</tspan>
    </text>
    <text class="small" x="636" y="680">runnable or blocked</text>

    <rect class="execution-node" x="866" y="588" width="188" height="102" rx="16" ry="16"/>
    <text class="box-title" x="960" y="618" text-anchor="middle">Dispatch state</text>
    <text class="body" x="886" y="644">
      <tspan x="886" dy="0">Persisted outputs, retry</tspan>
      <tspan x="886" dy="20">counters, and timestamps.</tspan>
    </text>
    <text class="small" x="886" y="680">auditable state</text>

    <rect class="execution-node" x="1116" y="588" width="188" height="102" rx="16" ry="16"/>
    <text class="box-title" x="1210" y="618" text-anchor="middle">Operator UI</text>
    <text class="body" x="1136" y="644">
      <tspan x="1136" dy="0">Status, dependency view,</tspan>
      <tspan x="1136" dy="20">retry, and partial rerun.</tspan>
    </text>
    <text class="small" x="1136" y="680">actionable controls</text>

    <path class="execution-arrow" d="M 554 639 L 602 639"/>
    <path class="execution-arrow" d="M 804 639 L 852 639"/>
    <path class="execution-arrow" d="M 1054 639 L 1102 639"/>
  </g>

  <g id="source-projections">
    <path class="source-arrow" d="M 286 365 C 302 365 304 254 352 254"/>
    <path class="source-arrow" d="M 286 486 C 302 486 304 614 352 614"/>
    <text class="small" x="300" y="318" text-anchor="middle">readable</text>
    <text class="small" x="302" y="589" text-anchor="middle">runnable</text>
  </g>

  <g id="footer">
    <line class="divider" x1="56" y1="784" x2="1344" y2="784"/>
    <rect class="chip" x="188" y="810" width="250" height="42" rx="16" ry="16"/>
    <text class="chip-text" x="313" y="836" text-anchor="middle">one contract, no duplicate graph</text>

    <rect class="chip" x="492" y="810" width="236" height="42" rx="16" ry="16"/>
    <text class="chip-text" x="610" y="836" text-anchor="middle">conceptual view explains intent</text>

    <rect class="chip" x="782" y="810" width="226" height="42" rx="16" ry="16"/>
    <text class="chip-text" x="895" y="836" text-anchor="middle">execution view drives state</text>

    <rect class="chip" x="1062" y="810" width="248" height="42" rx="16" ry="16"/>
    <text class="chip-text" x="1186" y="836" text-anchor="middle">provenance links them together</text>
  </g>
</svg>
