<svg xmlns="http://www.w3.org/2000/svg" width="1260" height="700" viewBox="0 0 1260 700" role="img" aria-labelledby="title desc">
  <title id="title">Execution benchmark families</title>
  <desc id="desc">Compact benchmark summary showing three execution families for execution_pandas_project and execution_polars_project on two Macs. Lower time is better.</desc>

  <rect width="1260" height="700" fill="#f5f8fc"/>

  <rect x="52" y="36" width="620" height="112" rx="26" fill="#ffffff" stroke="#d7e1ec" stroke-width="2"/>
  <text x="84" y="77" font-family="Arial, Helvetica, sans-serif" font-size="32" font-weight="700" fill="#10243e">3 execution families, 2 different winners</text>
  <text x="84" y="108" font-family="Arial, Helvetica, sans-serif" font-size="18" fill="#496580">Same workload, same orchestration, but clearly different winning paths.</text>
  <text x="84" y="133" font-family="Arial, Helvetica, sans-serif" font-size="16" fill="#6b829a">Lower is better. Read rows 0-7; RAPIDS rows stay CPU-only on these Macs.</text>

  <rect x="700" y="36" width="508" height="136" rx="26" fill="#10243e"/>
  <text x="714" y="76" font-family="Arial, Helvetica, sans-serif" font-size="18" font-weight="700" fill="#ffffff">How to read it in 10 seconds</text>
  <text x="714" y="104" font-family="Arial, Helvetica, sans-serif" font-size="15" fill="#d2deea">1. Start from the grey local baseline.</text>
  <text x="714" y="126" font-family="Arial, Helvetica, sans-serif" font-size="15" fill="#d2deea">
    <tspan x="714" dy="0">2. Compare the teal local pool family and the blue</tspan>
    <tspan x="714" dy="18">2-node Dask family.</tspan>
  </text>
  <text x="714" y="158" font-family="Arial, Helvetica, sans-serif" font-size="15" fill="#d2deea">3. The winner chip tells you which execution model actually pays off.</text>

  <rect x="52" y="188" width="532" height="420" rx="30" fill="#ffffff" stroke="#d7e1ec" stroke-width="2"/>
  <rect x="676" y="188" width="532" height="420" rx="30" fill="#ffffff" stroke="#d7e1ec" stroke-width="2"/>

  <rect x="84" y="216" width="170" height="34" rx="17" fill="#edf4fb"/>
  <text x="108" y="239" font-family="Arial, Helvetica, sans-serif" font-size="16" font-weight="700" fill="#21476d">execution_pandas_project</text>
  <rect x="364" y="216" width="180" height="34" rx="17" fill="#e9efff"/>
  <text x="391" y="239" font-family="Arial, Helvetica, sans-serif" font-size="16" font-weight="700" fill="#2f50c9">Winner: _d__  -39%</text>
  <text x="84" y="280" font-family="Arial, Helvetica, sans-serif" font-size="18" fill="#496580">Dask wins, but only slightly ahead of the local pool family.</text>

  <text x="84" y="336" font-family="Arial, Helvetica, sans-serif" font-size="16" font-weight="700" fill="#17324f">Local baseline</text>
  <text x="84" y="356" font-family="Arial, Helvetica, sans-serif" font-size="14" fill="#6b829a">modes 0-2</text>
  <rect x="216" y="327" width="282" height="38" rx="12" fill="#99a8b8"/>
  <text x="514" y="352" font-family="Arial, Helvetica, sans-serif" font-size="20" font-weight="700" fill="#17324f">0.885s</text>
  <text x="84" y="392" font-family="Arial, Helvetica, sans-serif" font-size="16" font-weight="700" fill="#17324f">Local pool / process</text>
  <text x="84" y="412" font-family="Arial, Helvetica, sans-serif" font-size="14" fill="#6b829a">best mode __cp</text>
  <rect x="260" y="383" width="143" height="38" rx="12" fill="#11a5b7"/>
  <rect x="420" y="383" width="74" height="30" rx="15" fill="#d9f5f9"/>
  <text x="438" y="404" font-family="Arial, Helvetica, sans-serif" font-size="16" font-weight="700" fill="#0b7a88">-35%</text>
  <text x="84" y="448" font-family="Arial, Helvetica, sans-serif" font-size="16" font-weight="700" fill="#17324f">2-node Dask</text>
  <text x="84" y="468" font-family="Arial, Helvetica, sans-serif" font-size="14" fill="#6b829a">best mode _d__</text>
  <rect x="260" y="439" width="134" height="38" rx="12" fill="#3d63ff"/>
  <rect x="411" y="439" width="74" height="30" rx="15" fill="#dde4ff"/>
  <text x="429" y="460" font-family="Arial, Helvetica, sans-serif" font-size="16" font-weight="700" fill="#3150cb">-39%</text>

  <rect x="84" y="510" width="460" height="72" rx="18" fill="#f6f9fd" stroke="#e3ebf4" stroke-width="2"/>
  <text x="108" y="539" font-family="Arial, Helvetica, sans-serif" font-size="15" fill="#496580">Family split</text>
  <text x="108" y="565" font-family="Arial, Helvetica, sans-serif" font-size="24" font-weight="700" fill="#17324f">0.885 → 0.575 → 0.540</text>
  <text x="520" y="565" text-anchor="end" font-family="Arial, Helvetica, sans-serif" font-size="14" fill="#6b829a">baseline → pool → Dask</text>

  <rect x="708" y="216" width="166" height="34" rx="17" fill="#edf4fb"/>
  <text x="732" y="239" font-family="Arial, Helvetica, sans-serif" font-size="16" font-weight="700" fill="#21476d">execution_polars_project</text>
  <rect x="988" y="216" width="186" height="34" rx="17" fill="#e9efff"/>
  <text x="1015" y="239" font-family="Arial, Helvetica, sans-serif" font-size="16" font-weight="700" fill="#2f50c9">Winner: _d_p  -70%</text>
  <text x="708" y="280" font-family="Arial, Helvetica, sans-serif" font-size="18" fill="#496580">The 2-node Dask family separates very clearly from the local baseline.</text>

  <text x="708" y="336" font-family="Arial, Helvetica, sans-serif" font-size="16" font-weight="700" fill="#17324f">Local baseline</text>
  <text x="708" y="356" font-family="Arial, Helvetica, sans-serif" font-size="14" fill="#6b829a">modes 0-2</text>
  <rect x="840" y="327" width="282" height="38" rx="12" fill="#99a8b8"/>
  <text x="1138" y="352" font-family="Arial, Helvetica, sans-serif" font-size="20" font-weight="700" fill="#17324f">0.885s</text>
  <text x="708" y="392" font-family="Arial, Helvetica, sans-serif" font-size="16" font-weight="700" fill="#17324f">Local pool / process</text>
  <text x="708" y="412" font-family="Arial, Helvetica, sans-serif" font-size="14" fill="#6b829a">best mode ___p</text>
  <rect x="884" y="383" width="107" height="38" rx="12" fill="#11a5b7"/>
  <rect x="1008" y="383" width="74" height="30" rx="15" fill="#d9f5f9"/>
  <text x="1026" y="404" font-family="Arial, Helvetica, sans-serif" font-size="16" font-weight="700" fill="#0b7a88">-51%</text>
  <text x="708" y="448" font-family="Arial, Helvetica, sans-serif" font-size="16" font-weight="700" fill="#17324f">2-node Dask</text>
  <text x="708" y="468" font-family="Arial, Helvetica, sans-serif" font-size="14" fill="#6b829a">best mode _d_p</text>
  <rect x="884" y="439" width="65" height="38" rx="12" fill="#3d63ff"/>
  <rect x="966" y="439" width="74" height="30" rx="15" fill="#dde4ff"/>
  <text x="984" y="460" font-family="Arial, Helvetica, sans-serif" font-size="16" font-weight="700" fill="#3150cb">-70%</text>

  <rect x="708" y="510" width="460" height="72" rx="18" fill="#f6f9fd" stroke="#e3ebf4" stroke-width="2"/>
  <text x="732" y="539" font-family="Arial, Helvetica, sans-serif" font-size="15" fill="#496580">Family split</text>
  <text x="732" y="565" font-family="Arial, Helvetica, sans-serif" font-size="24" font-weight="700" fill="#17324f">0.885 → 0.430 → 0.262</text>
  <text x="1144" y="565" text-anchor="end" font-family="Arial, Helvetica, sans-serif" font-size="14" fill="#6b829a">baseline → pool → Dask</text>

  <rect x="52" y="644" width="18" height="18" rx="5" fill="#99a8b8"/>
  <text x="82" y="658" font-family="Arial, Helvetica, sans-serif" font-size="15" fill="#5b728b">Local Python/Cython baseline</text>
  <rect x="336" y="644" width="18" height="18" rx="5" fill="#11a5b7"/>
  <text x="366" y="658" font-family="Arial, Helvetica, sans-serif" font-size="15" fill="#5b728b">Local pool/process family</text>
  <rect x="618" y="644" width="18" height="18" rx="5" fill="#3d63ff"/>
  <text x="648" y="658" font-family="Arial, Helvetica, sans-serif" font-size="15" fill="#5b728b">2-node Dask family</text>
  <text x="900" y="658" font-family="Arial, Helvetica, sans-serif" font-size="15" fill="#5b728b">Lower time = shorter bar = better fit</text>
</svg>
