<svg xmlns="http://www.w3.org/2000/svg" width="1200" height="660" viewBox="0 0 1200 660" role="img" aria-labelledby="title desc">
  <title id="title">Execution benchmark families</title>
  <desc id="desc">Compact benchmark summary showing three execution families for execution_pandas_project and execution_polars_project on two Macs. Lower time is better.</desc>

  <rect width="1200" height="660" fill="#f5f8fc"/>

  <rect x="52" y="36" width="570" height="104" rx="26" fill="#ffffff" stroke="#d7e1ec" stroke-width="2"/>
  <text x="84" y="78" font-family="Arial, Helvetica, sans-serif" font-size="34" font-weight="700" fill="#10243e">3 execution families, 2 different winners</text>
  <text x="84" y="109" font-family="Arial, Helvetica, sans-serif" font-size="18" fill="#496580">Same workload, same orchestration, but clearly different winning paths.</text>
  <text x="84" y="132" font-family="Arial, Helvetica, sans-serif" font-size="16" fill="#6b829a">Lower is better. Read rows 0-7; RAPIDS rows stay CPU-only on these Macs.</text>

  <rect x="652" y="36" width="496" height="104" rx="26" fill="#10243e"/>
  <text x="684" y="76" font-family="Arial, Helvetica, sans-serif" font-size="18" font-weight="700" fill="#ffffff">How to read it in 10 seconds</text>
  <text x="684" y="105" font-family="Arial, Helvetica, sans-serif" font-size="16" fill="#d2deea">1. Start from the grey local baseline.</text>
  <text x="684" y="127" font-family="Arial, Helvetica, sans-serif" font-size="16" fill="#d2deea">2. Compare the teal local pool family and the blue 2-node Dask family.</text>
  <text x="684" y="149" font-family="Arial, Helvetica, sans-serif" font-size="16" fill="#d2deea">3. The winner chip tells you which execution model actually pays off.</text>

  <rect x="52" y="176" width="532" height="404" rx="30" fill="#ffffff" stroke="#d7e1ec" stroke-width="2"/>
  <rect x="616" y="176" width="532" height="404" rx="30" fill="#ffffff" stroke="#d7e1ec" stroke-width="2"/>

  <rect x="84" y="204" width="170" height="34" rx="17" fill="#edf4fb"/>
  <text x="108" y="227" font-family="Arial, Helvetica, sans-serif" font-size="16" font-weight="700" fill="#21476d">execution_pandas_project</text>
  <rect x="364" y="204" width="180" height="34" rx="17" fill="#e9efff"/>
  <text x="391" y="227" font-family="Arial, Helvetica, sans-serif" font-size="16" font-weight="700" fill="#2f50c9">Winner: _d__  -39%</text>
  <text x="84" y="268" font-family="Arial, Helvetica, sans-serif" font-size="18" fill="#496580">Dask wins, but only slightly ahead of the local pool family.</text>

  <text x="84" y="322" font-family="Arial, Helvetica, sans-serif" font-size="16" font-weight="700" fill="#17324f">Local baseline</text>
  <text x="84" y="342" font-family="Arial, Helvetica, sans-serif" font-size="14" fill="#6b829a">modes 0-2</text>
  <rect x="216" y="313" width="282" height="38" rx="12" fill="#99a8b8"/>
  <text x="514" y="338" font-family="Arial, Helvetica, sans-serif" font-size="20" font-weight="700" fill="#17324f">0.885s</text>
  <text x="216" y="374" font-family="Arial, Helvetica, sans-serif" font-size="16" font-weight="700" fill="#17324f">Local pool / process</text>
  <text x="216" y="394" font-family="Arial, Helvetica, sans-serif" font-size="14" fill="#6b829a">best mode __cp</text>
  <rect x="216" y="365" width="183" height="38" rx="12" fill="#11a5b7"/>
  <rect x="416" y="365" width="74" height="30" rx="15" fill="#d9f5f9"/>
  <text x="434" y="386" font-family="Arial, Helvetica, sans-serif" font-size="16" font-weight="700" fill="#0b7a88">-35%</text>
  <text x="84" y="426" font-family="Arial, Helvetica, sans-serif" font-size="16" font-weight="700" fill="#17324f">2-node Dask</text>
  <text x="84" y="446" font-family="Arial, Helvetica, sans-serif" font-size="14" fill="#6b829a">best mode _d__</text>
  <rect x="216" y="417" width="172" height="38" rx="12" fill="#3d63ff"/>
  <rect x="405" y="417" width="74" height="30" rx="15" fill="#dde4ff"/>
  <text x="423" y="438" font-family="Arial, Helvetica, sans-serif" font-size="16" font-weight="700" fill="#3150cb">-39%</text>

  <rect x="84" y="488" width="460" height="66" rx="18" fill="#f6f9fd" stroke="#e3ebf4" stroke-width="2"/>
  <text x="108" y="517" font-family="Arial, Helvetica, sans-serif" font-size="15" fill="#496580">Family split</text>
  <text x="108" y="541" font-family="Arial, Helvetica, sans-serif" font-size="24" font-weight="700" fill="#17324f">0.885 → 0.575 → 0.540</text>
  <text x="382" y="541" font-family="Arial, Helvetica, sans-serif" font-size="15" fill="#6b829a">baseline → pool → Dask</text>

  <rect x="648" y="204" width="166" height="34" rx="17" fill="#edf4fb"/>
  <text x="672" y="227" font-family="Arial, Helvetica, sans-serif" font-size="16" font-weight="700" fill="#21476d">execution_polars_project</text>
  <rect x="928" y="204" width="186" height="34" rx="17" fill="#e9efff"/>
  <text x="955" y="227" font-family="Arial, Helvetica, sans-serif" font-size="16" font-weight="700" fill="#2f50c9">Winner: _d_p  -70%</text>
  <text x="648" y="268" font-family="Arial, Helvetica, sans-serif" font-size="18" fill="#496580">The 2-node Dask family separates very clearly from the local baseline.</text>

  <text x="648" y="322" font-family="Arial, Helvetica, sans-serif" font-size="16" font-weight="700" fill="#17324f">Local baseline</text>
  <text x="648" y="342" font-family="Arial, Helvetica, sans-serif" font-size="14" fill="#6b829a">modes 0-2</text>
  <rect x="780" y="313" width="282" height="38" rx="12" fill="#99a8b8"/>
  <text x="1078" y="338" font-family="Arial, Helvetica, sans-serif" font-size="20" font-weight="700" fill="#17324f">0.885s</text>
  <text x="648" y="374" font-family="Arial, Helvetica, sans-serif" font-size="16" font-weight="700" fill="#17324f">Local pool / process</text>
  <text x="648" y="394" font-family="Arial, Helvetica, sans-serif" font-size="14" fill="#6b829a">best mode ___p</text>
  <rect x="780" y="365" width="137" height="38" rx="12" fill="#11a5b7"/>
  <rect x="934" y="365" width="74" height="30" rx="15" fill="#d9f5f9"/>
  <text x="952" y="386" font-family="Arial, Helvetica, sans-serif" font-size="16" font-weight="700" fill="#0b7a88">-51%</text>
  <text x="648" y="426" font-family="Arial, Helvetica, sans-serif" font-size="16" font-weight="700" fill="#17324f">2-node Dask</text>
  <text x="648" y="446" font-family="Arial, Helvetica, sans-serif" font-size="14" fill="#6b829a">best mode _d_p</text>
  <rect x="780" y="417" width="84" height="38" rx="12" fill="#3d63ff"/>
  <rect x="881" y="417" width="74" height="30" rx="15" fill="#dde4ff"/>
  <text x="899" y="438" font-family="Arial, Helvetica, sans-serif" font-size="16" font-weight="700" fill="#3150cb">-70%</text>

  <rect x="648" y="488" width="460" height="66" rx="18" fill="#f6f9fd" stroke="#e3ebf4" stroke-width="2"/>
  <text x="672" y="517" font-family="Arial, Helvetica, sans-serif" font-size="15" fill="#496580">Family split</text>
  <text x="672" y="541" font-family="Arial, Helvetica, sans-serif" font-size="24" font-weight="700" fill="#17324f">0.885 → 0.430 → 0.262</text>
  <text x="946" y="541" font-family="Arial, Helvetica, sans-serif" font-size="15" fill="#6b829a">baseline → pool → Dask</text>

  <rect x="52" y="602" width="18" height="18" rx="5" fill="#99a8b8"/>
  <text x="82" y="616" font-family="Arial, Helvetica, sans-serif" font-size="15" fill="#5b728b">Local Python/Cython baseline</text>
  <rect x="336" y="602" width="18" height="18" rx="5" fill="#11a5b7"/>
  <text x="366" y="616" font-family="Arial, Helvetica, sans-serif" font-size="15" fill="#5b728b">Local pool/process family</text>
  <rect x="618" y="602" width="18" height="18" rx="5" fill="#3d63ff"/>
  <text x="648" y="616" font-family="Arial, Helvetica, sans-serif" font-size="15" fill="#5b728b">2-node Dask family</text>
  <text x="980" y="616" font-family="Arial, Helvetica, sans-serif" font-size="15" fill="#5b728b">Lower time = shorter bar = better fit</text>
</svg>
