<?xml version="1.0" encoding="UTF-8" standalone="no"?>
<!DOCTYPE svg PUBLIC "-//W3C//DTD SVG 1.1//EN"
 "http://www.w3.org/Graphics/SVG/1.1/DTD/svg11.dtd">
<!-- Generated by graphviz version 14.1.2 (20260124.0452)
 -->
<!-- Title: packages_agi_node Pages: 1 -->
<svg width="3408pt" height="210pt"
 viewBox="0.00 0.00 3408.00 210.00" xmlns="http://www.w3.org/2000/svg" xmlns:xlink="http://www.w3.org/1999/xlink">
<g id="graph0" class="graph" transform="scale(1 1) rotate(0) translate(4 206)">
<title>packages_agi_node</title>
<polygon fill="white" stroke="none" points="-4,4 -4,-206 3403.5,-206 3403.5,4 -4,4"/>
<!-- agilab.src.agilab.core.agi&#45;node.src.agi_node.agi_dispatcher -->
<g id="node1" class="node">
<title>agilab.src.agilab.core.agi&#45;node.src.agi_node.agi_dispatcher</title>
<polygon fill="#f8f9fb" stroke="#77aadd" stroke-width="1.1" points="305.12,-202 32.62,-202 32.62,-166 305.12,-166 305.12,-202"/>
<text xml:space="preserve" text-anchor="start" x="40.62" y="-180.12" font-family="Helvetica,sans-Serif" font-size="10.00">agilab.src.agilab.core.agi&#45;node.src.agi_node.agi_dispatcher</text>
</g>
<!-- agilab.src.agilab.core.agi&#45;node.src.agi_node.agi_dispatcher&#45;&gt;agilab.src.agilab.core.agi&#45;node.src.agi_node.agi_dispatcher -->
<g id="edge1" class="edge">
<title>agilab.src.agilab.core.agi&#45;node.src.agi_node.agi_dispatcher&#45;&gt;agilab.src.agilab.core.agi&#45;node.src.agi_node.agi_dispatcher</title>
<path fill="none" stroke="#4a5568" stroke-width="1.05" d="M305.53,-197.89C324.47,-195.6 337.12,-190.97 337.12,-184 337.12,-178.5 329.24,-174.46 316.61,-171.87"/>
<polygon fill="#4a5568" stroke="#4a5568" stroke-width="1.05" points="306.79,-170.31 317.37,-167.44 310.47,-170.87 316.67,-171.86 316.67,-171.88 316.66,-171.91 310.46,-170.92 315.96,-176.33 306.79,-170.31"/>
</g>
<!-- agilab.src.agilab.core.agi&#45;node.src.agi_node.agi_dispatcher.base_worker -->
<g id="node3" class="node">
<title>agilab.src.agilab.core.agi&#45;node.src.agi_node.agi_dispatcher.base_worker</title>
<polygon fill="#f8f9fb" stroke="#77aadd" stroke-width="1.1" points="334,-119 3.75,-119 3.75,-83 334,-83 334,-119"/>
<text xml:space="preserve" text-anchor="start" x="11.75" y="-97.12" font-family="Helvetica,sans-Serif" font-size="10.00">agilab.src.agilab.core.agi&#45;node.src.agi_node.agi_dispatcher.base_worker</text>
</g>
<!-- agilab.src.agilab.core.agi&#45;node.src.agi_node.agi_dispatcher&#45;&gt;agilab.src.agilab.core.agi&#45;node.src.agi_node.agi_dispatcher.base_worker -->
<g id="edge2" class="edge">
<title>agilab.src.agilab.core.agi&#45;node.src.agi_node.agi_dispatcher&#45;&gt;agilab.src.agilab.core.agi&#45;node.src.agi_node.agi_dispatcher.base_worker</title>
<path fill="none" stroke="#4a5568" stroke-width="1.05" d="M168.88,-165.82C168.88,-155.58 168.88,-142.33 168.88,-130.55"/>
<polygon fill="#4a5568" stroke="#4a5568" stroke-width="1.05" points="168.88,-120.71 173.38,-130.71 168.9,-124.43 168.9,-130.71 168.88,-130.71 168.85,-130.71 168.85,-124.43 164.38,-130.71 168.88,-120.71"/>
</g>
<!-- agilab.src.agilab.core.agi&#45;node.src.agi_node.agi_dispatcher.agi_dispatcher -->
<g id="node2" class="node">
<title>agilab.src.agilab.core.agi&#45;node.src.agi_node.agi_dispatcher.agi_dispatcher</title>
<polygon fill="#f8f9fb" stroke="#77aadd" stroke-width="1.1" points="337.75,-36 0,-36 0,0 337.75,0 337.75,-36"/>
<text xml:space="preserve" text-anchor="start" x="8" y="-14.12" font-family="Helvetica,sans-Serif" font-size="10.00">agilab.src.agilab.core.agi&#45;node.src.agi_node.agi_dispatcher.agi_dispatcher</text>
</g>
<!-- agilab.src.agilab.core.agi&#45;node.src.agi_node.agi_dispatcher.agi_dispatcher&#45;&gt;agilab.src.agilab.core.agi&#45;node.src.agi_node.agi_dispatcher.base_worker -->
<g id="edge3" class="edge">
<title>agilab.src.agilab.core.agi&#45;node.src.agi_node.agi_dispatcher.agi_dispatcher&#45;&gt;agilab.src.agilab.core.agi&#45;node.src.agi_node.agi_dispatcher.base_worker</title>
<path fill="none" stroke="#4a5568" stroke-width="1.05" d="M178.94,-36.43C180.89,-46.72 181.36,-59.99 180.37,-71.74"/>
<polygon fill="#4a5568" stroke="#4a5568" stroke-width="1.05" points="179.06,-81.55 175.93,-71.05 179.53,-77.86 180.36,-71.64 180.39,-71.64 180.41,-71.65 179.58,-77.87 184.85,-72.24 179.06,-81.55"/>
</g>
<!-- agilab.src.agilab.core.agi&#45;node.src.agi_node.agi_dispatcher.base_worker&#45;&gt;agilab.src.agilab.core.agi&#45;node.src.agi_node.agi_dispatcher.agi_dispatcher -->
<g id="edge4" class="edge">
<title>agilab.src.agilab.core.agi&#45;node.src.agi_node.agi_dispatcher.base_worker&#45;&gt;agilab.src.agilab.core.agi&#45;node.src.agi_node.agi_dispatcher.agi_dispatcher</title>
<path fill="none" stroke="#4a5568" stroke-width="1.05" d="M158.86,-82.82C156.89,-72.58 156.39,-59.33 157.35,-47.55"/>
<polygon fill="#4a5568" stroke="#4a5568" stroke-width="1.05" points="158.64,-37.7 161.8,-48.2 158.18,-41.39 157.37,-47.62 157.34,-47.62 157.32,-47.61 158.13,-41.39 152.88,-47.03 158.64,-37.7"/>
</g>
<!-- agilab.src.agilab.core.agi&#45;node.src.agi_node.agi_dispatcher.build -->
<g id="node4" class="node">
<title>agilab.src.agilab.core.agi&#45;node.src.agi_node.agi_dispatcher.build</title>
<polygon fill="#f8f9fb" stroke="#77aadd" stroke-width="1.1" points="650.38,-202 355.38,-202 355.38,-166 650.38,-166 650.38,-202"/>
<text xml:space="preserve" text-anchor="start" x="363.38" y="-180.12" font-family="Helvetica,sans-Serif" font-size="10.00">agilab.src.agilab.core.agi&#45;node.src.agi_node.agi_dispatcher.build</text>
</g>
<!-- agilab.src.agilab.core.agi&#45;node.src.agi_node.agi_dispatcher.post_install -->
<g id="node5" class="node">
<title>agilab.src.agilab.core.agi&#45;node.src.agi_node.agi_dispatcher.post_install</title>
<polygon fill="#f8f9fb" stroke="#77aadd" stroke-width="1.1" points="1007,-202 682.75,-202 682.75,-166 1007,-166 1007,-202"/>
<text xml:space="preserve" text-anchor="start" x="690.75" y="-180.12" font-family="Helvetica,sans-Serif" font-size="10.00">agilab.src.agilab.core.agi&#45;node.src.agi_node.agi_dispatcher.post_install</text>
</g>
<!-- agilab.src.agilab.core.agi&#45;node.src.agi_node.agi_dispatcher.pre_install -->
<g id="node6" class="node">
<title>agilab.src.agilab.core.agi&#45;node.src.agi_node.agi_dispatcher.pre_install</title>
<polygon fill="#f8f9fb" stroke="#77aadd" stroke-width="1.1" points="1358.38,-202 1039.38,-202 1039.38,-166 1358.38,-166 1358.38,-202"/>
<text xml:space="preserve" text-anchor="start" x="1047.38" y="-180.12" font-family="Helvetica,sans-Serif" font-size="10.00">agilab.src.agilab.core.agi&#45;node.src.agi_node.agi_dispatcher.pre_install</text>
</g>
<!-- agilab.src.agilab.core.agi&#45;node.src.agi_node.dag_worker -->
<g id="node7" class="node">
<title>agilab.src.agilab.core.agi&#45;node.src.agi_node.dag_worker</title>
<polygon fill="#f8f9fb" stroke="#77aadd" stroke-width="1.1" points="1649.75,-202 1390,-202 1390,-166 1649.75,-166 1649.75,-202"/>
<text xml:space="preserve" text-anchor="start" x="1398" y="-180.12" font-family="Helvetica,sans-Serif" font-size="10.00">agilab.src.agilab.core.agi&#45;node.src.agi_node.dag_worker</text>
</g>
<!-- agilab.src.agilab.core.agi&#45;node.src.agi_node.dag_worker&#45;&gt;agilab.src.agilab.core.agi&#45;node.src.agi_node.dag_worker -->
<g id="edge5" class="edge">
<title>agilab.src.agilab.core.agi&#45;node.src.agi_node.dag_worker&#45;&gt;agilab.src.agilab.core.agi&#45;node.src.agi_node.dag_worker</title>
<path fill="none" stroke="#4a5568" stroke-width="1.05" d="M1650.07,-198.04C1669,-195.81 1681.75,-191.13 1681.75,-184 1681.75,-178.37 1673.81,-174.27 1661.16,-171.7"/>
<polygon fill="#4a5568" stroke="#4a5568" stroke-width="1.05" points="1651.33,-170.16 1661.91,-167.26 1655.01,-170.71 1661.22,-171.68 1661.21,-171.7 1661.21,-171.73 1655.01,-170.76 1660.52,-176.15 1651.33,-170.16"/>
</g>
<!-- agilab.src.agilab.core.agi&#45;node.src.agi_node.dag_worker.dag_worker -->
<g id="node8" class="node">
<title>agilab.src.agilab.core.agi&#45;node.src.agi_node.dag_worker.dag_worker</title>
<polygon fill="#f8f9fb" stroke="#77aadd" stroke-width="1.1" points="2012,-202 1699.75,-202 1699.75,-166 2012,-166 2012,-202"/>
<text xml:space="preserve" text-anchor="start" x="1707.75" y="-180.12" font-family="Helvetica,sans-Serif" font-size="10.00">agilab.src.agilab.core.agi&#45;node.src.agi_node.dag_worker.dag_worker</text>
</g>
<!-- agilab.src.agilab.core.agi&#45;node.src.agi_node.pandas_worker -->
<g id="node9" class="node">
<title>agilab.src.agilab.core.agi&#45;node.src.agi_node.pandas_worker</title>
<polygon fill="#f8f9fb" stroke="#77aadd" stroke-width="1.1" points="2319.62,-202 2044.12,-202 2044.12,-166 2319.62,-166 2319.62,-202"/>
<text xml:space="preserve" text-anchor="start" x="2052.12" y="-180.12" font-family="Helvetica,sans-Serif" font-size="10.00">agilab.src.agilab.core.agi&#45;node.src.agi_node.pandas_worker</text>
</g>
<!-- agilab.src.agilab.core.agi&#45;node.src.agi_node.pandas_worker&#45;&gt;agilab.src.agilab.core.agi&#45;node.src.agi_node.pandas_worker -->
<g id="edge6" class="edge">
<title>agilab.src.agilab.core.agi&#45;node.src.agi_node.pandas_worker&#45;&gt;agilab.src.agilab.core.agi&#45;node.src.agi_node.pandas_worker</title>
<path fill="none" stroke="#4a5568" stroke-width="1.05" d="M2320.08,-197.85C2339,-195.55 2351.62,-190.93 2351.62,-184 2351.62,-178.53 2343.77,-174.5 2331.15,-171.92"/>
<polygon fill="#4a5568" stroke="#4a5568" stroke-width="1.05" points="2321.34,-170.35 2331.93,-167.48 2325.02,-170.92 2331.22,-171.9 2331.22,-171.93 2331.21,-171.95 2325.01,-170.96 2330.51,-176.37 2321.34,-170.35"/>
</g>
<!-- agilab.src.agilab.core.agi&#45;node.src.agi_node.pandas_worker.pandas_worker -->
<g id="node10" class="node">
<title>agilab.src.agilab.core.agi&#45;node.src.agi_node.pandas_worker.pandas_worker</title>
<polygon fill="#f8f9fb" stroke="#77aadd" stroke-width="1.1" points="2713.75,-202 2370,-202 2370,-166 2713.75,-166 2713.75,-202"/>
<text xml:space="preserve" text-anchor="start" x="2378" y="-180.12" font-family="Helvetica,sans-Serif" font-size="10.00">agilab.src.agilab.core.agi&#45;node.src.agi_node.pandas_worker.pandas_worker</text>
</g>
<!-- agilab.src.agilab.core.agi&#45;node.src.agi_node.polars_worker -->
<g id="node11" class="node">
<title>agilab.src.agilab.core.agi&#45;node.src.agi_node.polars_worker</title>
<polygon fill="#f8f9fb" stroke="#77aadd" stroke-width="1.1" points="3016,-202 2745.75,-202 2745.75,-166 3016,-166 3016,-202"/>
<text xml:space="preserve" text-anchor="start" x="2753.75" y="-180.12" font-family="Helvetica,sans-Serif" font-size="10.00">agilab.src.agilab.core.agi&#45;node.src.agi_node.polars_worker</text>
</g>
<!-- agilab.src.agilab.core.agi&#45;node.src.agi_node.polars_worker&#45;&gt;agilab.src.agilab.core.agi&#45;node.src.agi_node.polars_worker -->
<g id="edge7" class="edge">
<title>agilab.src.agilab.core.agi&#45;node.src.agi_node.polars_worker&#45;&gt;agilab.src.agilab.core.agi&#45;node.src.agi_node.polars_worker</title>
<path fill="none" stroke="#4a5568" stroke-width="1.05" d="M3016.29,-197.93C3035.28,-195.65 3048,-191.01 3048,-184 3048,-178.47 3040.08,-174.41 3027.41,-171.83"/>
<polygon fill="#4a5568" stroke="#4a5568" stroke-width="1.05" points="3017.55,-170.27 3028.13,-167.39 3021.23,-170.83 3027.43,-171.81 3027.43,-171.83 3027.42,-171.86 3021.22,-170.88 3026.73,-176.28 3017.55,-170.27"/>
</g>
<!-- agilab.src.agilab.core.agi&#45;node.src.agi_node.polars_worker.polars_worker -->
<g id="node12" class="node">
<title>agilab.src.agilab.core.agi&#45;node.src.agi_node.polars_worker.polars_worker</title>
<polygon fill="#f8f9fb" stroke="#77aadd" stroke-width="1.1" points="3399.5,-202 3066.25,-202 3066.25,-166 3399.5,-166 3399.5,-202"/>
<text xml:space="preserve" text-anchor="start" x="3074.25" y="-180.12" font-family="Helvetica,sans-Serif" font-size="10.00">agilab.src.agilab.core.agi&#45;node.src.agi_node.polars_worker.polars_worker</text>
</g>
</g>
</svg>
