<?xml version="1.0" encoding="UTF-8" standalone="no"?>
<!DOCTYPE svg PUBLIC "-//W3C//DTD SVG 1.1//EN"
 "http://www.w3.org/Graphics/SVG/1.1/DTD/svg11.dtd">
<!-- Generated by graphviz version 14.1.5 (20260411.2331)
 -->
<!-- Title: packages_flight_telemetry Pages: 1 -->
<svg width="207pt" height="194pt"
 viewBox="3.00 3.00 204.00 191.00" xmlns="http://www.w3.org/2000/svg" xmlns:xlink="http://www.w3.org/1999/xlink">
<g id="graph0" class="graph" transform="scale(1 1) rotate(0) translate(6.88 186.88)">
<title>packages_flight_telemetry</title>
<polygon fill="white" stroke="none" points="-4,4 -4,-184 197.41,-184 197.41,4 -4,4"/>
<!-- flight_telemetry -->
<g id="node1" class="node">
<title>flight_telemetry</title>
<polygon fill="#f8f9fb" stroke="#77aadd" stroke-width="1.1" points="170.16,-180 86.13,-180 86.13,-144 170.16,-144 170.16,-180"/>
<text xml:space="preserve" text-anchor="middle" x="128.14" y="-158.12" font-family="Helvetica,sans-Serif" font-size="10.00">flight_telemetry</text>
</g>
<!-- flight_telemetry_flight_telemetry -->
<g id="node2" class="node">
<title>flight_telemetry_flight_telemetry</title>
<polygon fill="#f8f9fb" stroke="#77aadd" stroke-width="1.1" points="152.28,-108 0,-108 0,-72 152.28,-72 152.28,-108"/>
<text xml:space="preserve" text-anchor="middle" x="76.14" y="-86.12" font-family="Helvetica,sans-Serif" font-size="10.00">flight_telemetry.flight_telemetry</text>
</g>
<!-- flight_telemetry&#45;&gt;flight_telemetry_flight_telemetry -->
<g id="edge1" class="edge">
<title>flight_telemetry&#45;&gt;flight_telemetry_flight_telemetry</title>
<path fill="none" stroke="#4a5568" stroke-width="1.05" d="M115.29,-143.7C108.8,-134.97 100.83,-124.24 93.78,-114.75"/>
<polygon fill="#4a5568" stroke="#4a5568" stroke-width="1.05" points="95.93,-113.54 89.79,-109.38 92,-116.46 95.93,-113.54"/>
</g>
<!-- flight_telemetry_flight_args -->
<g id="node3" class="node">
<title>flight_telemetry_flight_args</title>
<polygon fill="#f8f9fb" stroke="#77aadd" stroke-width="1.1" points="193.41,-36 62.88,-36 62.88,0 193.41,0 193.41,-36"/>
<text xml:space="preserve" text-anchor="middle" x="128.14" y="-14.12" font-family="Helvetica,sans-Serif" font-size="10.00">flight_telemetry.flight_args</text>
</g>
<!-- flight_telemetry&#45;&gt;flight_telemetry_flight_args -->
<g id="edge2" class="edge">
<title>flight_telemetry&#45;&gt;flight_telemetry_flight_args</title>
<path fill="none" stroke="#4a5568" stroke-width="1.05" d="M142.47,-143.57C149.59,-133.76 157.45,-120.92 161.14,-108 165.54,-92.62 165.54,-87.38 161.14,-72 158.25,-61.9 152.83,-51.86 147.19,-43.27"/>
<polygon fill="#4a5568" stroke="#4a5568" stroke-width="1.05" points="149.37,-42.11 143.37,-37.74 145.34,-44.89 149.37,-42.11"/>
</g>
<!-- flight_telemetry_flight_telemetry&#45;&gt;flight_telemetry_flight_args -->
<g id="edge3" class="edge">
<title>flight_telemetry_flight_telemetry&#45;&gt;flight_telemetry_flight_args</title>
<path fill="none" stroke="#4a5568" stroke-width="1.05" d="M88.99,-71.7C95.48,-62.97 103.45,-52.24 110.5,-42.75"/>
<polygon fill="#4a5568" stroke="#4a5568" stroke-width="1.05" points="112.28,-44.46 114.49,-37.38 108.35,-41.54 112.28,-44.46"/>
</g>
</g>
</svg>
