<svg xmlns="http://www.w3.org/2000/svg" width="1120" height="550" viewBox="0 0 1120 550" role="img" aria-labelledby="title desc">
  <title id="title">AGILAB repository and installable payload split</title>
  <desc id="desc">Diagram showing AGILAB repository runtime layers, built-in app seeds, page bundles, and installable PyPI app and page payloads.</desc>
  <defs>
    <style>
      text { font-family: Arial, Helvetica, sans-serif; fill: #10223d; }
      .title { font-size: 26px; font-weight: 700; }
      .subtitle { font-size: 15px; fill: #586b83; }
      .zone { stroke: #b9c8dc; stroke-width: 2.2; rx: 24; ry: 24; }
      .zone-title { font-size: 21px; font-weight: 700; }
      .card { stroke: #14233a; stroke-width: 1.9; rx: 14; ry: 14; }
      .card-title { font-size: 16px; font-weight: 700; }
      .body { font-size: 13px; fill: #334861; }
      .note { font-size: 12.5px; fill: #586b83; }
      .arrow { stroke: #17253e; stroke-width: 2.6; fill: none; stroke-linecap: round; stroke-linejoin: round; }
      .arrow-soft { stroke: #58708b; stroke-width: 2.1; fill: none; stroke-linecap: round; stroke-dasharray: 8 7; }
    </style>
    <marker id="arrowhead" markerWidth="12" markerHeight="12" refX="10" refY="6" orient="auto" markerUnits="userSpaceOnUse">
      <path d="M 0 0 L 12 6 L 0 12 z" fill="#17253e" />
    </marker>
    <marker id="arrowhead-soft" markerWidth="12" markerHeight="12" refX="10" refY="6" orient="auto" markerUnits="userSpaceOnUse">
      <path d="M 0 0 L 12 6 L 0 12 z" fill="#58708b" />
    </marker>
  </defs>

  <rect width="1120" height="550" fill="#f8fbff" rx="30" ry="30"/>

  <g transform="translate(44,38)">
    <text class="title" x="0" y="0">Repository and payload split</text>
    <text class="subtitle" x="0" y="28">Current public layout: shared runtime packages stay in AGILAB; app/page payloads can also be installed from package distributions.</text>
  </g>

  <g id="repo" transform="translate(40,100)">
    <rect class="zone" width="480" height="410" fill="#ffffff"/>
    <text class="zone-title" x="240" y="36" text-anchor="middle">AGILAB repository / base wheel</text>

    <rect class="card" x="34" y="66" width="412" height="76" fill="#dbeafe"/>
    <text class="card-title" x="240" y="94" text-anchor="middle">agilab UI</text>
    <text class="body" x="240" y="116" text-anchor="middle">ABOUT · SETTINGS · PROJECT</text>
    <text class="body" x="240" y="134" text-anchor="middle">ORCHESTRATE · WORKFLOW · ANALYSIS</text>

    <rect class="card" x="34" y="168" width="190" height="64" fill="#ede9fe"/>
    <text class="card-title" x="129" y="194" text-anchor="middle">agi-core</text>
    <text class="body" x="129" y="216" text-anchor="middle">widgets, loaders, telemetry</text>

    <rect class="card" x="256" y="168" width="190" height="64" fill="#fef3c7"/>
    <text class="card-title" x="351" y="194" text-anchor="middle">agi-env</text>
    <text class="body" x="351" y="216" text-anchor="middle">paths, config, workspaces</text>

    <rect class="card" x="34" y="260" width="190" height="64" fill="#dcfce7"/>
    <text class="card-title" x="129" y="286" text-anchor="middle">agi-cluster / agi-node</text>
    <text class="body" x="129" y="308" text-anchor="middle">dispatch, packaging, workers</text>

    <rect class="card" x="256" y="260" width="190" height="64" fill="#ffedd5"/>
    <text class="card-title" x="351" y="286" text-anchor="middle">built-in app seeds</text>
    <text class="note" x="351" y="307" text-anchor="middle">src/agilab/apps/builtin</text>

    <rect class="card" x="34" y="350" width="412" height="44" fill="#fce7f3"/>
    <text class="card-title" x="240" y="376" text-anchor="middle">page bundles · src/agilab/apps-pages</text>
  </g>

  <g id="payloads" transform="translate(650,100)">
    <rect class="zone" width="430" height="410" fill="#ffffff"/>
    <text class="zone-title" x="215" y="36" text-anchor="middle">Installable app/page payloads</text>

    <rect class="card" x="40" y="78" width="350" height="64" fill="#ffedd5"/>
    <text class="card-title" x="215" y="104" text-anchor="middle">agi-app-* packages</text>
    <text class="body" x="215" y="126" text-anchor="middle">focused project payloads, e.g. flight telemetry</text>

    <rect class="card" x="40" y="176" width="350" height="64" fill="#fff7ed"/>
    <text class="card-title" x="215" y="202" text-anchor="middle">agi-apps umbrella</text>
    <text class="body" x="215" y="224" text-anchor="middle">catalog plus selected public starter payloads</text>

    <rect class="card" x="40" y="274" width="350" height="64" fill="#fce7f3"/>
    <text class="card-title" x="215" y="300" text-anchor="middle">agi-pages provider</text>
    <text class="body" x="215" y="322" text-anchor="middle">discoverable ANALYSIS sidecar dashboards</text>
  </g>

  <path class="arrow" d="M520 206 C570 184 594 168 650 166" marker-end="url(#arrowhead)"/>
  <path class="arrow" d="M520 292 C570 266 594 222 650 208" marker-end="url(#arrowhead)"/>
  <path class="arrow-soft" d="M520 472 C586 454 598 390 650 370" marker-end="url(#arrowhead-soft)"/>
  <path class="arrow-soft" d="M650 404 C596 376 582 324 520 318" marker-end="url(#arrowhead-soft)"/>

  <text class="note" x="550" y="166">runtime depends on</text>
  <text class="note" x="548" y="250">app payloads expose</text>
  <text class="note" x="552" y="450">page discovery</text>
  <text class="note" x="546" y="344">source seeds can be packaged</text>
</svg>
